M48
;Layer_Color=9474304
;FILE_FORMAT=4:4
METRIC,TZ
;TYPE=PLATED
T1F00S00C0.1778
T2F00S00C0.2000
T3F00S00C0.2286
T4F00S00C0.3000
T5F00S00C0.3048
T6F00S00C0.3500
T9F00S00C0.8890
T10F00S00C1.3000
T11F00S00C1.3970
T12F00S00C1.6500
T13F00S00C1.8034
T14F00S00C3.2512
T15F00S00C3.3000
;TYPE=NON_PLATED
T16F00S00C2.9972
%
T01
X786892Y1074674
Y1081024
X769112Y1130554
Y1145794
X681062Y1108964
X693039Y1092849
Y1086499
X681062Y1069594
Y1054354
X585028Y1791649
X569788
X554548
X343168Y1936779
Y1952019
Y1967259
T02
X813660Y189041
Y200041
Y211041
Y222041
Y233041
X824660
X835660
X846660
X857660
Y222041
X846660
X835660
X824660
Y211041
X835660
X846660
X857660
Y200041
X846660
X835660
X824660
Y189041
X835660
X846660
X857660
X353926Y811599
Y822599
Y833599
X208700Y723812
X197700
Y712812
X208700
X364926Y811599
Y822599
Y833599
X375926
Y822599
Y811599
X386926
Y822599
Y833599
X397926
Y822599
Y811599
X1678978Y710177
X1684728Y700677
X1673228
X1678978Y691177
X397926Y844599
X386926
X375926
X364926
Y855599
X375926
X386926
X397926
X353926
Y844599
X208880Y873380
Y884380
X197880
Y873380
X303960Y2054040
X314960
X325960
Y2065040
Y2076040
X314960
Y2065040
X303960
Y2076040
Y2087040
X314960
X325960
Y2098040
X314960
X303960
Y2109040
X314960
X325960
Y2120040
X314960
X303960
Y2131040
X314960
X325960
Y2142040
X314960
X303960
T03
X369208Y180360
X378460Y180340
X386080
X368749Y192709
X368300Y222219
X369951Y229927
Y239999
X372838Y246739
X382270Y247619
X378460Y236220
X399895Y247572
X416560Y257779
X408940Y265399
X375920Y292100
Y307340
Y322580
X373260Y408787
X383578Y408516
X383147Y427181
X378460Y431800
X373707Y426717
X407670Y427990
X417830
X417989Y408516
X407670Y408787
X431800Y209519
X417562Y154323
X402322
X473266Y129428
X488506
X511821Y116989
X529166
X545429
X563136
X582777
X598166Y117109
X607886
X618046
X628206
Y127269
Y137429
Y147589
Y157749
Y167909
Y182880
Y203200
Y220980
Y238760
Y254000
X617220Y246649
X607060Y254000
Y266700
X622300
X591820
Y254000
X580073Y246649
X569786
X559499
X548196Y249189
X540576
X530416
X522796
X535496Y242839
Y233949
X544386Y227599
X559499Y231409
X569786
X580073
X607060Y238760
Y220980
X617220Y228600
X579946Y172989
Y165369
Y157749
Y150129
Y142509
X518160Y205740
X506166Y208978
X345440Y209519
Y222219
X355600
X360578Y240021
X363220Y246739
Y292100
X350520
X337820
Y307340
X350520
X363220
Y322580
X350520
X337820
X323432Y411099
X308192
X351049Y433270
X356637Y428190
X177721Y431312
Y421152
X182801Y416072
X172641
X124931Y416721
X109691
X209004Y200680
X218440
X215900Y191673
Y163180
X228600
X238879
Y171572
X222686Y169829
X209004
X248967Y163180
X257070Y184180
Y194180
Y204180
X267070
Y194180
Y184180
X277070
Y194180
Y204180
X299120Y193040
Y182880
Y218440
X296580Y236220
X288960Y228600
Y246380
Y259080
X296580Y254000
X350520Y185420
X358140Y180340
Y191389
X362658Y442235
X351736Y442743
X361642Y460227
X358648Y469392
Y475488
X361388Y485373
X362658Y503153
X351736Y502645
X351482Y511789
X356562Y517377
X342592Y482579
X347418Y477753
Y467339
X342592Y462259
X323432Y462661
X308192
Y484759
X323432
Y536321
X308192
X209132Y498221
X193892
X147320Y497840
Y490220
X139700Y500380
X129540
X134541Y484652
X129461Y479572
X139621
X175260Y459740
X180340Y457200
Y449580
Y441960
X172720Y443120
X201512Y452120
X209132Y446659
X124931Y574040
X109691
X322771Y749939
Y758575
Y767465
Y777371
X324549Y785753
X324803Y793373
X324549Y800231
X335217Y784229
X342075Y784483
X342392Y776986
X342583Y767719
X342392Y758952
X342329Y750701
X362395Y769497
X363157Y781689
X369507Y781943
X372047Y769243
X414719Y769751
X423863Y770005
X423672Y790448
X414465Y783213
X414020Y537363
X403701Y537634
X403860Y518160
X414020
X414385Y494870
X425385
Y483870
Y472870
Y461870
Y450870
X414385
Y461870
Y472870
Y483870
X403385
Y494870
X392385
X381385
Y483870
X392385
Y472870
X381385
Y461870
X392385
Y450870
X381385
X403385
Y461870
Y472870
X381000Y518160
X370840
X371066Y537634
X381385Y537363
X714762Y463967
X781374Y450714
X810719
X824234Y498681
X873760Y518411
X927100Y498027
X913832Y449580
X884488
X956062Y463967
X999242
X1046480Y464348
X1107935Y450911
X1137280
X1150620Y498027
X1097280Y518411
X1067935
X1065881Y646045
X1045881
X1025881
X1006746Y646910
X1005862Y666045
X988615Y673329
X965876Y674534
X945881Y676045
Y696045
X955862Y706045
X955881Y735504
X965862Y736045
X965881Y746045
X975862
X975881Y756045
X985862
X995862
X996077Y746045
X1006058Y745956
X1016077Y746045
X1016058Y755848
X1006077Y756133
X1005862Y766045
X996077Y766045
X985881Y766045
Y776045
Y786045
X975881
X965881
X955881
Y796045
X935881
Y786045
X945881
Y776045
X935881
X935862Y766045
X935881Y756045
X945862
X945881Y766045
X955862
X965881
X975862
X975881Y776045
X965881
X955881
Y756045
X965862
X955862Y746045
X945881
X935862
X925738
Y726124
X915881
X915862Y716045
X905881
X885881
X875850Y735858
X875881Y746045
X895733Y745467
X905881Y766045
X925738Y786045
X916046Y795916
X925738Y826176
X905607
X895881Y816045
X876300Y815890
X865881Y816045
Y826045
X856064
X845881
X835881Y826133
X846525Y816133
X855984Y815890
X845881Y806045
Y786045
Y766045
Y746045
Y726045
Y706045
Y686045
X865881
X885881
X875881Y676045
X875862Y656045
X885881Y646045
X905862
X926643Y645301
X945862Y646045
X966643Y645301
X985113Y645296
X975862Y696045
X995862
X985881Y706045
Y726045
X985862Y736045
X985881Y746045
X995862Y735504
X975881
X965881Y726045
X945862Y736045
X935881Y735504
X935862Y726045
X915862Y696045
X905881Y686045
X925862Y666045
X845881Y665988
X835881Y636045
X865881Y706045
Y726045
Y766045
X885881Y786045
Y806045
X822960
X945881Y816045
X975881Y826045
X985881
Y796045
X995862
X1005862Y805688
X1006077Y776045
X1015528Y776207
X1016077Y766567
X1025424Y764676
X1026245Y755652
X1026077Y746045
X1036077
X1036970Y755152
X1046373Y756271
X1046276Y766925
X1055862Y766567
X1056077Y775956
X1066077
Y766567
X1075881Y766192
X1076464Y773689
X1086077Y773689
X1085530Y766629
X1075881Y786045
X1066077Y785956
X1076077Y795956
X1075881Y806045
X1076077Y815956
X1086077
X1088394Y823640
X1075881Y826045
X1066077Y825956
X1055881Y826045
Y815848
X1055988Y796270
X1045881Y786045
X1025881
X1035862Y796045
Y815848
X1025881Y826045
X1036077Y767374
X1044606Y744361
X1045294Y733316
X1056077Y735579
X1066454
X1075881Y728731
X1075959Y746123
X1066077Y756006
X1056077Y752484
X1055357Y725521
X1055881Y706045
X1075881
Y686045
Y666045
X1055881
Y685575
X1036248
X1025881Y676045
X1035862Y716045
X1015881
X1005862
X1095674Y785956
Y795956
X1085881Y636045
X770719Y518214
X1191197Y502793
X1206436Y502856
X1221676Y502920
Y538416
X1206436Y538353
X1191197Y538289
X1275197
X1290437Y538353
X1305677Y538416
Y502920
X1290437Y502856
X1275197Y502793
X1254760Y594614
X1240409Y594487
X1240155Y609600
X1254125
X1274458Y624713
X1295146Y624840
X1315466
X1320165Y609600
X1306195
X1306481Y594519
X1320832Y594646
X1335786Y624840
X1331214Y643890
X1340728Y645160
X1341363Y657225
X1345946Y652780
X1351280Y647700
X1361683Y657225
X1366266Y652780
X1371854Y643890
X1381369Y645160
X1392312Y643890
X1401689Y645160
X1412632Y643890
X1422009Y645160
X1432814Y643890
X1442328Y645160
X1442963Y657225
X1427226Y652780
X1422643Y657225
X1406906Y652780
X1402323Y657225
X1402334Y671830
X1411848Y673100
X1413181Y685347
X1393326Y685185
X1391528Y673100
X1382014Y671830
X1371208Y673100
X1361694Y671830
X1350889Y673100
X1341374Y671830
X1330569Y673100
X1321054Y671830
X1310249Y673100
X1300734Y671830
X1289928Y673100
X1280414Y671830
X1270000Y673100
X1260486Y671830
X1260337Y657225
X1264920Y652780
X1270023Y643890
X1279538Y645160
X1290574Y643890
X1300089Y645160
X1311031Y643890
X1320408Y645160
X1321043Y657225
X1325626Y652780
X1305306
X1300723Y657225
X1284986Y652780
X1280403Y657225
X1271304Y685148
X1291356Y685185
X1311696Y685158
X1331982Y685508
X1353488Y683200
X1372339Y685050
X1382003Y657225
X1386586Y652780
X1396746Y624840
X1417066
X1437386
X1438275Y609600
X1452245
X1452912Y594646
X1438561Y594519
X1386872Y594646
X1372521Y594519
X1372235Y609600
X1386205
X1376426Y624713
X1432168Y673100
X1433683Y685158
X1407417Y713585
X1398527
Y727555
X1407417
X1402683Y740377
Y748377
Y756377
Y764377
Y772377
X1416685Y779307
Y788197
Y808319
Y817209
X1409700Y824194
X1402683Y828377
X1386971Y824578
Y832578
X1378971
Y824578
Y816578
X1386971
Y808578
Y801214
Y792578
X1378971
X1378983Y800498
X1378294Y805017
X1378971Y784578
X1379202Y769859
X1385293Y768269
X1386752Y758810
X1387283Y751689
X1386971Y744578
X1378355Y749549
X1378971Y760578
X1340064Y759502
X1340042Y765586
X1332030Y765649
X1331925Y760059
X1332048Y749549
X1340048
X1339812Y742427
X1318206Y748538
X1316285Y761366
X1315720Y771752
X1308116Y770590
X1301623Y784411
X1315720Y786379
X1331559Y784460
X1331651Y790810
X1331962Y797952
X1332388Y805450
X1339202Y809859
X1339342Y816981
Y824488
Y832488
X1331342
Y824488
Y816488
X1315720Y813060
Y821060
X1301115Y820933
Y813060
X1339342Y801000
Y791665
Y785590
X1340965Y776340
X1331342Y776488
X1341617Y713585
X1350508
X1250568Y685185
X1244600Y670560
X1240960Y657184
X1239520Y647700
X1249680
X1417077Y538289
X1432316Y538353
X1447556Y538416
Y502920
X1432316Y502856
X1417077Y502793
X1501077
X1516317Y502856
X1531557Y502920
Y538416
X1516317Y538353
X1501077Y538289
X1465643Y783752
X1451293Y783625
X1447800Y794292
Y798864
X1441958Y801705
X1442763Y790679
X1451293Y809561
X1465643Y809688
X1409700Y801334
X1402683Y804377
X1635760Y746760
X1644501
X1653540
Y735831
X1644688
X1635760
X1620520Y726440
Y711200
X1633220
X1645081Y713740
X1653540
Y723900
X1675108Y725671
X1682728
X1695428Y743451
Y753611
X1708128
Y743451
X1718253Y724267
X1731900Y725670
X1705234Y710677
X1682728Y672331
X1675108
X1657328Y669919
Y677411
Y685031
Y692651
X1645081Y680720
X1633220
X1620520
Y695960
X1633220
Y665480
X1645081
X1657328Y662427
Y654936
Y647444
Y639952
Y632460
X1649084
Y639952
Y647444
X1640840
Y639952
Y632460
X1620520Y652780
Y665480
X1639592Y841776
Y849268
Y856759
X1647836
Y849268
Y841776
X1656080
Y849268
Y856759
Y864251
Y871743
Y879235
Y886727
Y894080
Y901700
X1677670Y900480
X1671920Y909980
X1683420
X1677670Y919480
X1673860Y934720
X1681480
X1694180Y952500
Y962660
X1706880
Y952500
X1652302Y955369
X1643264
X1634522
Y944440
X1643451
X1652302
Y932509
Y922349
X1643844
X1632039Y922129
X1619339
Y937369
Y906889
X1632039
Y891649
X1619339
Y876409
X1632039
X1619339Y863709
X1673860Y881380
X1682750Y885113
X1401445Y883285
X1392555
Y869315
X1401445
X1409700Y860008
X1416685Y853023
Y844133
X1409700Y837148
X1402683Y836377
Y844377
Y852377
X1386971Y848578
X1378971
Y840578
Y856578
X1386971
X1383543Y872200
X1375543
X1343543Y871680
X1335543
X1331371Y881409
X1315720
X1310640Y871220
X1308100Y859918
X1315720Y861060
Y853060
Y845060
X1301115Y844043
X1331342Y840488
Y848488
X1339342
Y840488
Y856488
X1331342
X1322880Y1052098
Y1062098
Y1072098
X1312880
X1302880
Y1062098
X1312880
Y1052098
X1302880
X1271778Y1047496
X1264158Y1055116
X1266190Y1070610
X1271778Y1078230
Y1086098
X1267460Y1094740
X1277620
X1285240
X1294130
X1289177Y1086098
X1282700Y1104900
X1271778
X1267460Y1111250
X1277620
X1301750Y1112520
X1309370
X1316990
X1324610
X1312880Y1104900
Y1094740
X1332230
X1339850
X1347470Y1097280
Y1089660
Y1082040
Y1075098
Y1062098
X1336880Y1086098
X1347470Y1104900
Y1112520
X1361567Y1093343
X1369187Y1085723
X1410208Y1087368
Y1079500
X1404620Y1071880
X1402588Y1056386
X1410208Y1048766
X1441310Y1053368
Y1063368
Y1073368
X1451310
X1461310
Y1063368
X1451310
Y1053368
X1461310
X1483360Y1055370
Y1050368
X1485900Y1063368
Y1076368
Y1083310
Y1090930
Y1098550
Y1106170
Y1113790
X1463040
X1455420
X1447800
X1440180
X1451310Y1106170
Y1096010
X1432560
X1423670
X1416050
X1405890
X1410208Y1106170
X1405890Y1112520
X1416050
X1421130Y1106170
X1427607Y1087368
X1475310
X1478280Y1096010
X1470660
X1499997Y1094613
X1507617Y1086993
X1507490Y1040130
X1499870Y1032510
X1369060Y1038860
X1361440Y1031240
X1193771Y1071366
X1170403
X1162783Y1058666
X1167863Y1045966
X1160243Y1096766
X1194562Y1102106
X1206500Y1117086
X1194562Y1134866
X1206500Y1085596
X1152623Y1084066
X1139923
X1127223
X1132303Y1071366
X1119603
X1124683Y1058666
X1137383
X1150083
X1155163Y1045966
X1142463
X1129763
X1117063
X1084326Y1037590
X1069848Y1053586
Y1085336
X1084326Y1071366
Y1101598
X1069848Y1116838
X1085088Y1130808
X1106903Y1134866
X1119603
X1132303
X1145003
X1157703
X1152623Y1147566
X1139923
X1127223
X1114523
X1101823
X1109443Y1160266
X1122143
X1134843
X1147543
X1150083Y1122166
X1137383
X1124683
X1111983
X1117063Y1109466
X1129763
X1142463
X1155163
X1147543Y1096766
X1134843
X1122143
X1145003Y1071366
X1157703
X1019302Y1133856
X1006094
X987298
Y1148334
Y1163320
Y1177798
X969264
X952754Y1177544
Y1160526
Y1137412
X969264Y1134364
X1020064Y1148334
X1020572Y1163320
X1021334Y1177798
X1006094
X1043940Y904240
X1035881Y876045
X1015881
X995881
X975881
X955881
X936184
Y865536
X935881Y846045
Y836168
X955881Y846045
X975881
X995881Y856045
X1015881
X1035881
X1036059Y835508
X995881
X1076077Y835956
X1086077
Y845956
Y855956
Y865956
Y875956
X1088541Y883384
X1076077Y875956
X1075976Y865306
X1076077Y855956
X1075881Y846045
X1066077Y845956
Y865956
X916009Y855761
X915881Y876045
X895881
X875881
Y886045
X845944
X835881
X835944Y866045
X845881
X855980
X865881
Y846045
X855980
Y836064
X845881Y836133
X835881
X835944Y856045
X846525Y855881
X820420Y851344
X885881Y855761
Y836168
X895881Y846045
X855980Y911860
X721360Y1028700
X713740
X706120
X650240
X655320Y1035118
X645160
X644982Y1051560
X652602
Y1059180
X644982
Y1066800
X637451Y1066871
X629742Y1066800
Y1059180
X637362
X652691Y1066871
X609351Y1080871
X599351
X589351
Y1090871
X599351
X609351
Y1100871
X599351
X589351
X586740Y1130300
X594360
X601980
X579120
X571500
X563880
X556260Y1130300
X548640
X541020
Y1120745
X548640
X556260
X556171Y1111191
X548640
X540931
Y1066871
X541020Y1059180
X548640
X556260
Y1051560
X548640
X541020
X540931Y1035118
X548640
X556171
X563880
X559855Y1029309
X551974Y1029520
X544164Y1029661
X563880Y1051560
Y1059180
Y1066800
X556171Y1066871
X548640Y1066800
X566420Y1090871
X589351Y1035118
X596900
X604520
X601087Y1029379
X592851
X508000Y1135380
X432168Y904354
X424004Y904513
X424117Y895043
X433258
X428422Y886574
X424117Y878463
X416927Y884034
X413653Y895043
X413540Y904468
X427927Y846459
Y840109
X437579Y839347
X437833Y848491
X325645Y868718
X327052Y884941
X337122
X336708Y895591
X327666
X347980Y1138555
X363220
X233928Y1228837
X219958Y1219383
X143758Y1160301
X129788
X115818
Y1141708
X129788
X143758
X101848Y1150847
Y1169440
Y1132255
X219958Y1237976
Y1256568
Y1275161
Y1293753
Y1312346
Y1330938
Y1349531
X233928Y1340392
Y1321799
Y1303207
Y1284614
Y1266022
Y1247429
X336550Y1365250
Y1384300
Y1403350
X355600
Y1365250
X362378Y1504538
X358025Y1509146
X346673Y1524015
X347006Y1543909
X327317Y1538761
X288598Y1551615
X287994Y1615243
X327660Y1622513
X335140Y1619206
X356595Y1596453
X358140Y1590040
Y1583436
Y1578864
X350520Y1576190
X353867Y1587070
X179418Y1593950
X179518Y1568550
X179619Y1542979
X159928Y1549400
X155219Y1553479
Y1558051
X159943Y1562100
X149860
Y1549400
X179518Y1619350
X370840Y1616425
X378460Y1615440
X398780
X406400
X414020
X416560Y1605280
X426720
X447040Y1591850
X462280Y1592580
X464820Y1598670
Y1605280
X466090Y1583650
Y1577340
Y1562100
Y1554480
Y1546860
Y1539240
X434340Y1504950
X435388Y1499625
X422099Y1500111
X419100Y1504950
X426720
X411502Y1505464
X404464Y1506270
X388620Y1504950
X382874Y1504835
X368300Y1504950
X373825Y1526146
X365760Y1554480
Y1602740
X416560Y1559560
X374650Y1403350
Y1384300
Y1365250
X707310Y1366549
Y1341149
Y1315749
X732710
Y1341149
Y1366549
X758110
Y1341149
Y1315749
X783510Y1366549
X802560
X860298Y1305560
X860044Y1291584
Y1279398
X868143Y1259326
Y1246626
X880843
X893543
X906243
X918943
Y1259326
X944343
X957043
Y1246626
Y1233926
X944343
Y1246626
X931643
X969743
Y1233926
X982443
Y1246626
Y1259326
X971550Y1312926
X946658Y1312164
X925322Y1312672
X907034Y1312926
X885698Y1312672
X871728Y1313688
X868143Y1233926
X880843
X574040Y1676400
X436880
X315625Y1708533
X300385
X285145
X223768Y1711681
X189858Y1711280
X132328Y1711481
X100578
X65098Y1741781
X50038Y1742781
X55020Y1749031
X26918Y1755938
Y1774531
Y1737346
X23256Y1701321
X32480
X13888
Y1810241
X23256
X32480
X119480Y1826561
X128620Y1826461
X138022Y1826360
X119466Y1837501
X119254Y1848441
X119380Y1859380
X128720
X138123
X166778Y1856640
X176180Y1856539
X185320Y1856439
X185334Y1845499
X185546Y1834559
X185420Y1823620
X176080
X166677
X189858Y1787480
X223768Y1787881
X133218
X132774Y1759210
X133117Y1749581
X179418Y1630455
X235198Y1653061
X235016Y1681835
X241300Y2016760
X248920
X257302
X241300Y2024380
X363220Y2019300
X355600Y2026920
X358140Y2075180
X363220
X360680Y2088290
X363220Y2120680
X358140Y2120900
X355600Y2169033
X363220Y2179320
X258572Y2178050
Y2170430
X250190Y2178050
X242570
Y2170430
X241300Y2143760
X250190
X258572
X257302Y2047240
X248920
X241300
Y2039620
Y2032000
X370840Y2027047
X368300Y2075180
Y2120900
X375920Y2133600
X370840Y2169160
X546100Y2152650
X539750Y2139950
Y2127250
Y2108200
Y2089150
Y2070100
Y2051050
X546100Y2038350
X565150
X584200
X603250
X622300
X615950Y2051050
X622300Y2063750
Y2082800
Y2101850
Y2120900
X615950Y2139950
X596900
X577850
X558800
X565150Y2152650
X584200
X603250
X622300
X596900Y2051050
X577850
X558800
T04
X389750Y205740
Y215740
X399750
X409750
Y225740
X399750
X389750
X399750Y205740
X409750
X521366Y179389
X529166
X536966
Y162189
X529166
X521366
T05
X738792Y1077374
X748792
X758792
Y1087374
Y1097374
X748792
Y1087374
X738792
Y1097374
T06
X381000Y1570450
X391700
X402400
Y1581150
X391700
X381000
Y1591850
X391700
X402400
T09
X76448Y1547651
Y1567971
Y1588291
Y1608611
X94228Y1598451
Y1578131
Y1557811
Y1618771
X142488Y1537491
Y1514631
Y1628931
Y1651791
T10
X45720Y2028120
Y2078120
Y2128120
Y2178120
T11
X484927Y1193800
X516677
X548427
X707177
X357927
Y1384300
X707177
T12
X23712Y365921
X49112Y391321
X74512Y365921
Y416721
X23712
Y523240
X49112Y548640
X74512Y523240
Y574040
X23712
X25061Y693551
Y744351
X75861
Y693551
X50461Y718951
X25061Y851691
Y902491
X75861
Y851691
X50461Y877091
T13
X139288Y1245211
Y1287211
Y1329211
X194288
Y1287211
Y1245211
T14
X51048Y1519711
Y1646711
T15
X1879600Y50800
X50800
X939800Y1689100
X127000Y2298700
T16
X66288Y1245211
Y1329211
M30
