G04*
G04 #@! TF.GenerationSoftware,Altium Limited,Altium Designer,23.4.1 (23)*
G04*
G04 Layer_Physical_Order=3*
G04 Layer_Color=6736896*
%FSLAX44Y44*%
%MOMM*%
G71*
G04*
G04 #@! TF.SameCoordinates,CF21992F-A9CA-4C5A-8A3B-549160C445C6*
G04*
G04*
G04 #@! TF.FilePolarity,Positive*
G04*
G01*
G75*
%ADD10C,0.2540*%
%ADD173C,0.1016*%
%ADD195C,0.2032*%
%ADD216C,0.3810*%
%ADD240C,0.1788*%
%ADD241C,0.1788*%
%ADD242C,0.1365*%
D10*
X769620Y998220D02*
X855980Y911860D01*
X855944Y866045D02*
X855980D01*
X840740Y881249D02*
X855944Y866045D01*
X661670Y949960D02*
X666750D01*
X687070Y955040D02*
X688340D01*
X637540D02*
X641350D01*
X676910Y949960D02*
Y960120D01*
X681990D01*
Y949960D02*
Y960120D01*
X646430D02*
X651510D01*
Y949960D02*
X656590D01*
X671830D02*
X676910D01*
X646430Y951869D02*
Y960120D01*
X661670Y949960D02*
Y960120D01*
X656590D02*
X661670D01*
X656590Y949960D02*
Y960120D01*
X671830Y949960D02*
Y960120D01*
X681990Y949960D02*
X687070D01*
X641350Y951869D02*
X646430D01*
X666750Y960120D02*
X671830D01*
X641350Y951869D02*
Y955040D01*
X666750Y949960D02*
Y960120D01*
X687070Y949960D02*
Y955040D01*
X651510Y949960D02*
Y960120D01*
X694690Y944880D02*
Y949960D01*
X709930Y939800D02*
Y949960D01*
X715010D02*
X720090D01*
X694690D02*
X699770D01*
X709930Y939800D02*
X715010D01*
X704850D02*
Y949960D01*
X715010Y939800D02*
Y949960D01*
X693420Y944880D02*
X694690D01*
X699770Y939800D02*
Y949960D01*
X704850D02*
X709930D01*
X725170Y944880D02*
X731520D01*
X699770Y939800D02*
X704850D01*
X720090Y941037D02*
X725170D01*
X720090D02*
Y949960D01*
X725170Y941037D02*
Y944880D01*
X694690Y980440D02*
Y990600D01*
X704850Y983868D02*
Y985520D01*
X689610Y980440D02*
X694690D01*
Y990600D02*
X699770D01*
X684530D02*
X689610D01*
X704850Y985520D02*
X708660D01*
X689610Y980440D02*
Y990600D01*
X699770Y983868D02*
Y990600D01*
X684530Y985520D02*
Y990600D01*
X699770Y983868D02*
X704850D01*
X683260Y985520D02*
X684530D01*
X707390Y970280D02*
X712470D01*
X692150Y960120D02*
Y970280D01*
Y960120D02*
X697230D01*
X702310D02*
Y970280D01*
X685800Y965200D02*
X687070D01*
X702310Y960120D02*
X707390D01*
X687070Y970280D02*
X692150D01*
X697230D02*
X702310D01*
X712470Y961500D02*
X717550D01*
X697230Y960120D02*
Y970280D01*
X717550Y965200D02*
X726440D01*
X712470Y961500D02*
Y970280D01*
X717550Y961500D02*
Y965200D01*
X707390Y960120D02*
Y970280D01*
X687070Y965200D02*
Y970280D01*
X676910D02*
Y980440D01*
Y970280D02*
X681990D01*
X671830Y980440D02*
X676910D01*
X666750Y970280D02*
Y980440D01*
X661670Y975360D02*
Y980440D01*
X666750Y970280D02*
X671830D01*
X681990D02*
Y975360D01*
X688340D01*
X660400D02*
X661670D01*
X671830Y970280D02*
Y980440D01*
X661670D02*
X666750D01*
X398780Y1630680D02*
X402400Y1634300D01*
X456120D01*
X424728Y1613448D02*
X433792D01*
X419100Y1620520D02*
X442508D01*
X414020Y1615440D02*
X419100Y1620520D01*
X408940Y1628140D02*
X452120D01*
X406400Y1625600D02*
X408940Y1628140D01*
X406400Y1615440D02*
Y1625600D01*
X416560Y1605280D02*
X424728Y1613448D01*
X398780Y1615440D02*
Y1630680D01*
X378460Y1615440D02*
X388620D01*
X452120Y1628140D02*
X472440Y1607820D01*
X456120Y1634300D02*
X480060Y1610360D01*
Y1372861D02*
Y1610360D01*
X452120Y1379220D02*
Y1610908D01*
X442508Y1620520D02*
X452120Y1610908D01*
X472440Y1381326D02*
Y1607820D01*
X426720Y1394460D02*
Y1605280D01*
X408940Y1010920D02*
X464820Y955040D01*
X419100Y1018540D02*
X472440Y965200D01*
X431800Y1023620D02*
X480060Y975360D01*
X769620Y985520D02*
X845944Y909196D01*
X840740Y861666D02*
X846525Y855881D01*
X845944Y886045D02*
Y909196D01*
X764540Y975360D02*
X840740Y899160D01*
Y881249D02*
Y899160D01*
X746949Y955040D02*
X835944Y866045D01*
X840740Y861666D02*
Y873760D01*
X749300Y965200D02*
X840740Y873760D01*
X747109Y944880D02*
X835944Y856045D01*
X454660Y944880D02*
X693420D01*
X731520D02*
X747109D01*
X472440Y965200D02*
X685800D01*
X726440D02*
X749300D01*
X688340Y955040D02*
X746949D01*
X464820D02*
X637540D01*
X688340Y975360D02*
X764540D01*
X480060D02*
X660400D01*
X397135Y1002405D02*
X454660Y944880D01*
X388620Y1615440D02*
X397135Y1606925D01*
Y1002405D02*
Y1606925D01*
X433792Y1613448D02*
X441960Y1605280D01*
Y1389380D02*
Y1605280D01*
X452120Y1344921D02*
X480060Y1372861D01*
X443044Y1351930D02*
X472440Y1381326D01*
X408940Y1376680D02*
X426720Y1394460D01*
X431800Y1358900D02*
X452120Y1379220D01*
X408940Y1010920D02*
Y1376680D01*
X419100Y1018540D02*
Y1366520D01*
X431800Y1023620D02*
Y1358900D01*
X443044Y1032696D02*
Y1351930D01*
Y1032696D02*
X490220Y985520D01*
X452120Y1036320D02*
Y1344921D01*
Y1036320D02*
X490220Y998220D01*
X708660Y985520D02*
X769620D01*
X490220Y998220D02*
X769620D01*
X490220Y985520D02*
X683260D01*
X419100Y1366520D02*
X441960Y1389380D01*
X250814Y226184D02*
X250938Y226060D01*
X267070D01*
X1347470Y1062098D02*
Y1075098D01*
X1485900Y1063368D02*
Y1076368D01*
X935881Y846388D02*
X936184Y846692D01*
X935881Y846045D02*
Y846388D01*
X399871Y247596D02*
X399895Y247572D01*
X382294Y247596D02*
X399871D01*
X382270Y247619D02*
X382294Y247596D01*
D173*
X1432083Y795753D02*
X1432401Y795435D01*
X1433030Y798039D02*
X1433348Y797721D01*
X1445901D01*
X1432401Y795435D02*
X1445901D01*
Y797721D02*
X1447044Y798864D01*
X1447800D01*
X1385656Y795753D02*
X1432083D01*
X1384709Y798039D02*
X1433030D01*
X1376043Y797650D02*
X1378890Y800498D01*
X1378983D01*
X1062276Y777393D02*
X1065052Y780169D01*
X1059879Y778385D02*
X1064060Y782566D01*
X1100971Y780169D02*
X1101090Y780050D01*
X1065052Y780169D02*
X1100971D01*
X1100971Y782566D02*
X1101090Y782685D01*
X1064060Y782566D02*
X1100971D01*
X1059284Y775956D02*
X1059879Y776551D01*
X1062276D02*
X1062871Y775956D01*
X1062276Y776551D02*
Y777393D01*
X1056077Y775956D02*
X1059284D01*
X1062871D02*
X1066077D01*
X1059879Y776551D02*
Y778385D01*
X1385338Y795435D02*
X1385656Y795753D01*
X1384391Y797721D02*
X1384709Y798039D01*
X1378971Y792578D02*
X1381828Y795435D01*
X1385338D01*
X1381828Y797721D02*
X1384391D01*
X1378971Y800578D02*
X1381828Y797721D01*
X1445901Y795435D02*
X1447044Y794292D01*
X1447800D01*
X1376535Y795014D02*
X1378971Y792578D01*
X1375693Y795014D02*
X1376535D01*
D195*
X373825Y1449895D02*
Y1526146D01*
X386080Y988060D02*
X449580Y924560D01*
X530860D01*
X649375Y806045D01*
X822960D01*
X373825Y1449895D02*
X381000Y1442720D01*
Y1277620D02*
X386080Y1272540D01*
X381000Y1277620D02*
Y1442720D01*
X386080Y988060D02*
Y1272540D01*
D216*
X1447800Y798864D02*
D03*
Y794292D02*
D03*
X1331925Y760059D02*
D03*
X1076464Y773689D02*
D03*
X1085530Y766629D02*
D03*
X426720Y1504950D02*
D03*
X855980Y911860D02*
D03*
Y866045D02*
D03*
X835944Y856045D02*
D03*
Y866045D02*
D03*
X845944Y886045D02*
D03*
X378460Y1615440D02*
D03*
X414020D02*
D03*
X426720Y1605280D02*
D03*
X406400Y1615440D02*
D03*
X416560Y1605280D02*
D03*
X398780Y1615440D02*
D03*
X846525Y855881D02*
D03*
X373825Y1526146D02*
D03*
X822960Y806045D02*
D03*
X1386752Y758810D02*
D03*
X1387283Y751689D02*
D03*
X1385293Y768269D02*
D03*
X1339202Y809859D02*
D03*
X1086077Y773689D02*
D03*
X1378983Y800498D02*
D03*
X1036077Y746045D02*
D03*
X1066077Y756006D02*
D03*
X1006077Y756133D02*
D03*
X1036970Y755152D02*
D03*
X1339812Y742427D02*
D03*
X1056077Y752484D02*
D03*
X1066077Y766567D02*
D03*
X1340048Y749549D02*
D03*
X1066077Y775956D02*
D03*
X1378971Y760578D02*
D03*
X1095674Y785956D02*
D03*
X1066077D02*
D03*
X1331342Y776488D02*
D03*
X1056077Y775956D02*
D03*
X1086077Y835956D02*
D03*
X1066077Y825956D02*
D03*
X1331342Y824488D02*
D03*
X1343543Y871680D02*
D03*
X1378971Y792578D02*
D03*
Y848578D02*
D03*
Y856578D02*
D03*
X1076077Y815956D02*
D03*
X1086077D02*
D03*
Y845956D02*
D03*
X1066077D02*
D03*
X1076077Y855956D02*
D03*
X1066077Y865956D02*
D03*
X1076077Y875956D02*
D03*
X1386971Y848578D02*
D03*
Y744578D02*
D03*
Y808578D02*
D03*
Y824578D02*
D03*
Y856578D02*
D03*
X1375543Y872200D02*
D03*
X1339342Y832488D02*
D03*
Y848488D02*
D03*
X1086077Y855956D02*
D03*
X1347470Y1075098D02*
D03*
Y1062098D02*
D03*
X1485900Y1063368D02*
D03*
Y1076368D02*
D03*
X382270Y247619D02*
D03*
X399895Y247572D02*
D03*
X935881Y846045D02*
D03*
D240*
X1262931Y715315D02*
G03*
X1264460Y713786I1529J0D01*
G01*
X1264460D02*
G03*
X1265989Y715315I0J1529D01*
G01*
X1262931Y715762D02*
G03*
X1261144Y717550I-1788J0D01*
G01*
X1267777D02*
G03*
X1265989Y715762I0J-1788D01*
G01*
X1125880Y851287D02*
G03*
X1127667Y849499I1788J0D01*
G01*
X1125880Y851287D02*
G03*
X1124351Y852816I-1529J0D01*
G01*
X1124351D02*
G03*
X1122822Y851287I0J-1529D01*
G01*
X1121034Y849499D02*
G03*
X1122822Y851287I0J1788D01*
G01*
X1211493Y774151D02*
G03*
X1209705Y772363I0J-1788D01*
G01*
X1208176Y770834D02*
G03*
X1209705Y772363I0J1529D01*
G01*
X1206647D02*
G03*
X1208176Y770834I1529J0D01*
G01*
X1206647Y776669D02*
G03*
X1205119Y778198I-1529J0D01*
G01*
X1205119D02*
G03*
X1203590Y776669I0J-1529D01*
G01*
X1201802Y774151D02*
G03*
X1203590Y775938I0J1788D01*
G01*
X1280786Y806298D02*
G03*
X1278998Y804510I0J-1788D01*
G01*
X1277470Y802654D02*
G03*
X1278998Y804183I0J1529D01*
G01*
X1275941D02*
G03*
X1277470Y802654I1529J0D01*
G01*
X1275941Y804911D02*
G03*
X1274412Y806440I-1529J0D01*
G01*
X1274412D02*
G03*
X1272883Y804911I0J-1529D01*
G01*
X1271354Y801218D02*
G03*
X1272883Y802747I0J1529D01*
G01*
X1269825D02*
G03*
X1271354Y801218I1529J0D01*
G01*
X1269825Y804911D02*
G03*
X1268296Y806440I-1529J0D01*
G01*
X1268296D02*
G03*
X1266767Y804911I0J-1529D01*
G01*
X1265238Y801218D02*
G03*
X1266767Y802747I0J1529D01*
G01*
X1263710D02*
G03*
X1265238Y801218I1529J0D01*
G01*
X1263710Y804911D02*
G03*
X1262181Y806440I-1529J0D01*
G01*
X1262181D02*
G03*
X1260652Y804911I0J-1529D01*
G01*
X1259123Y801218D02*
G03*
X1260652Y802747I0J1529D01*
G01*
X1257594D02*
G03*
X1259123Y801218I1529J0D01*
G01*
X1257594Y804911D02*
G03*
X1256065Y806440I-1529J0D01*
G01*
X1256065D02*
G03*
X1254536Y804911I0J-1529D01*
G01*
X1253007Y801218D02*
G03*
X1254536Y802747I0J1529D01*
G01*
X1251478D02*
G03*
X1253007Y801218I1529J0D01*
G01*
X1251478Y804911D02*
G03*
X1249950Y806440I-1529J0D01*
G01*
X1249949D02*
G03*
X1248421Y804911I0J-1529D01*
G01*
X1246892Y801218D02*
G03*
X1248421Y802747I0J1529D01*
G01*
X1245363D02*
G03*
X1246892Y801218I1529J0D01*
G01*
X1245363Y804510D02*
G03*
X1243575Y806298I-1788J0D01*
G01*
X1147561Y728980D02*
G03*
X1145773Y727192I0J-1788D01*
G01*
X1144244Y725663D02*
G03*
X1145773Y727192I0J1529D01*
G01*
X1142715D02*
G03*
X1144244Y725663I1529J0D01*
G01*
X1142715Y732012D02*
G03*
X1141186Y733541I-1529J0D01*
G01*
X1141186D02*
G03*
X1139657Y732012I0J-1529D01*
G01*
X1138128Y723900D02*
G03*
X1139657Y725429I0J1529D01*
G01*
X1136599D02*
G03*
X1138128Y723900I1529J0D01*
G01*
X1136599Y732531D02*
G03*
X1135070Y734060I-1529J0D01*
G01*
X1135070D02*
G03*
X1133542Y732531I0J-1529D01*
G01*
X1132013Y723900D02*
G03*
X1133542Y725429I0J1529D01*
G01*
X1130484D02*
G03*
X1132013Y723900I1529J0D01*
G01*
X1130484Y732531D02*
G03*
X1128955Y734060I-1529J0D01*
G01*
X1128955D02*
G03*
X1127426Y732531I0J-1529D01*
G01*
X1125638Y728980D02*
G03*
X1127426Y730768I0J1788D01*
G01*
X1243800Y742427D02*
G03*
X1242012Y740639I0J-1788D01*
G01*
X1240483Y739110D02*
G03*
X1242012Y740639I0J1529D01*
G01*
X1238954D02*
G03*
X1240483Y739110I1529J0D01*
G01*
X1238954Y740898D02*
G03*
X1237426Y742427I-1529J0D01*
G01*
X1237426D02*
G03*
X1235897Y740898I0J-1529D01*
G01*
X1234368Y737773D02*
G03*
X1235897Y739302I0J1529D01*
G01*
X1232839D02*
G03*
X1234368Y737773I1529J0D01*
G01*
X1232839Y740898D02*
G03*
X1231310Y742427I-1529J0D01*
G01*
X1231310D02*
G03*
X1229781Y740898I0J-1529D01*
G01*
X1228252Y737347D02*
G03*
X1229781Y738876I0J1529D01*
G01*
X1226723D02*
G03*
X1228252Y737347I1529J0D01*
G01*
X1226723Y740898D02*
G03*
X1225194Y742427I-1529J0D01*
G01*
X1225194D02*
G03*
X1223666Y740898I0J-1529D01*
G01*
X1222137Y737347D02*
G03*
X1223666Y738876I0J1529D01*
G01*
X1220608D02*
G03*
X1222137Y737347I1529J0D01*
G01*
X1220608Y740898D02*
G03*
X1219079Y742427I-1529J0D01*
G01*
X1219079D02*
G03*
X1217550Y740898I0J-1529D01*
G01*
X1216021Y737347D02*
G03*
X1217550Y738876I0J1529D01*
G01*
X1214492D02*
G03*
X1216021Y737347I1529J0D01*
G01*
X1214492Y740898D02*
G03*
X1212963Y742427I-1529J0D01*
G01*
X1212963D02*
G03*
X1211434Y740898I0J-1529D01*
G01*
X1209906Y737347D02*
G03*
X1211434Y738876I0J1529D01*
G01*
X1208377D02*
G03*
X1209906Y737347I1529J0D01*
G01*
X1208377Y740898D02*
G03*
X1206848Y742427I-1529J0D01*
G01*
X1206848D02*
G03*
X1205319Y740898I0J-1529D01*
G01*
X1203790Y737347D02*
G03*
X1205319Y738876I0J1529D01*
G01*
X1202261D02*
G03*
X1203790Y737347I1529J0D01*
G01*
X1202261Y740898D02*
G03*
X1200732Y742427I-1529J0D01*
G01*
X1200732D02*
G03*
X1199203Y740898I0J-1529D01*
G01*
X1197674Y737347D02*
G03*
X1199203Y738876I0J1529D01*
G01*
X1196146D02*
G03*
X1197674Y737347I1529J0D01*
G01*
X1196146Y740898D02*
G03*
X1194617Y742427I-1529J0D01*
G01*
X1194617D02*
G03*
X1193088Y740898I0J-1529D01*
G01*
X1191559Y737347D02*
G03*
X1193088Y738876I0J1529D01*
G01*
X1190030D02*
G03*
X1191559Y737347I1529J0D01*
G01*
X1190030Y740898D02*
G03*
X1188501Y742427I-1529J0D01*
G01*
X1188501D02*
G03*
X1186972Y740898I0J-1529D01*
G01*
X1185443Y737347D02*
G03*
X1186972Y738876I0J1529D01*
G01*
X1183914D02*
G03*
X1185443Y737347I1529J0D01*
G01*
X1183914Y740898D02*
G03*
X1182386Y742427I-1529J0D01*
G01*
X1182386D02*
G03*
X1180857Y740898I0J-1529D01*
G01*
X1179328Y737347D02*
G03*
X1180857Y738876I0J1529D01*
G01*
X1177799D02*
G03*
X1179328Y737347I1529J0D01*
G01*
X1177799Y740898D02*
G03*
X1176270Y742427I-1529J0D01*
G01*
X1176270D02*
G03*
X1174741Y740898I0J-1529D01*
G01*
X1173212Y737347D02*
G03*
X1174741Y738876I0J1529D01*
G01*
X1171683D02*
G03*
X1173212Y737347I1529J0D01*
G01*
X1171683Y740898D02*
G03*
X1170154Y742427I-1529J0D01*
G01*
X1170154D02*
G03*
X1168626Y740898I0J-1529D01*
G01*
X1167097Y737347D02*
G03*
X1168626Y738876I0J1529D01*
G01*
X1165568D02*
G03*
X1167097Y737347I1529J0D01*
G01*
X1165568Y740898D02*
G03*
X1164039Y742427I-1529J0D01*
G01*
X1164039D02*
G03*
X1162510Y740898I0J-1529D01*
G01*
X1160981Y737347D02*
G03*
X1162510Y738876I0J1529D01*
G01*
X1159452D02*
G03*
X1160981Y737347I1529J0D01*
G01*
X1159452Y740898D02*
G03*
X1157923Y742427I-1529J0D01*
G01*
X1157923D02*
G03*
X1156395Y740898I0J-1529D01*
G01*
X1154866Y737347D02*
G03*
X1156395Y738876I0J1529D01*
G01*
X1153337D02*
G03*
X1154866Y737347I1529J0D01*
G01*
X1153337Y740898D02*
G03*
X1151808Y742427I-1529J0D01*
G01*
X1151808D02*
G03*
X1150279Y740898I0J-1529D01*
G01*
X1148750Y737347D02*
G03*
X1150279Y738876I0J1529D01*
G01*
X1147221D02*
G03*
X1148750Y737347I1529J0D01*
G01*
X1147221Y740639D02*
G03*
X1145433Y742427I-1788J0D01*
G01*
X1310988Y746765D02*
G03*
X1312776Y744977I1788J0D01*
G01*
X1310988Y747338D02*
G03*
X1309459Y748867I-1529J0D01*
G01*
X1309459D02*
G03*
X1307930Y747338I0J-1529D01*
G01*
X1306401Y744977D02*
G03*
X1307930Y746506I0J1529D01*
G01*
X1304872D02*
G03*
X1306401Y744977I1529J0D01*
G01*
X1304872Y748528D02*
G03*
X1303344Y750057I-1529J0D01*
G01*
X1303344D02*
G03*
X1301815Y748528I0J-1529D01*
G01*
X1300286Y744977D02*
G03*
X1301815Y746506I0J1529D01*
G01*
X1298757D02*
G03*
X1300286Y744977I1529J0D01*
G01*
X1298757Y748528D02*
G03*
X1297228Y750057I-1529J0D01*
G01*
X1297228D02*
G03*
X1295699Y748528I0J-1529D01*
G01*
X1294170Y744977D02*
G03*
X1295699Y746506I0J1529D01*
G01*
X1292641D02*
G03*
X1294170Y744977I1529J0D01*
G01*
X1292641Y748528D02*
G03*
X1291112Y750057I-1529J0D01*
G01*
X1291112D02*
G03*
X1289583Y748528I0J-1529D01*
G01*
X1288055Y744977D02*
G03*
X1289583Y746506I0J1529D01*
G01*
X1286526D02*
G03*
X1288055Y744977I1529J0D01*
G01*
X1286526Y748528D02*
G03*
X1284997Y750057I-1529J0D01*
G01*
X1284997D02*
G03*
X1283468Y748528I0J-1529D01*
G01*
X1281939Y744977D02*
G03*
X1283468Y746506I0J1529D01*
G01*
X1280410D02*
G03*
X1281939Y744977I1529J0D01*
G01*
X1280410Y748528D02*
G03*
X1278881Y750057I-1529J0D01*
G01*
X1278881D02*
G03*
X1277352Y748528I0J-1529D01*
G01*
X1275824Y744977D02*
G03*
X1277352Y746506I0J1529D01*
G01*
X1274295D02*
G03*
X1275824Y744977I1529J0D01*
G01*
X1274295Y748528D02*
G03*
X1272766Y750057I-1529J0D01*
G01*
X1272766D02*
G03*
X1271237Y748528I0J-1529D01*
G01*
X1269708Y744977D02*
G03*
X1271237Y746506I0J1529D01*
G01*
X1268179D02*
G03*
X1269708Y744977I1529J0D01*
G01*
X1268179Y748528D02*
G03*
X1266650Y750057I-1529J0D01*
G01*
X1266650D02*
G03*
X1265121Y748528I0J-1529D01*
G01*
X1263592Y744977D02*
G03*
X1265121Y746506I0J1529D01*
G01*
X1262064D02*
G03*
X1263592Y744977I1529J0D01*
G01*
X1262064Y748528D02*
G03*
X1260535Y750057I-1529J0D01*
G01*
X1260535D02*
G03*
X1259006Y748528I0J-1529D01*
G01*
X1257477Y744977D02*
G03*
X1259006Y746506I0J1529D01*
G01*
X1255948D02*
G03*
X1257477Y744977I1529J0D01*
G01*
X1255948Y748528D02*
G03*
X1254419Y750057I-1529J0D01*
G01*
X1254419D02*
G03*
X1252890Y748528I0J-1529D01*
G01*
X1251361Y744977D02*
G03*
X1252890Y746506I0J1529D01*
G01*
X1249832D02*
G03*
X1251361Y744977I1529J0D01*
G01*
X1249832Y748528D02*
G03*
X1248304Y750057I-1529J0D01*
G01*
X1248303D02*
G03*
X1246775Y748528I0J-1529D01*
G01*
X1245246Y744977D02*
G03*
X1246775Y746506I0J1529D01*
G01*
X1243717D02*
G03*
X1245246Y744977I1529J0D01*
G01*
X1243717Y748528D02*
G03*
X1242188Y750057I-1529J0D01*
G01*
X1242188D02*
G03*
X1240659Y748528I0J-1529D01*
G01*
X1239130Y744977D02*
G03*
X1240659Y746506I0J1529D01*
G01*
X1237601D02*
G03*
X1239130Y744977I1529J0D01*
G01*
X1237601Y748528D02*
G03*
X1236072Y750057I-1529J0D01*
G01*
X1236072D02*
G03*
X1234544Y748528I0J-1529D01*
G01*
X1233015Y744977D02*
G03*
X1234544Y746506I0J1529D01*
G01*
X1231486D02*
G03*
X1233015Y744977I1529J0D01*
G01*
X1231486Y748528D02*
G03*
X1229957Y750057I-1529J0D01*
G01*
X1229957D02*
G03*
X1228428Y748528I0J-1529D01*
G01*
X1226899Y744977D02*
G03*
X1228428Y746506I0J1529D01*
G01*
X1225370D02*
G03*
X1226899Y744977I1529J0D01*
G01*
X1225370Y748528D02*
G03*
X1223841Y750057I-1529J0D01*
G01*
X1223841D02*
G03*
X1222312Y748528I0J-1529D01*
G01*
X1220783Y744977D02*
G03*
X1222312Y746506I0J1529D01*
G01*
X1219255D02*
G03*
X1220783Y744977I1529J0D01*
G01*
X1219255Y748528D02*
G03*
X1217726Y750057I-1529J0D01*
G01*
X1217726D02*
G03*
X1216197Y748528I0J-1529D01*
G01*
X1214668Y744977D02*
G03*
X1216197Y746506I0J1529D01*
G01*
X1213139D02*
G03*
X1214668Y744977I1529J0D01*
G01*
X1213139Y748528D02*
G03*
X1211610Y750057I-1529J0D01*
G01*
X1211610D02*
G03*
X1210081Y748528I0J-1529D01*
G01*
X1208552Y744977D02*
G03*
X1210081Y746506I0J1529D01*
G01*
X1207023D02*
G03*
X1208552Y744977I1529J0D01*
G01*
X1207023Y748528D02*
G03*
X1205495Y750057I-1529J0D01*
G01*
X1205495D02*
G03*
X1203966Y748528I0J-1529D01*
G01*
X1202437Y744977D02*
G03*
X1203966Y746506I0J1529D01*
G01*
X1200908D02*
G03*
X1202437Y744977I1529J0D01*
G01*
X1200908Y748528D02*
G03*
X1199379Y750057I-1529J0D01*
G01*
X1199379D02*
G03*
X1197850Y748528I0J-1529D01*
G01*
X1196321Y744977D02*
G03*
X1197850Y746506I0J1529D01*
G01*
X1194792D02*
G03*
X1196321Y744977I1529J0D01*
G01*
X1194792Y748528D02*
G03*
X1193263Y750057I-1529J0D01*
G01*
X1193263D02*
G03*
X1191734Y748528I0J-1529D01*
G01*
X1190206Y744977D02*
G03*
X1191734Y746506I0J1529D01*
G01*
X1188677D02*
G03*
X1190206Y744977I1529J0D01*
G01*
X1188677Y748528D02*
G03*
X1187148Y750057I-1529J0D01*
G01*
X1187148D02*
G03*
X1185619Y748528I0J-1529D01*
G01*
X1184090Y744977D02*
G03*
X1185619Y746506I0J1529D01*
G01*
X1182561D02*
G03*
X1184090Y744977I1529J0D01*
G01*
X1182561Y748528D02*
G03*
X1181032Y750057I-1529J0D01*
G01*
X1181032D02*
G03*
X1179503Y748528I0J-1529D01*
G01*
X1177716Y744977D02*
G03*
X1179503Y746765I0J1788D01*
G01*
X1176905Y753110D02*
G03*
X1175117Y751322I0J-1788D01*
G01*
X1173588Y749227D02*
G03*
X1175117Y750755I0J1529D01*
G01*
X1172059D02*
G03*
X1173588Y749227I1529J0D01*
G01*
X1172059Y751581D02*
G03*
X1170530Y753110I-1529J0D01*
G01*
X1170530D02*
G03*
X1169001Y751581I0J-1529D01*
G01*
X1167473Y748030D02*
G03*
X1169001Y749559I0J1529D01*
G01*
X1165944D02*
G03*
X1167473Y748030I1529J0D01*
G01*
X1165944Y751581D02*
G03*
X1164415Y753110I-1529J0D01*
G01*
X1164415D02*
G03*
X1162886Y751581I0J-1529D01*
G01*
X1161357Y748030D02*
G03*
X1162886Y749559I0J1529D01*
G01*
X1159828D02*
G03*
X1161357Y748030I1529J0D01*
G01*
X1159828Y751581D02*
G03*
X1158299Y753110I-1529J0D01*
G01*
X1158299D02*
G03*
X1156770Y751581I0J-1529D01*
G01*
X1155242Y748030D02*
G03*
X1156770Y749559I0J1529D01*
G01*
X1153713D02*
G03*
X1155241Y748030I1529J0D01*
G01*
X1153713Y751581D02*
G03*
X1152184Y753110I-1529J0D01*
G01*
X1152184D02*
G03*
X1150655Y751581I0J-1529D01*
G01*
X1149126Y748030D02*
G03*
X1150655Y749559I0J1529D01*
G01*
X1147597D02*
G03*
X1149126Y748030I1529J0D01*
G01*
X1147597Y751581D02*
G03*
X1146068Y753110I-1529J0D01*
G01*
X1146068D02*
G03*
X1144539Y751581I0J-1529D01*
G01*
X1143010Y748030D02*
G03*
X1144539Y749559I0J1529D01*
G01*
X1141481D02*
G03*
X1143010Y748030I1529J0D01*
G01*
X1141481Y751581D02*
G03*
X1139953Y753110I-1529J0D01*
G01*
X1139953D02*
G03*
X1138424Y751581I0J-1529D01*
G01*
X1136895Y748030D02*
G03*
X1138424Y749559I0J1529D01*
G01*
X1135366D02*
G03*
X1136895Y748030I1529J0D01*
G01*
X1135366Y751322D02*
G03*
X1133578Y753110I-1788J0D01*
G01*
X1132225Y757805D02*
G03*
X1134013Y759593I0J1788D01*
G01*
X1135542Y762885D02*
G03*
X1134013Y761357I0J-1529D01*
G01*
X1137070D02*
G03*
X1135542Y762885I-1529J0D01*
G01*
X1137070Y757189D02*
G03*
X1138599Y755660I1529J0D01*
G01*
X1138599D02*
G03*
X1140128Y757189I0J1529D01*
G01*
X1141657Y762885D02*
G03*
X1140128Y761357I0J-1529D01*
G01*
X1143186D02*
G03*
X1141657Y762885I-1529J0D01*
G01*
X1143186Y757189D02*
G03*
X1144715Y755660I1529J0D01*
G01*
X1144715D02*
G03*
X1146244Y757189I0J1529D01*
G01*
X1147773Y762885D02*
G03*
X1146244Y761357I0J-1529D01*
G01*
X1149302D02*
G03*
X1147773Y762885I-1529J0D01*
G01*
X1149302Y757189D02*
G03*
X1150831Y755660I1529J0D01*
G01*
X1150831D02*
G03*
X1152359Y757189I0J1529D01*
G01*
X1153888Y762885D02*
G03*
X1152359Y761357I0J-1529D01*
G01*
X1155417D02*
G03*
X1153888Y762885I-1529J0D01*
G01*
X1155417Y757189D02*
G03*
X1156946Y755660I1529J0D01*
G01*
X1156946D02*
G03*
X1158475Y757189I0J1529D01*
G01*
X1160004Y762885D02*
G03*
X1158475Y761357I0J-1529D01*
G01*
X1161533D02*
G03*
X1160004Y762885I-1529J0D01*
G01*
X1161533Y757189D02*
G03*
X1163062Y755660I1529J0D01*
G01*
X1163062D02*
G03*
X1164591Y757189I0J1529D01*
G01*
X1166119Y762885D02*
G03*
X1164591Y761357I0J-1529D01*
G01*
X1167648D02*
G03*
X1166119Y762885I-1529J0D01*
G01*
X1167648Y757189D02*
G03*
X1169177Y755660I1529J0D01*
G01*
X1169177D02*
G03*
X1170706Y757189I0J1529D01*
G01*
X1172235Y762885D02*
G03*
X1170706Y761357I0J-1529D01*
G01*
X1173764D02*
G03*
X1172235Y762885I-1529J0D01*
G01*
X1173764Y757189D02*
G03*
X1175293Y755660I1529J0D01*
G01*
X1175293D02*
G03*
X1176822Y757189I0J1529D01*
G01*
X1178351Y762885D02*
G03*
X1176822Y761357I0J-1529D01*
G01*
X1179879D02*
G03*
X1178351Y762885I-1529J0D01*
G01*
X1179879Y757189D02*
G03*
X1181408Y755660I1529J0D01*
G01*
X1181408D02*
G03*
X1182937Y757189I0J1529D01*
G01*
X1184466Y762885D02*
G03*
X1182937Y761357I0J-1529D01*
G01*
X1185995D02*
G03*
X1184466Y762885I-1529J0D01*
G01*
X1185995Y757189D02*
G03*
X1187524Y755660I1529J0D01*
G01*
X1187524D02*
G03*
X1189053Y757189I0J1529D01*
G01*
X1190582Y762885D02*
G03*
X1189053Y761357I0J-1529D01*
G01*
X1192111D02*
G03*
X1190582Y762885I-1529J0D01*
G01*
X1192111Y757189D02*
G03*
X1193639Y755660I1529J0D01*
G01*
X1193639D02*
G03*
X1195168Y757189I0J1529D01*
G01*
X1196697Y762885D02*
G03*
X1195168Y761357I0J-1529D01*
G01*
X1198226D02*
G03*
X1196697Y762885I-1529J0D01*
G01*
X1198226Y757189D02*
G03*
X1199755Y755660I1529J0D01*
G01*
X1199755D02*
G03*
X1201284Y757189I0J1529D01*
G01*
X1202813Y762885D02*
G03*
X1201284Y761357I0J-1529D01*
G01*
X1204342D02*
G03*
X1202813Y762885I-1529J0D01*
G01*
X1204342Y757189D02*
G03*
X1205871Y755660I1529J0D01*
G01*
X1205871D02*
G03*
X1207399Y757189I0J1529D01*
G01*
X1208928Y762885D02*
G03*
X1207399Y761357I0J-1529D01*
G01*
X1210457D02*
G03*
X1208928Y762885I-1529J0D01*
G01*
X1210457Y757189D02*
G03*
X1211986Y755660I1529J0D01*
G01*
X1211986D02*
G03*
X1213515Y757189I0J1529D01*
G01*
X1215044Y762885D02*
G03*
X1213515Y761357I0J-1529D01*
G01*
X1216573D02*
G03*
X1215044Y762885I-1529J0D01*
G01*
X1216573Y757189D02*
G03*
X1218102Y755660I1529J0D01*
G01*
X1218102D02*
G03*
X1219631Y757189I0J1529D01*
G01*
X1221159Y762885D02*
G03*
X1219631Y761357I0J-1529D01*
G01*
X1222688D02*
G03*
X1221159Y762885I-1529J0D01*
G01*
X1222688Y759593D02*
G03*
X1224476Y757805I1788J0D01*
G01*
X1300027Y775938D02*
G03*
X1301815Y774151I1788J0D01*
G01*
X1300027Y777702D02*
G03*
X1298498Y779231I-1529J0D01*
G01*
X1298498D02*
G03*
X1296969Y777702I0J-1529D01*
G01*
X1295440Y770741D02*
G03*
X1296969Y772270I0J1529D01*
G01*
X1293911D02*
G03*
X1295440Y770741I1529J0D01*
G01*
X1293911Y777702D02*
G03*
X1292382Y779231I-1529J0D01*
G01*
X1292382D02*
G03*
X1290853Y777702I0J-1529D01*
G01*
X1289325Y770741D02*
G03*
X1290853Y772270I0J1529D01*
G01*
X1287796D02*
G03*
X1289325Y770741I1529J0D01*
G01*
X1287796Y777702D02*
G03*
X1286267Y779231I-1529J0D01*
G01*
X1286267D02*
G03*
X1284738Y777702I0J-1529D01*
G01*
X1283209Y770741D02*
G03*
X1284738Y772270I0J1529D01*
G01*
X1281680D02*
G03*
X1283209Y770741I1529J0D01*
G01*
X1281680Y777702D02*
G03*
X1280151Y779231I-1529J0D01*
G01*
X1280151D02*
G03*
X1278622Y777702I0J-1529D01*
G01*
X1277094Y770741D02*
G03*
X1278622Y772270I0J1529D01*
G01*
X1275565D02*
G03*
X1277094Y770741I1529J0D01*
G01*
X1275565Y777702D02*
G03*
X1274036Y779231I-1529J0D01*
G01*
X1274036D02*
G03*
X1272507Y777702I0J-1529D01*
G01*
X1270978Y770741D02*
G03*
X1272507Y772270I0J1529D01*
G01*
X1269449D02*
G03*
X1270978Y770741I1529J0D01*
G01*
X1269449Y777702D02*
G03*
X1267920Y779231I-1529J0D01*
G01*
X1267920D02*
G03*
X1266391Y777702I0J-1529D01*
G01*
X1264862Y770741D02*
G03*
X1266391Y772270I0J1529D01*
G01*
X1263334D02*
G03*
X1264862Y770741I1529J0D01*
G01*
X1263334Y777702D02*
G03*
X1261805Y779231I-1529J0D01*
G01*
X1261805D02*
G03*
X1260276Y777702I0J-1529D01*
G01*
X1258488Y774151D02*
G03*
X1260276Y775938I0J1788D01*
G01*
X1179994Y794183D02*
G03*
X1181782Y792395I1788J0D01*
G01*
X1179994Y794183D02*
G03*
X1178465Y795712I-1529J0D01*
G01*
X1178465D02*
G03*
X1176936Y794183I0J-1529D01*
G01*
X1175407Y788963D02*
G03*
X1176936Y790492I0J1529D01*
G01*
X1173879D02*
G03*
X1175407Y788963I1529J0D01*
G01*
X1173879Y795946D02*
G03*
X1172350Y797475I-1529J0D01*
G01*
X1172350D02*
G03*
X1170821Y795946I0J-1529D01*
G01*
X1169292Y788506D02*
G03*
X1170821Y790034I0J1529D01*
G01*
X1167763D02*
G03*
X1169292Y788506I1529J0D01*
G01*
X1167763Y795946D02*
G03*
X1166234Y797475I-1529J0D01*
G01*
X1166234D02*
G03*
X1164705Y795946I0J-1529D01*
G01*
X1163176Y788506D02*
G03*
X1164705Y790034I0J1529D01*
G01*
X1161647D02*
G03*
X1163176Y788506I1529J0D01*
G01*
X1161647Y795946D02*
G03*
X1160119Y797475I-1529J0D01*
G01*
X1160118D02*
G03*
X1158590Y795946I0J-1529D01*
G01*
X1157061Y788506D02*
G03*
X1158590Y790034I0J1529D01*
G01*
X1155532D02*
G03*
X1157061Y788506I1529J0D01*
G01*
X1155532Y795946D02*
G03*
X1154003Y797475I-1529J0D01*
G01*
X1154003D02*
G03*
X1152474Y795946I0J-1529D01*
G01*
X1150686Y792395D02*
G03*
X1152474Y794183I0J1788D01*
G01*
X1183428Y814183D02*
G03*
X1185216Y812395I1788J0D01*
G01*
X1183428Y814598D02*
G03*
X1181899Y816127I-1529J0D01*
G01*
X1181899D02*
G03*
X1180370Y814598I0J-1529D01*
G01*
X1178841Y807315D02*
G03*
X1180370Y808844I0J1529D01*
G01*
X1177312D02*
G03*
X1178841Y807315I1529J0D01*
G01*
X1177312Y815946D02*
G03*
X1175783Y817475I-1529J0D01*
G01*
X1175783D02*
G03*
X1174255Y815946I0J-1529D01*
G01*
X1172726Y807315D02*
G03*
X1174255Y808844I0J1529D01*
G01*
X1171197D02*
G03*
X1172726Y807315I1529J0D01*
G01*
X1171197Y815946D02*
G03*
X1169668Y817475I-1529J0D01*
G01*
X1169668D02*
G03*
X1168139Y815946I0J-1529D01*
G01*
X1166610Y807315D02*
G03*
X1168139Y808844I0J1529D01*
G01*
X1165081D02*
G03*
X1166610Y807315I1529J0D01*
G01*
X1165081Y815946D02*
G03*
X1163552Y817475I-1529J0D01*
G01*
X1163552D02*
G03*
X1162023Y815946I0J-1529D01*
G01*
X1160495Y807315D02*
G03*
X1162023Y808844I0J1529D01*
G01*
X1158966D02*
G03*
X1160495Y807315I1529J0D01*
G01*
X1158966Y812953D02*
G03*
X1157437Y814482I-1529J0D01*
G01*
X1157437D02*
G03*
X1155908Y812953I0J-1529D01*
G01*
X1154379Y807315D02*
G03*
X1155908Y808844I0J1529D01*
G01*
X1152850D02*
G03*
X1154379Y807315I1529J0D01*
G01*
X1152850Y811877D02*
G03*
X1151321Y813406I-1529J0D01*
G01*
X1151321D02*
G03*
X1149792Y811877I0J-1529D01*
G01*
X1148263Y807315D02*
G03*
X1149792Y808844I0J1529D01*
G01*
X1146734D02*
G03*
X1148263Y807315I1529J0D01*
G01*
X1146734Y810607D02*
G03*
X1144947Y812395I-1788J0D01*
G01*
X1264330Y829927D02*
G03*
X1266118Y828139I1788J0D01*
G01*
X1264330Y830219D02*
G03*
X1262802Y831748I-1529J0D01*
G01*
X1262802D02*
G03*
X1261273Y830219I0J-1529D01*
G01*
X1259744Y827171D02*
G03*
X1261273Y828700I0J1529D01*
G01*
X1258215D02*
G03*
X1259744Y827171I1529J0D01*
G01*
X1258215Y831690D02*
G03*
X1256686Y833219I-1529J0D01*
G01*
X1256686D02*
G03*
X1255157Y831690I0J-1529D01*
G01*
X1253628Y827171D02*
G03*
X1255157Y828700I0J1529D01*
G01*
X1252099D02*
G03*
X1253628Y827171I1529J0D01*
G01*
X1252099Y831690D02*
G03*
X1250570Y833219I-1529J0D01*
G01*
X1250570D02*
G03*
X1249042Y831690I0J-1529D01*
G01*
X1247513Y827171D02*
G03*
X1249042Y828700I0J1529D01*
G01*
X1245984D02*
G03*
X1247513Y827171I1529J0D01*
G01*
X1245984Y831690D02*
G03*
X1244455Y833219I-1529J0D01*
G01*
X1244455D02*
G03*
X1242926Y831690I0J-1529D01*
G01*
X1241397Y827171D02*
G03*
X1242926Y828700I0J1529D01*
G01*
X1239868D02*
G03*
X1241397Y827171I1529J0D01*
G01*
X1239868Y831690D02*
G03*
X1238339Y833219I-1529J0D01*
G01*
X1238339D02*
G03*
X1236810Y831690I0J-1529D01*
G01*
X1235023Y828139D02*
G03*
X1236810Y829927I0J1788D01*
G01*
X1230192Y836049D02*
G03*
X1228405Y834261I0J-1788D01*
G01*
X1226876Y832649D02*
G03*
X1228405Y834178I0J1529D01*
G01*
X1225347D02*
G03*
X1226876Y832649I1529J0D01*
G01*
X1225347Y839600D02*
G03*
X1223818Y841129I-1529J0D01*
G01*
X1223818D02*
G03*
X1222289Y839600I0J-1529D01*
G01*
X1220760Y830969D02*
G03*
X1222289Y832498I0J1529D01*
G01*
X1219231D02*
G03*
X1220760Y830969I1529J0D01*
G01*
X1219231Y839600D02*
G03*
X1217702Y841129I-1529J0D01*
G01*
X1217702D02*
G03*
X1216174Y839600I0J-1529D01*
G01*
X1214645Y830969D02*
G03*
X1216174Y832498I0J1529D01*
G01*
X1213116D02*
G03*
X1214645Y830969I1529J0D01*
G01*
X1213116Y839600D02*
G03*
X1211587Y841129I-1529J0D01*
G01*
X1211587D02*
G03*
X1210058Y839600I0J-1529D01*
G01*
X1208529Y830969D02*
G03*
X1210058Y832498I0J1529D01*
G01*
X1207000D02*
G03*
X1208529Y830969I1529J0D01*
G01*
X1207000Y839600D02*
G03*
X1205471Y841129I-1529J0D01*
G01*
X1205471D02*
G03*
X1203942Y839600I0J-1529D01*
G01*
X1202155Y836049D02*
G03*
X1203942Y837837I0J1788D01*
G01*
X1203048Y849499D02*
G03*
X1201261Y847711I0J-1788D01*
G01*
X1199732Y844419D02*
G03*
X1201261Y845948I0J1529D01*
G01*
X1198203D02*
G03*
X1199732Y844419I1529J0D01*
G01*
X1198203Y853050D02*
G03*
X1196674Y854579I-1529J0D01*
G01*
X1196674D02*
G03*
X1195145Y853050I0J-1529D01*
G01*
X1193616Y844419D02*
G03*
X1195145Y845948I0J1529D01*
G01*
X1192087D02*
G03*
X1193616Y844419I1529J0D01*
G01*
X1192087Y853050D02*
G03*
X1190558Y854579I-1529J0D01*
G01*
X1190558D02*
G03*
X1189030Y853050I0J-1529D01*
G01*
X1187501Y844419D02*
G03*
X1189030Y845948I0J1529D01*
G01*
X1185972D02*
G03*
X1187501Y844419I1529J0D01*
G01*
X1185972Y853050D02*
G03*
X1184443Y854579I-1529J0D01*
G01*
X1184443D02*
G03*
X1182914Y853050I0J-1529D01*
G01*
X1181385Y844419D02*
G03*
X1182914Y845948I0J1529D01*
G01*
X1179856D02*
G03*
X1181385Y844419I1529J0D01*
G01*
X1179856Y853050D02*
G03*
X1178327Y854579I-1529J0D01*
G01*
X1178327D02*
G03*
X1176798Y853050I0J-1529D01*
G01*
X1175270Y844419D02*
G03*
X1176798Y845948I0J1529D01*
G01*
X1173741D02*
G03*
X1175270Y844419I1529J0D01*
G01*
X1173741Y853050D02*
G03*
X1172212Y854579I-1529J0D01*
G01*
X1172212D02*
G03*
X1170683Y853050I0J-1529D01*
G01*
X1168895Y849499D02*
G03*
X1170683Y851287I0J1788D01*
G01*
X1171059Y866409D02*
G03*
X1172847Y864621I1788J0D01*
G01*
X1171059Y867087D02*
G03*
X1169530Y868616I-1529J0D01*
G01*
X1169530D02*
G03*
X1168001Y867087I0J-1529D01*
G01*
X1166472Y859541D02*
G03*
X1168001Y861070I0J1529D01*
G01*
X1164943D02*
G03*
X1166472Y859541I1529J0D01*
G01*
X1164943Y868172D02*
G03*
X1163415Y869701I-1529J0D01*
G01*
X1163414D02*
G03*
X1161886Y868172I0J-1529D01*
G01*
X1160357Y859541D02*
G03*
X1161886Y861070I0J1529D01*
G01*
X1158828D02*
G03*
X1160357Y859541I1529J0D01*
G01*
X1158828Y868172D02*
G03*
X1157299Y869701I-1529J0D01*
G01*
X1157299D02*
G03*
X1155770Y868172I0J-1529D01*
G01*
X1154241Y859541D02*
G03*
X1155770Y861070I0J1529D01*
G01*
X1152712D02*
G03*
X1154241Y859541I1529J0D01*
G01*
X1152712Y868172D02*
G03*
X1151183Y869701I-1529J0D01*
G01*
X1151183D02*
G03*
X1149654Y868172I0J-1529D01*
G01*
X1148126Y859541D02*
G03*
X1149654Y861070I0J1529D01*
G01*
X1146597D02*
G03*
X1148126Y859541I1529J0D01*
G01*
X1146597Y868172D02*
G03*
X1145068Y869701I-1529J0D01*
G01*
X1145068D02*
G03*
X1143539Y868172I0J-1529D01*
G01*
X1141751Y864621D02*
G03*
X1143539Y866409I0J1788D01*
G01*
X1144174Y895350D02*
G03*
X1142386Y893562I0J-1788D01*
G01*
X1140857Y892033D02*
G03*
X1142386Y893562I0J1529D01*
G01*
X1139328D02*
G03*
X1140857Y892033I1529J0D01*
G01*
X1139328Y897548D02*
G03*
X1137799Y899077I-1529J0D01*
G01*
X1137799D02*
G03*
X1136270Y897548I0J-1529D01*
G01*
X1134483Y895350D02*
G03*
X1136270Y897138I0J1788D01*
G01*
X1265989Y715315D02*
Y715762D01*
X1264460Y713786D02*
X1264460D01*
X1173764Y717550D02*
X1261144D01*
X1267777D02*
X1268671D01*
X1262931Y715315D02*
Y715762D01*
X1041985Y717550D02*
X1173764D01*
X1324532Y760491D02*
X1327370D01*
X1327416Y760445D02*
X1331539D01*
X1331925Y760059D01*
X1327370Y760491D02*
X1327416Y760445D01*
X1079255Y767868D02*
Y770351D01*
X1076464Y773142D02*
X1079255Y770351D01*
X1076464Y773142D02*
Y773689D01*
X1079255Y767868D02*
X1084746Y762377D01*
X1118288D01*
X1357809Y902970D02*
X1388994Y871785D01*
X1390532Y852139D02*
Y861467D01*
X1388994Y863005D02*
X1390532Y861467D01*
X1388994Y863005D02*
Y871785D01*
X1198377Y808990D02*
X1316686D01*
X1297977Y806298D02*
X1317600D01*
X1183506Y794119D02*
X1198377Y808990D01*
X1317600Y806298D02*
X1320313Y809011D01*
X1316686Y808990D02*
X1319745Y812049D01*
X1223470Y849499D02*
X1317195D01*
X1319745Y852049D01*
X1106581Y886460D02*
X1356248D01*
X1092516Y872395D02*
X1106581Y886460D01*
X1356248D02*
X1374068Y868639D01*
X1381916Y748074D02*
Y748939D01*
X1383722Y750745D02*
Y753164D01*
X1385808Y755249D02*
X1388227D01*
X1390532Y757555D01*
X1386365Y758423D02*
X1386752Y758810D01*
X1387384Y751790D02*
X1391870D01*
X1381916Y748939D02*
X1383722Y750745D01*
X1387283Y751689D02*
X1387384Y751790D01*
X1384816Y758423D02*
X1386365D01*
X1379503Y753110D02*
X1384816Y758423D01*
X1390532Y757555D02*
Y762053D01*
X1383722Y753164D02*
X1385808Y755249D01*
X1391870Y751790D02*
X1394460Y754380D01*
X1301815Y757805D02*
X1321847D01*
X1324532Y760491D01*
X1338654Y809859D02*
X1339202D01*
X1333863Y809011D02*
X1336576Y806298D01*
X1340677D01*
X1320313Y809011D02*
X1333863D01*
X1340677Y806298D02*
X1342957Y808578D01*
X1386971D01*
X1336465Y812049D02*
X1338654Y809859D01*
X1103091Y902970D02*
X1357809D01*
X1127667Y849499D02*
X1160495D01*
X1125880Y851287D02*
Y851287D01*
X1124351Y852816D02*
X1124351D01*
X1122822Y851287D02*
Y851287D01*
X1120140Y849499D02*
X1121034D01*
X1160495D02*
X1168001D01*
X1099621D02*
X1120140D01*
X1144659Y836049D02*
X1201261D01*
X1165959Y828139D02*
X1234129D01*
X1211493Y774151D02*
X1239130D01*
X1209705Y772363D02*
Y772363D01*
X1208176Y770834D02*
X1208176D01*
X1206647Y772363D02*
Y776669D01*
X1205119Y778198D02*
X1205119D01*
X1203590Y775938D02*
Y776669D01*
X1200908Y774151D02*
X1201802D01*
X1239130D02*
X1257594D01*
X1105986D02*
X1200908D01*
X1213251Y824621D02*
X1331209D01*
X1280786Y806298D02*
X1297977D01*
X1278998Y804183D02*
Y804510D01*
X1277470Y802654D02*
X1277470D01*
X1275941Y804183D02*
Y804911D01*
X1274412Y806440D02*
X1274412D01*
X1272883Y802747D02*
Y804911D01*
X1271354Y801218D02*
X1271354D01*
X1269825Y802747D02*
Y804911D01*
X1268296Y806440D02*
X1268296D01*
X1266767Y802747D02*
Y804911D01*
X1265238Y801218D02*
X1265238D01*
X1263710Y802747D02*
Y804911D01*
X1262181Y806440D02*
X1262181D01*
X1260652Y802747D02*
Y804911D01*
X1259123Y801218D02*
X1259123D01*
X1257594Y802747D02*
Y804911D01*
X1256065Y806440D02*
X1256065D01*
X1254536Y802747D02*
Y804911D01*
X1253007Y801218D02*
X1253007D01*
X1251478Y802747D02*
Y804911D01*
X1249949Y806440D02*
X1249950D01*
X1248421Y802747D02*
Y804911D01*
X1246892Y801218D02*
X1246892D01*
X1245363Y802747D02*
Y804510D01*
X1239623Y806298D02*
X1243575D01*
X1199291D02*
X1239623D01*
X1268671Y717550D02*
X1369906D01*
X1147561Y728980D02*
X1271729D01*
X1145773Y727192D02*
Y727192D01*
X1142715Y727192D02*
Y732012D01*
X1139657Y725429D02*
Y732012D01*
X1136599Y725429D02*
Y732531D01*
X1133542Y725429D02*
Y732531D01*
X1130484Y725429D02*
Y732531D01*
X1127426Y730768D02*
Y732531D01*
X1124744Y728980D02*
X1125638D01*
X1271729D02*
X1362822D01*
X1107751D02*
X1124744D01*
X1243800Y742427D02*
X1291112D01*
X1242012Y740639D02*
Y740639D01*
X1240483Y739110D02*
X1240483D01*
X1238954Y740639D02*
Y740898D01*
X1237426Y742427D02*
X1237426D01*
X1235897Y739302D02*
Y740898D01*
X1234368Y737773D02*
X1234368D01*
X1232839Y739302D02*
Y740898D01*
X1231310Y742427D02*
X1231310D01*
X1229781Y738876D02*
Y740898D01*
X1228252Y737347D02*
X1228252D01*
X1226723Y738876D02*
Y740898D01*
X1225194Y742427D02*
X1225194D01*
X1223666Y738876D02*
Y740898D01*
X1222137Y737347D02*
X1222137D01*
X1220608Y738876D02*
Y740898D01*
X1219079Y742427D02*
X1219079D01*
X1217550Y738876D02*
Y740898D01*
X1216021Y737347D02*
X1216021D01*
X1214492Y738876D02*
Y740898D01*
X1212963Y742427D02*
X1212963D01*
X1211434Y738876D02*
Y740898D01*
X1209906Y737347D02*
X1209906D01*
X1208377Y738876D02*
Y740898D01*
X1206848Y742427D02*
X1206848D01*
X1205319Y738876D02*
Y740898D01*
X1203790Y737347D02*
X1203790D01*
X1202261Y738876D02*
Y740898D01*
X1200732Y742427D02*
X1200732D01*
X1199203Y738876D02*
Y740898D01*
X1197674Y737347D02*
X1197674D01*
X1196146Y738876D02*
Y740898D01*
X1194617Y742427D02*
X1194617D01*
X1193088Y738876D02*
Y740898D01*
X1191559Y737347D02*
X1191559D01*
X1190030Y738876D02*
Y740898D01*
X1188501Y742427D02*
X1188501D01*
X1186972Y738876D02*
Y740898D01*
X1185443Y737347D02*
X1185443D01*
X1183914Y738876D02*
Y740898D01*
X1182386Y742427D02*
X1182386D01*
X1180857Y738876D02*
Y740898D01*
X1179328Y737347D02*
X1179328D01*
X1177799Y738876D02*
Y740898D01*
X1176270Y742427D02*
X1176270D01*
X1174741Y738876D02*
Y740898D01*
X1173212Y737347D02*
X1173212D01*
X1171683Y738876D02*
Y740898D01*
X1170154Y742427D02*
X1170154D01*
X1168626Y738876D02*
Y740898D01*
X1167097Y737347D02*
X1167097D01*
X1165568Y738876D02*
Y740898D01*
X1164039Y742427D02*
X1164039D01*
X1162510Y738876D02*
Y740898D01*
X1160981Y737347D02*
X1160981D01*
X1159452Y738876D02*
Y740898D01*
X1157923Y742427D02*
X1157923D01*
X1156395Y738876D02*
Y740898D01*
X1154866Y737347D02*
X1154866D01*
X1153337Y738876D02*
Y740898D01*
X1151808Y742427D02*
X1151808D01*
X1150279Y738876D02*
Y740898D01*
X1148750Y737347D02*
X1148750D01*
X1147221Y738876D02*
Y740639D01*
X1141481Y742427D02*
X1145433D01*
X1291112D02*
X1339812D01*
X1055181D02*
X1141481D01*
X1312776Y744977D02*
X1315720D01*
X1310988Y746765D02*
Y747338D01*
X1307930Y746506D02*
Y747338D01*
X1304872Y746506D02*
Y748528D01*
X1301815Y746506D02*
Y748528D01*
X1298757Y746506D02*
Y748528D01*
X1295699Y746506D02*
Y748528D01*
X1292641Y746506D02*
Y748528D01*
X1289583Y746506D02*
Y748528D01*
X1286526Y746506D02*
Y748528D01*
X1283468Y746506D02*
Y748528D01*
X1280410Y746506D02*
Y748528D01*
X1277352Y746506D02*
Y748528D01*
X1274295Y746506D02*
Y748528D01*
X1271237Y746506D02*
Y748528D01*
X1268179Y746506D02*
Y748528D01*
X1265121Y746506D02*
Y748528D01*
X1262064Y746506D02*
Y748528D01*
X1259006Y746506D02*
Y748528D01*
X1255948Y746506D02*
Y748528D01*
X1252890Y746506D02*
Y748528D01*
X1249832Y746506D02*
Y748528D01*
X1246775Y746506D02*
Y748528D01*
X1243717Y746506D02*
Y748528D01*
X1240659Y746506D02*
Y748528D01*
X1237601Y746506D02*
Y748528D01*
X1234544Y746506D02*
Y748528D01*
X1231486Y746506D02*
Y748528D01*
X1228428Y746506D02*
Y748528D01*
X1225370Y746506D02*
Y748528D01*
X1222312Y746506D02*
Y748528D01*
X1219255Y746506D02*
Y748528D01*
X1216197Y746506D02*
Y748528D01*
X1213139Y746506D02*
Y748528D01*
X1210081Y746506D02*
Y748528D01*
X1207023Y746506D02*
Y748528D01*
X1203966Y746506D02*
Y748528D01*
X1200908Y746506D02*
Y748528D01*
X1197850Y746506D02*
Y748528D01*
X1194792Y746506D02*
Y748528D01*
X1191734Y746506D02*
Y748528D01*
X1188677Y746506D02*
Y748528D01*
X1185619Y746506D02*
Y748528D01*
X1182561Y746506D02*
Y748528D01*
X1179503Y746765D02*
Y748528D01*
X1176822Y744977D02*
X1177716D01*
X1315720D02*
X1335476D01*
X1118113D02*
X1176822D01*
X1176905Y753110D02*
X1273258D01*
X1175117Y750755D02*
Y751322D01*
X1173588Y749227D02*
X1173588D01*
X1172059Y750755D02*
Y751581D01*
X1170530Y753110D02*
X1170530D01*
X1169001Y749559D02*
Y751581D01*
X1167473Y748030D02*
X1167473D01*
X1165944Y749559D02*
Y751581D01*
X1164415Y753110D02*
X1164415D01*
X1162886Y749559D02*
Y751581D01*
X1161357Y748030D02*
X1161357D01*
X1159828Y749559D02*
Y751581D01*
X1158299Y753110D02*
X1158299D01*
X1156770Y749559D02*
Y751581D01*
X1155241Y748030D02*
X1155242D01*
X1153713Y749559D02*
Y751581D01*
X1152184Y753110D02*
X1152184D01*
X1150655Y749559D02*
Y751581D01*
X1149126Y748030D02*
X1149126D01*
X1147597Y749559D02*
Y751581D01*
X1146068Y753110D02*
X1146068D01*
X1144539Y749559D02*
Y751581D01*
X1143010Y748030D02*
X1143010D01*
X1141481Y749559D02*
Y751581D01*
X1139953Y753110D02*
X1139953D01*
X1138424Y749559D02*
Y751581D01*
X1136895Y748030D02*
X1136895D01*
X1135366Y749559D02*
Y751322D01*
X1129626Y753110D02*
X1133578D01*
X1273258D02*
X1379503D01*
X1123950D02*
X1129626D01*
X1124744Y757805D02*
X1132225D01*
X1134013Y759593D02*
Y761357D01*
X1135542Y762885D02*
X1135542D01*
X1137070Y757189D02*
Y761357D01*
X1138599Y755660D02*
X1138599D01*
X1140128Y757189D02*
Y761357D01*
X1141657Y762885D02*
X1141657D01*
X1143186Y757189D02*
Y761357D01*
X1144715Y755660D02*
X1144715D01*
X1146244Y757189D02*
Y761357D01*
X1147773Y762885D02*
X1147773D01*
X1149302Y757189D02*
Y761357D01*
X1150831Y755660D02*
X1150831D01*
X1152359Y757189D02*
Y761357D01*
X1153888Y762885D02*
X1153888D01*
X1155417Y757189D02*
Y761357D01*
X1156946Y755660D02*
X1156946D01*
X1158475Y757189D02*
Y761357D01*
X1160004Y762885D02*
X1160004D01*
X1161533Y757189D02*
Y761357D01*
X1163062Y755660D02*
X1163062D01*
X1164591Y757189D02*
Y761357D01*
X1166119Y762885D02*
X1166119D01*
X1167648Y757189D02*
Y761357D01*
X1169177Y755660D02*
X1169177D01*
X1170706Y757189D02*
Y761357D01*
X1172235Y762885D02*
X1172235D01*
X1173764Y757189D02*
Y761357D01*
X1175293Y755660D02*
X1175293D01*
X1176822Y757189D02*
Y761357D01*
X1178351Y762885D02*
X1178351D01*
X1179879Y757189D02*
Y761357D01*
X1181408Y755660D02*
X1181408D01*
X1182937Y757189D02*
Y761357D01*
X1184466Y762885D02*
X1184466D01*
X1185995Y757189D02*
Y761357D01*
X1187524Y755660D02*
X1187524D01*
X1189053Y757189D02*
Y761357D01*
X1190582Y762885D02*
X1190582D01*
X1192111Y757189D02*
Y761357D01*
X1193639Y755660D02*
X1193639D01*
X1195168Y757189D02*
Y761357D01*
X1196697Y762885D02*
X1196697D01*
X1198226Y757189D02*
Y761357D01*
X1199755Y755660D02*
X1199755D01*
X1201284Y757189D02*
Y761357D01*
X1202813Y762885D02*
X1202813D01*
X1204342Y757189D02*
Y761357D01*
X1205871Y755660D02*
X1205871D01*
X1207399Y757189D02*
Y761357D01*
X1208928Y762885D02*
X1208928D01*
X1210457Y757189D02*
Y761357D01*
X1211986Y755660D02*
X1211986D01*
X1213515Y757189D02*
Y761357D01*
X1215044Y762885D02*
X1215044D01*
X1216573Y757189D02*
Y761357D01*
X1218102Y755660D02*
X1218102D01*
X1219631Y757189D02*
Y761357D01*
X1221159Y762885D02*
X1221159D01*
X1222688Y759593D02*
Y761357D01*
X1224476Y757805D02*
X1301815D01*
X1122860D02*
X1124744D01*
X1301815Y774151D02*
X1305484D01*
X1300027Y775938D02*
Y777702D01*
X1298498Y779231D02*
X1298498D01*
X1296969Y772270D02*
Y777702D01*
X1295440Y770741D02*
X1295440D01*
X1293911Y772270D02*
Y777702D01*
X1292382Y779231D02*
X1292382D01*
X1290853Y772270D02*
Y777702D01*
X1289325Y770741D02*
X1289325D01*
X1287796Y772270D02*
Y777702D01*
X1286267Y779231D02*
X1286267D01*
X1284738Y772270D02*
Y777702D01*
X1283209Y770741D02*
X1283209D01*
X1281680Y772270D02*
Y777702D01*
X1280151Y779231D02*
X1280151D01*
X1278622Y772270D02*
Y777702D01*
X1277094Y770741D02*
X1277094D01*
X1275565Y772270D02*
Y777702D01*
X1274036Y779231D02*
X1274036D01*
X1272507Y772270D02*
Y777702D01*
X1270978Y770741D02*
X1270978D01*
X1269449Y772270D02*
Y777702D01*
X1267920Y779231D02*
X1267920D01*
X1266391Y772270D02*
Y777702D01*
X1264862Y770741D02*
X1264862D01*
X1263334Y772270D02*
Y777702D01*
X1261805Y779231D02*
X1261805D01*
X1260276Y775938D02*
Y777702D01*
X1257594Y774151D02*
X1258488D01*
X1305484D02*
X1309568D01*
X1392771Y773420D02*
X1394460Y771731D01*
X1355025Y772779D02*
X1355667Y773420D01*
X1392771D01*
X1327481Y775313D02*
X1330016Y772779D01*
X1355025D01*
X1309568Y774151D02*
X1310730Y775313D01*
X1327481D01*
X1151482Y789845D02*
X1155371Y785956D01*
X1178949D02*
X1184562Y791569D01*
X1155371Y785956D02*
X1178949D01*
X1105525Y773689D02*
X1105986Y774151D01*
X1086077Y773689D02*
X1105525D01*
X1184562Y791569D02*
X1199291Y806298D01*
X1184562Y791569D02*
X1184562D01*
X1319745Y812049D02*
X1336465D01*
X1099563Y789845D02*
X1151482D01*
X1095674Y785956D02*
X1099563Y789845D01*
X1181782Y792395D02*
X1183506Y794119D01*
X1183506D01*
X1118288Y762377D02*
X1122860Y757805D01*
X1075407Y759828D02*
X1117232D01*
X1123950Y753110D01*
X1072853Y762382D02*
X1075407Y759828D01*
X1369906Y717550D02*
X1386971Y734615D01*
X1030163Y729372D02*
X1041985Y717550D01*
X1096854Y739877D02*
X1107751Y728980D01*
X1362822D02*
X1381916Y748074D01*
X1030163Y729372D02*
Y758380D01*
X1035721Y746401D02*
X1036077Y746045D01*
X1035721Y746401D02*
Y750631D01*
X1032713Y753640D02*
X1035721Y750631D01*
X1054125Y739877D02*
X1096854D01*
X1044899Y752710D02*
X1055181Y742427D01*
X1036970Y755152D02*
X1044200Y747922D01*
X1044899Y752710D02*
X1044899D01*
X1038895Y758713D02*
X1044899Y752710D01*
X1044200Y747922D02*
X1046081D01*
X1054125Y739877D01*
X1045978Y762382D02*
X1072853D01*
X1044547Y763813D02*
X1045978Y762382D01*
X1006077Y756133D02*
X1011059Y761115D01*
X1026899D02*
X1029596Y763813D01*
X1066127Y755956D02*
X1107134D01*
X1066077Y756006D02*
X1066127Y755956D01*
X1029596Y763813D02*
X1044547D01*
X1011059Y761115D02*
X1026899D01*
X1034102Y758713D02*
X1038895D01*
X1030163Y758380D02*
X1033046Y761263D01*
X1032713Y753640D02*
Y757323D01*
X1033046Y761263D02*
X1043491D01*
X1032713Y757323D02*
X1034102Y758713D01*
X1331209Y824621D02*
X1331342Y824488D01*
X1386971Y734615D02*
Y744578D01*
X1043491Y761263D02*
X1044922Y759832D01*
X1048729D01*
X1056077Y752484D01*
X1107134Y755956D02*
X1118113Y744977D01*
X1335476D02*
X1340048Y749549D01*
X1394460Y754380D02*
Y771731D01*
X1385496Y764139D02*
X1388446D01*
X1390532Y762053D01*
X1378971Y760578D02*
X1379358Y760965D01*
X1382322D02*
X1385496Y764139D01*
X1379358Y760965D02*
X1382322D01*
X1070756Y785956D02*
X1077195Y792395D01*
X1066077Y785956D02*
X1070756D01*
X1077195Y792395D02*
X1149792D01*
X1179994Y794183D02*
Y794183D01*
X1178465Y795712D02*
X1178465D01*
X1176936Y790492D02*
Y794183D01*
X1175407Y788963D02*
X1175407D01*
X1173879Y790492D02*
Y795946D01*
X1172350Y797475D02*
X1172350D01*
X1170821Y790034D02*
Y795946D01*
X1169292Y788506D02*
X1169292D01*
X1167763Y790034D02*
Y795946D01*
X1166234Y797475D02*
X1166234D01*
X1164705Y790034D02*
Y795946D01*
X1163176Y788506D02*
X1163176D01*
X1161647Y790034D02*
Y795946D01*
X1160118Y797475D02*
X1160119D01*
X1158590Y790034D02*
Y795946D01*
X1157061Y788506D02*
X1157061D01*
X1155532Y790034D02*
Y795946D01*
X1154003Y797475D02*
X1154003D01*
X1152474Y794183D02*
Y795946D01*
X1149792Y792395D02*
X1150686D01*
X1185216Y812395D02*
X1198203D01*
X1183428Y814183D02*
Y814598D01*
X1181899Y816127D02*
X1181899D01*
X1180370Y808844D02*
Y814598D01*
X1178841Y807315D02*
X1178841D01*
X1177312Y808844D02*
Y815946D01*
X1175783Y817475D02*
X1175783D01*
X1174255Y808844D02*
Y815946D01*
X1172726Y807315D02*
X1172726D01*
X1171197Y808844D02*
Y815946D01*
X1169668Y817475D02*
X1169668D01*
X1168139Y808844D02*
Y815946D01*
X1166610Y807315D02*
X1166610D01*
X1165081Y808844D02*
Y815946D01*
X1163552Y817475D02*
X1163552D01*
X1162023Y808844D02*
Y815946D01*
X1160495Y807315D02*
X1160495D01*
X1158966Y808844D02*
Y812953D01*
X1157437Y814482D02*
X1157437D01*
X1155908Y808844D02*
Y812953D01*
X1154379Y807315D02*
X1154379D01*
X1152850Y808844D02*
Y811877D01*
X1151321Y813406D02*
X1151321D01*
X1149792Y808844D02*
Y811877D01*
X1148263Y807315D02*
X1148263D01*
X1146734Y808844D02*
Y810607D01*
X1140995Y812395D02*
X1144947D01*
X1198203D02*
X1201025D01*
X1083869D02*
X1140995D01*
X1266118Y828139D02*
X1312037D01*
X1264330Y829927D02*
Y830219D01*
X1262802Y831748D02*
X1262802D01*
X1261273Y828700D02*
Y830219D01*
X1259744Y827171D02*
X1259744D01*
X1258215Y828700D02*
Y831690D01*
X1256686Y833219D02*
X1256686D01*
X1255157Y828700D02*
Y831690D01*
X1253628Y827171D02*
X1253628D01*
X1252099Y828700D02*
Y831690D01*
X1250570Y833219D02*
X1250570D01*
X1249042Y828700D02*
Y831690D01*
X1247513Y827171D02*
X1247513D01*
X1245984Y828700D02*
Y831690D01*
X1244455Y833219D02*
X1244455D01*
X1242926Y828700D02*
Y831690D01*
X1241397Y827171D02*
X1241397D01*
X1239868Y828700D02*
Y831690D01*
X1238339Y833219D02*
X1238339D01*
X1236810Y829927D02*
Y831690D01*
X1234129Y828139D02*
X1235023D01*
X1312037D02*
X1383410D01*
X1230192Y836049D02*
X1285136D01*
X1228405Y834178D02*
Y834261D01*
X1226876Y832649D02*
X1226876D01*
X1225347Y834178D02*
Y839600D01*
X1223818Y841129D02*
X1223818D01*
X1222289Y832498D02*
Y839600D01*
X1220760Y830969D02*
X1220760D01*
X1219231Y832498D02*
Y839600D01*
X1217702Y841129D02*
X1217702D01*
X1216174Y832498D02*
Y839600D01*
X1214645Y830969D02*
X1214645D01*
X1213116Y832498D02*
Y839600D01*
X1211587Y841129D02*
X1211587D01*
X1210058Y832498D02*
Y839600D01*
X1208529Y830969D02*
X1208529D01*
X1207000Y832498D02*
Y839600D01*
X1205471Y841129D02*
X1205471D01*
X1203942Y837837D02*
Y839600D01*
X1201261Y836049D02*
X1202155D01*
X1285136D02*
X1335781D01*
X1203048Y849499D02*
X1223470D01*
X1201261Y845948D02*
Y847711D01*
X1199732Y844419D02*
X1199732D01*
X1198203Y845948D02*
Y853050D01*
X1196674Y854579D02*
X1196674D01*
X1195145Y845948D02*
Y853050D01*
X1193616Y844419D02*
X1193616D01*
X1192087Y845948D02*
Y853050D01*
X1190558Y854579D02*
X1190558D01*
X1189030Y845948D02*
Y853050D01*
X1187501Y844419D02*
X1187501D01*
X1185972Y845948D02*
Y853050D01*
X1184443Y854579D02*
X1184443D01*
X1182914Y845948D02*
Y853050D01*
X1181385Y844419D02*
X1181385D01*
X1179856Y845948D02*
Y853050D01*
X1178327Y854579D02*
X1178327D01*
X1176798Y845948D02*
Y853050D01*
X1175270Y844419D02*
X1175270D01*
X1173741Y845948D02*
Y853050D01*
X1172212Y854579D02*
X1172212D01*
X1170683Y851287D02*
Y853050D01*
X1168001Y849499D02*
X1168895D01*
X1172847Y864621D02*
X1205960D01*
X1171059Y866409D02*
Y867087D01*
X1169530Y868616D02*
X1169530D01*
X1168001Y861070D02*
Y867087D01*
X1166472Y859541D02*
X1166472D01*
X1164943Y861070D02*
Y868172D01*
X1163414Y869701D02*
X1163415D01*
X1161886Y861070D02*
Y868172D01*
X1160357Y859541D02*
X1160357D01*
X1158828Y861070D02*
Y868172D01*
X1157299Y869701D02*
X1157299D01*
X1155770Y861070D02*
Y868172D01*
X1154241Y859541D02*
X1154241D01*
X1152712Y861070D02*
Y868172D01*
X1151183Y869701D02*
X1151183D01*
X1149654Y861070D02*
Y868172D01*
X1148126Y859541D02*
X1148126D01*
X1146597Y861070D02*
Y868172D01*
X1145068Y869701D02*
X1145068D01*
X1143539Y866409D02*
Y868172D01*
X1140857Y864621D02*
X1141751D01*
X1205960D02*
X1335964D01*
X1104742D02*
X1140857D01*
X1144174Y895350D02*
X1214104D01*
X1142386Y893562D02*
Y893562D01*
X1140857Y892033D02*
X1140857D01*
X1139328Y893562D02*
Y897548D01*
X1137799Y899077D02*
X1137799D01*
X1136270Y897138D02*
Y897548D01*
X1133589Y895350D02*
X1134483D01*
X1214104D02*
X1356360D01*
X1106901D02*
X1133589D01*
X1070934Y825956D02*
X1076811Y820079D01*
X1128689D02*
X1144659Y836049D01*
X1076811Y820079D02*
X1128689D01*
X1086077Y835956D02*
X1099621Y849499D01*
X1066077Y825956D02*
X1070934D01*
X1201025Y812395D02*
X1213251Y824621D01*
X1080664Y815600D02*
X1083869Y812395D01*
X1076077Y815956D02*
X1076433Y815600D01*
X1080664D01*
X1383410Y828139D02*
X1386971Y824578D01*
X1153776Y815956D02*
X1165959Y828139D01*
X1086077Y815956D02*
X1153776D01*
X1335781Y836049D02*
X1339342Y832488D01*
X1335781Y852049D02*
X1339342Y848488D01*
X1319745Y852049D02*
X1335781D01*
X1343023Y871680D02*
X1343543D01*
X1335964Y864621D02*
X1343023Y871680D01*
X1084909Y879823D02*
X1091375D01*
X1106901Y895350D01*
X1375543Y872200D02*
Y876167D01*
X1356360Y895350D02*
X1375543Y876167D01*
X1082270Y867184D02*
X1087480Y872395D01*
X1374910Y868639D02*
X1386971Y856578D01*
X1087480Y872395D02*
X1092516D01*
X1076439Y861353D02*
X1077059D01*
X1082270Y866564D01*
Y867184D01*
X1071339Y851218D02*
Y856254D01*
X1076439Y861353D01*
X1374068Y868639D02*
X1374910D01*
X1066077Y845956D02*
X1071339Y851218D01*
X1086077Y845956D02*
X1104742Y864621D01*
X1071113Y865956D02*
X1079638Y874481D01*
Y874553D02*
X1084909Y879823D01*
X1066077Y865956D02*
X1071113D01*
X1079638Y874481D02*
Y874553D01*
X1076077Y875956D02*
X1103091Y902970D01*
X1386971Y848578D02*
X1390532Y852139D01*
D241*
X1136223Y769979D02*
G03*
X1138011Y768191I1788J0D01*
G01*
X1136223Y770033D02*
G03*
X1133165Y770033I-1529J0D01*
G01*
X1131378Y768191D02*
G03*
X1133165Y769979I0J1788D01*
G01*
X1297977Y768191D02*
G03*
X1296190Y766404I0J-1788D01*
G01*
X1293132Y764640D02*
G03*
X1296190Y764640I1529J0D01*
G01*
X1293132Y766686D02*
G03*
X1290075Y766686I-1529J0D01*
G01*
X1287017Y764640D02*
G03*
X1290075Y764640I1529J0D01*
G01*
X1287017Y766687D02*
G03*
X1283959Y766687I-1529J0D01*
G01*
X1280902Y764640D02*
G03*
X1283959Y764640I1529J0D01*
G01*
X1280902Y766688D02*
G03*
X1277844Y766688I-1529J0D01*
G01*
X1274786Y764640D02*
G03*
X1277844Y764640I1529J0D01*
G01*
X1274786Y766689D02*
G03*
X1271729Y766689I-1529J0D01*
G01*
X1268671Y764640D02*
G03*
X1271729Y764640I1529J0D01*
G01*
X1268671Y766690D02*
G03*
X1265613Y766690I-1529J0D01*
G01*
X1262556Y764640D02*
G03*
X1265613Y764640I1529J0D01*
G01*
X1262556Y767288D02*
G03*
X1259498Y767288I-1529J0D01*
G01*
X1256440Y764640D02*
G03*
X1259498Y764640I1529J0D01*
G01*
X1256440Y770072D02*
G03*
X1253383Y770072I-1529J0D01*
G01*
X1250325Y764640D02*
G03*
X1253383Y764640I1529J0D01*
G01*
X1250325Y770072D02*
G03*
X1247267Y770072I-1529J0D01*
G01*
X1244210Y764640D02*
G03*
X1247267Y764640I1529J0D01*
G01*
X1244210Y770072D02*
G03*
X1241152Y770072I-1529J0D01*
G01*
X1238094Y764640D02*
G03*
X1241152Y764640I1529J0D01*
G01*
X1238094Y770072D02*
G03*
X1235037Y770072I-1529J0D01*
G01*
X1231979Y764640D02*
G03*
X1235037Y764640I1529J0D01*
G01*
X1231979Y770072D02*
G03*
X1228922Y770072I-1529J0D01*
G01*
X1225864Y764640D02*
G03*
X1228922Y764640I1529J0D01*
G01*
X1225864Y770072D02*
G03*
X1222806Y770072I-1529J0D01*
G01*
X1221019Y768191D02*
G03*
X1222806Y769979I0J1788D01*
G01*
X1269047Y790458D02*
G03*
X1270835Y788670I1788J0D01*
G01*
X1269047Y790458D02*
G03*
X1265989Y790458I-1529J0D01*
G01*
X1262932Y785724D02*
G03*
X1265989Y785724I1529J0D01*
G01*
X1262932Y791147D02*
G03*
X1259874Y791147I-1529J0D01*
G01*
X1256816Y785119D02*
G03*
X1259874Y785119I1529J0D01*
G01*
X1256816Y791147D02*
G03*
X1253759Y791147I-1529J0D01*
G01*
X1250701Y785119D02*
G03*
X1253759Y785119I1529J0D01*
G01*
X1250701Y791147D02*
G03*
X1247644Y791147I-1529J0D01*
G01*
X1244586Y785119D02*
G03*
X1247644Y785119I1529J0D01*
G01*
X1244586Y791147D02*
G03*
X1241528Y791147I-1529J0D01*
G01*
X1238471Y785119D02*
G03*
X1241528Y785119I1529J0D01*
G01*
X1238471Y791147D02*
G03*
X1235413Y791147I-1529J0D01*
G01*
X1232355Y785119D02*
G03*
X1235413Y785119I1529J0D01*
G01*
X1232355Y791147D02*
G03*
X1229298Y791147I-1529J0D01*
G01*
X1226240Y785119D02*
G03*
X1229298Y785119I1529J0D01*
G01*
X1226240Y791147D02*
G03*
X1223182Y791147I-1529J0D01*
G01*
X1220125Y785119D02*
G03*
X1223182Y785119I1529J0D01*
G01*
X1220125Y791147D02*
G03*
X1217067Y791147I-1529J0D01*
G01*
X1214009Y785119D02*
G03*
X1217067Y785119I1529J0D01*
G01*
X1214009Y791147D02*
G03*
X1210952Y791147I-1529J0D01*
G01*
X1207894Y785119D02*
G03*
X1210952Y785119I1529J0D01*
G01*
X1207894Y791147D02*
G03*
X1204836Y791147I-1529J0D01*
G01*
X1203049Y788670D02*
G03*
X1204836Y790458I0J1788D01*
G01*
X1353745Y769376D02*
X1356822Y766298D01*
X1324692Y769376D02*
X1353745D01*
X1322345Y767029D02*
X1324692Y769376D01*
X1306641Y767029D02*
X1322345D01*
X1187946Y777250D02*
X1199366Y788670D01*
X1068476Y771918D02*
X1073808Y777250D01*
X1187946D01*
X1128921Y766629D02*
X1130484Y768191D01*
X1085530Y766629D02*
X1128921D01*
X1305481Y768189D02*
X1306641Y767029D01*
X1305481Y768189D02*
X1305484Y768191D01*
X1294717Y788670D02*
X1308049D01*
X1313900Y782818D01*
X1382776Y766298D02*
X1384746Y768269D01*
X1385293D01*
X1356822Y766298D02*
X1382776D01*
X1138011Y768191D02*
X1187946D01*
X1136223Y769979D02*
Y770033D01*
X1133165Y769979D02*
Y770033D01*
X1130484Y768191D02*
X1131378D01*
X1187946D02*
X1220125D01*
X1297977D02*
X1305484D01*
X1296190Y764640D02*
Y766404D01*
X1293132Y764640D02*
Y766686D01*
X1290075Y764640D02*
Y766686D01*
X1287017Y764640D02*
Y766687D01*
X1283959Y764640D02*
Y766687D01*
X1280902Y764640D02*
Y766688D01*
X1277844Y764640D02*
Y766688D01*
X1274786Y764640D02*
Y766689D01*
X1271729Y764640D02*
Y766689D01*
X1268671Y764640D02*
Y766690D01*
X1265613Y764640D02*
Y766690D01*
X1262556Y764640D02*
Y767288D01*
X1259498Y764640D02*
Y767288D01*
X1256440Y764640D02*
Y770072D01*
X1253383Y764640D02*
Y770072D01*
X1250325Y764640D02*
Y770072D01*
X1247267Y764640D02*
Y770072D01*
X1244210Y764640D02*
Y770072D01*
X1241152Y764640D02*
Y770072D01*
X1238094Y764640D02*
Y770072D01*
X1235037Y764640D02*
Y770072D01*
X1231979Y764640D02*
Y770072D01*
X1228922Y764640D02*
Y770072D01*
X1225864Y764640D02*
Y770072D01*
X1222806Y769979D02*
Y770072D01*
X1220125Y768191D02*
X1221019D01*
X1270835Y788670D02*
X1294717D01*
X1269047Y790458D02*
Y790458D01*
X1265989Y785724D02*
Y790458D01*
X1262932Y785724D02*
Y791147D01*
X1259874Y785119D02*
Y791147D01*
X1256816Y785119D02*
Y791147D01*
X1253759Y785119D02*
Y791147D01*
X1250701Y785119D02*
Y791147D01*
X1247644Y785119D02*
Y791147D01*
X1244586Y785119D02*
Y791147D01*
X1241528Y785119D02*
Y791147D01*
X1238471Y785119D02*
Y791147D01*
X1235413Y785119D02*
Y791147D01*
X1232355Y785119D02*
Y791147D01*
X1229298Y785119D02*
Y791147D01*
X1226240Y785119D02*
Y791147D01*
X1223182Y785119D02*
Y791147D01*
X1220125Y785119D02*
Y791147D01*
X1217067Y785119D02*
Y791147D01*
X1214009Y785119D02*
Y791147D01*
X1210952Y785119D02*
Y791147D01*
X1207894Y785119D02*
Y791147D01*
X1204836Y790458D02*
Y791147D01*
X1202155Y788670D02*
X1203049D01*
X1199366D02*
X1202155D01*
X1325012Y782818D02*
X1331342Y776488D01*
X1313900Y782818D02*
X1325012D01*
X1066077Y767114D02*
X1068476Y769514D01*
X1066077Y766567D02*
Y767114D01*
X1068476Y769514D02*
Y771918D01*
D242*
X1335311Y799210D02*
X1336111Y798410D01*
X1327812Y797611D02*
X1328612Y796812D01*
X1179917Y783617D02*
X1195180Y798880D01*
X1336111Y798410D02*
X1337195D01*
X1328612Y796564D02*
Y796812D01*
X1337195Y798410D02*
X1337955Y797650D01*
X1328612Y796564D02*
X1330574Y794602D01*
X1333349Y801301D02*
X1335311Y799339D01*
X1195180Y798880D02*
X1272956D01*
X1337955Y797650D02*
X1376043D01*
X1333349Y794602D02*
X1334521Y795774D01*
X1330574Y801301D02*
X1333349D01*
X1272956Y798880D02*
X1274323Y800247D01*
X1334521Y795774D02*
X1336103D01*
X1274323Y800247D02*
X1329520D01*
X1196271Y796244D02*
X1274048D01*
X1336103Y795774D02*
X1336863Y795014D01*
X1330574Y794602D02*
X1333349D01*
X1274048Y796244D02*
X1275415Y797611D01*
X1336863Y795014D02*
X1375693D01*
X1329520Y800247D02*
X1330574Y801301D01*
X1275415Y797611D02*
X1327812D01*
X1335311Y799210D02*
Y799339D01*
X1181009Y780982D02*
X1196271Y796244D01*
X1154403Y783617D02*
X1179917D01*
X1153311Y780982D02*
X1181009D01*
X1149422Y784871D02*
X1153311Y780982D01*
X1150513Y787507D02*
X1154403Y783617D01*
X1101090Y780050D02*
X1102182D01*
X1101090Y782685D02*
X1101090D01*
X1102182Y780050D02*
X1107003Y784871D01*
X1101090Y782685D02*
X1105911Y787507D01*
X1107003Y784871D02*
X1149422D01*
X1105911Y787507D02*
X1150513D01*
X1346542Y877665D02*
X1360207Y864001D01*
X1106193Y875030D02*
X1345450D01*
X1357571Y862909D01*
X1090043Y862606D02*
X1105102Y877665D01*
X1091134Y859971D02*
X1106193Y875030D01*
X1105102Y877665D02*
X1346542D01*
X1083387Y862606D02*
X1090043D01*
X1084479Y859971D02*
X1091134D01*
X1078960Y855956D02*
X1079760Y856756D01*
X1083195Y855956D02*
X1086077D01*
X1082395Y856756D02*
Y857887D01*
Y856756D02*
X1083195Y855956D01*
X1079760Y856756D02*
Y858978D01*
X1082395Y857887D02*
X1084479Y859971D01*
X1076077Y855956D02*
X1078960D01*
X1079760Y858978D02*
X1083387Y862606D01*
X1374726Y843928D02*
X1379058D01*
X1357571Y861083D02*
X1374726Y843928D01*
X1379058D02*
X1382321Y847191D01*
X1376949Y846563D02*
X1378964Y848578D01*
X1360207Y862175D02*
X1375818Y846563D01*
X1376949D01*
X1360207Y862175D02*
Y864001D01*
X1382321Y847191D02*
Y849966D01*
X1379439Y852848D02*
X1382321Y849966D01*
X1378964Y848578D02*
X1378971D01*
X1357571Y861083D02*
Y862909D01*
X1379439Y852848D02*
Y856111D01*
X1378971Y856578D02*
X1379439Y856111D01*
M02*
