G04*
G04 #@! TF.GenerationSoftware,Altium Limited,Altium Designer,23.4.1 (23)*
G04*
G04 Layer_Physical_Order=10*
G04 Layer_Color=8421504*
%FSLAX44Y44*%
%MOMM*%
G71*
G04*
G04 #@! TF.SameCoordinates,CF21992F-A9CA-4C5A-8A3B-549160C445C6*
G04*
G04*
G04 #@! TF.FilePolarity,Positive*
G04*
G01*
G75*
%ADD10C,0.2540*%
%ADD216C,0.3810*%
%ADD240C,0.1788*%
%ADD241C,0.1788*%
D10*
X855980Y866045D02*
X856075D01*
D216*
X1340042Y765586D02*
D03*
X1332030Y765649D02*
D03*
X1340064Y759502D02*
D03*
X855980Y866045D02*
D03*
X1378971Y784578D02*
D03*
X1379202Y769859D02*
D03*
X1378294Y805017D02*
D03*
X1025424Y764676D02*
D03*
X1016077Y746045D02*
D03*
X1055988Y796270D02*
D03*
X1095674Y795956D02*
D03*
X1076077D02*
D03*
X1331342Y816488D02*
D03*
X1046373Y756271D02*
D03*
X1026245Y755652D02*
D03*
X1378355Y749549D02*
D03*
X1332048D02*
D03*
X1066454Y735579D02*
D03*
X1340965Y776340D02*
D03*
X1088394Y823640D02*
D03*
X1076077Y835956D02*
D03*
X1335543Y871680D02*
D03*
X1331342Y848488D02*
D03*
X1086077Y865956D02*
D03*
Y875956D02*
D03*
X1006077Y776045D02*
D03*
X996077Y746045D02*
D03*
Y766045D02*
D03*
X1378971Y824578D02*
D03*
Y840578D02*
D03*
X1339342Y840488D02*
D03*
D240*
X1234077Y769367D02*
G03*
X1236241Y767203I2164J0D01*
G01*
X1234077Y770119D02*
G03*
X1231913Y772283I-2164J0D01*
G01*
X1231913D02*
G03*
X1229749Y770119I0J-2164D01*
G01*
X1227586Y762123D02*
G03*
X1229749Y764287I0J2164D01*
G01*
X1225422D02*
G03*
X1227586Y762123I2164J0D01*
G01*
X1225422Y770119D02*
G03*
X1223258Y772283I-2164J0D01*
G01*
X1223258D02*
G03*
X1221094Y770119I0J-2164D01*
G01*
X1218930Y762123D02*
G03*
X1221094Y764287I0J2164D01*
G01*
X1216766D02*
G03*
X1218930Y762123I2164J0D01*
G01*
X1216766Y770119D02*
G03*
X1214602Y772283I-2164J0D01*
G01*
X1214602D02*
G03*
X1212438Y770119I0J-2164D01*
G01*
X1210274Y762123D02*
G03*
X1212438Y764287I0J2164D01*
G01*
X1208111D02*
G03*
X1210274Y762123I2164J0D01*
G01*
X1208111Y770119D02*
G03*
X1205947Y772283I-2164J0D01*
G01*
X1205947D02*
G03*
X1203783Y770119I0J-2164D01*
G01*
X1201619Y762123D02*
G03*
X1203783Y764287I0J2164D01*
G01*
X1199455D02*
G03*
X1201619Y762123I2164J0D01*
G01*
X1199455Y770119D02*
G03*
X1197291Y772283I-2164J0D01*
G01*
X1197291D02*
G03*
X1195127Y770119I0J-2164D01*
G01*
X1192963Y762123D02*
G03*
X1195127Y764287I0J2164D01*
G01*
X1190799D02*
G03*
X1192963Y762123I2164J0D01*
G01*
X1190799Y770119D02*
G03*
X1188635Y772283I-2164J0D01*
G01*
X1188635D02*
G03*
X1186472Y770119I0J-2164D01*
G01*
X1185389Y763795D02*
G03*
X1186472Y766407I-2612J2612D01*
G01*
X1196583Y725170D02*
G03*
X1194795Y723382I0J-1788D01*
G01*
X1193266Y721853D02*
G03*
X1194795Y723382I0J1529D01*
G01*
X1191737D02*
G03*
X1193266Y721853I1529J0D01*
G01*
X1191737Y727947D02*
G03*
X1190208Y729476I-1529J0D01*
G01*
X1190208D02*
G03*
X1188679Y727947I0J-1529D01*
G01*
X1186892Y725170D02*
G03*
X1188679Y726958I0J1788D01*
G01*
X1179999Y732790D02*
G03*
X1178211Y731002I0J-1788D01*
G01*
X1176682Y728702D02*
G03*
X1178211Y730231I0J1529D01*
G01*
X1175153D02*
G03*
X1176682Y728702I1529J0D01*
G01*
X1175153Y735061D02*
G03*
X1173624Y736590I-1529J0D01*
G01*
X1173624D02*
G03*
X1172095Y735061I0J-1529D01*
G01*
X1170566Y727720D02*
G03*
X1172095Y729249I0J1529D01*
G01*
X1169038D02*
G03*
X1170566Y727720I1529J0D01*
G01*
X1169038Y735061D02*
G03*
X1167509Y736590I-1529J0D01*
G01*
X1167509D02*
G03*
X1165980Y735061I0J-1529D01*
G01*
X1164451Y727720D02*
G03*
X1165980Y729249I0J1529D01*
G01*
X1162922D02*
G03*
X1164451Y727720I1529J0D01*
G01*
X1162922Y735061D02*
G03*
X1161393Y736590I-1529J0D01*
G01*
X1161393D02*
G03*
X1159864Y735061I0J-1529D01*
G01*
X1158335Y727720D02*
G03*
X1159864Y729249I0J1529D01*
G01*
X1156806D02*
G03*
X1158335Y727720I1529J0D01*
G01*
X1156806Y735061D02*
G03*
X1155278Y736590I-1529J0D01*
G01*
X1155278D02*
G03*
X1153749Y735061I0J-1529D01*
G01*
X1152220Y727720D02*
G03*
X1153749Y729249I0J1529D01*
G01*
X1150691D02*
G03*
X1152220Y727720I1529J0D01*
G01*
X1150691Y735061D02*
G03*
X1149162Y736590I-1529J0D01*
G01*
X1149162D02*
G03*
X1147633Y735061I0J-1529D01*
G01*
X1146104Y727720D02*
G03*
X1147633Y729249I0J1529D01*
G01*
X1144575D02*
G03*
X1146104Y727720I1529J0D01*
G01*
X1144575Y735061D02*
G03*
X1143046Y736590I-1529J0D01*
G01*
X1143046D02*
G03*
X1141518Y735061I0J-1529D01*
G01*
X1139989Y727720D02*
G03*
X1141518Y729249I0J1529D01*
G01*
X1138460D02*
G03*
X1139989Y727720I1529J0D01*
G01*
X1138460Y735061D02*
G03*
X1136931Y736590I-1529J0D01*
G01*
X1136931D02*
G03*
X1135402Y735061I0J-1529D01*
G01*
X1133614Y732790D02*
G03*
X1135402Y734578I0J1788D01*
G01*
X1185998Y740928D02*
G03*
X1187785Y739140I1788J0D01*
G01*
X1185998Y740928D02*
G03*
X1184469Y742457I-1529J0D01*
G01*
X1184469D02*
G03*
X1182940Y740928I0J-1529D01*
G01*
X1181152Y739140D02*
G03*
X1182940Y740928I0J1788D01*
G01*
X1158970Y749895D02*
G03*
X1157182Y748107I0J-1788D01*
G01*
X1155654Y745168D02*
G03*
X1157182Y746697I0J1529D01*
G01*
X1154125D02*
G03*
X1155654Y745168I1529J0D01*
G01*
X1154125Y748366D02*
G03*
X1152596Y749895I-1529J0D01*
G01*
X1152596D02*
G03*
X1151067Y748366I0J-1529D01*
G01*
X1149538Y744815D02*
G03*
X1151067Y746344I0J1529D01*
G01*
X1148009D02*
G03*
X1149538Y744815I1529J0D01*
G01*
X1148009Y748366D02*
G03*
X1146480Y749895I-1529J0D01*
G01*
X1146480D02*
G03*
X1144951Y748366I0J-1529D01*
G01*
X1143422Y744815D02*
G03*
X1144951Y746344I0J1529D01*
G01*
X1141894D02*
G03*
X1143422Y744815I1529J0D01*
G01*
X1141894Y748366D02*
G03*
X1140365Y749895I-1529J0D01*
G01*
X1140365D02*
G03*
X1138836Y748366I0J-1529D01*
G01*
X1137307Y744815D02*
G03*
X1138836Y746344I0J1529D01*
G01*
X1135778D02*
G03*
X1137307Y744815I1529J0D01*
G01*
X1135778Y748366D02*
G03*
X1134249Y749895I-1529J0D01*
G01*
X1134249D02*
G03*
X1132720Y748366I0J-1529D01*
G01*
X1131191Y744815D02*
G03*
X1132720Y746344I0J1529D01*
G01*
X1129662D02*
G03*
X1131191Y744815I1529J0D01*
G01*
X1129662Y748366D02*
G03*
X1128134Y749895I-1529J0D01*
G01*
X1128134D02*
G03*
X1126605Y748366I0J-1529D01*
G01*
X1125076Y744815D02*
G03*
X1126605Y746344I0J1529D01*
G01*
X1123547D02*
G03*
X1125076Y744815I1529J0D01*
G01*
X1123547Y748366D02*
G03*
X1122018Y749895I-1529J0D01*
G01*
X1122018D02*
G03*
X1120489Y748366I0J-1529D01*
G01*
X1118960Y744815D02*
G03*
X1120489Y746344I0J1529D01*
G01*
X1117431D02*
G03*
X1118960Y744815I1529J0D01*
G01*
X1117431Y748366D02*
G03*
X1115902Y749895I-1529J0D01*
G01*
X1115902D02*
G03*
X1114374Y748366I0J-1529D01*
G01*
X1112845Y744815D02*
G03*
X1114374Y746344I0J1529D01*
G01*
X1111316D02*
G03*
X1112845Y744815I1529J0D01*
G01*
X1111316Y748366D02*
G03*
X1109787Y749895I-1529J0D01*
G01*
X1109787D02*
G03*
X1108258Y748366I0J-1529D01*
G01*
X1106729Y744815D02*
G03*
X1108258Y746344I0J1529D01*
G01*
X1105200D02*
G03*
X1106729Y744815I1529J0D01*
G01*
X1105200Y748107D02*
G03*
X1103412Y749895I-1788J0D01*
G01*
X1179552Y781304D02*
G03*
X1181340Y779517I1788J0D01*
G01*
X1179552Y781514D02*
G03*
X1178023Y783042I-1529J0D01*
G01*
X1178023D02*
G03*
X1176494Y781514I0J-1529D01*
G01*
X1174965Y774437D02*
G03*
X1176494Y775966I0J1529D01*
G01*
X1173436D02*
G03*
X1174965Y774437I1529J0D01*
G01*
X1173436Y783068D02*
G03*
X1171907Y784597I-1529J0D01*
G01*
X1171907D02*
G03*
X1170378Y783068I0J-1529D01*
G01*
X1168850Y774437D02*
G03*
X1170378Y775966I0J1529D01*
G01*
X1167321D02*
G03*
X1168850Y774437I1529J0D01*
G01*
X1167321Y783068D02*
G03*
X1165792Y784597I-1529J0D01*
G01*
X1165792D02*
G03*
X1164263Y783068I0J-1529D01*
G01*
X1162734Y774437D02*
G03*
X1164263Y775966I0J1529D01*
G01*
X1161205D02*
G03*
X1162734Y774437I1529J0D01*
G01*
X1161205Y783068D02*
G03*
X1159676Y784597I-1529J0D01*
G01*
X1159676D02*
G03*
X1158147Y783068I0J-1529D01*
G01*
X1156618Y774437D02*
G03*
X1158147Y775966I0J1529D01*
G01*
X1155090D02*
G03*
X1156618Y774437I1529J0D01*
G01*
X1155090Y783068D02*
G03*
X1153561Y784597I-1529J0D01*
G01*
X1153561D02*
G03*
X1152032Y783068I0J-1529D01*
G01*
X1150244Y779517D02*
G03*
X1152032Y781304I0J1788D01*
G01*
X1143992Y789940D02*
G03*
X1142204Y788152I0J-1788D01*
G01*
X1140675Y786623D02*
G03*
X1142204Y788152I0J1529D01*
G01*
X1139146D02*
G03*
X1140675Y786623I1529J0D01*
G01*
X1139146Y790428D02*
G03*
X1137617Y791957I-1529J0D01*
G01*
X1137617D02*
G03*
X1136088Y790428I0J-1529D01*
G01*
X1134560Y784860D02*
G03*
X1136088Y786389I0J1529D01*
G01*
X1133031D02*
G03*
X1134560Y784860I1529J0D01*
G01*
X1133031Y791877D02*
G03*
X1131502Y793406I-1529J0D01*
G01*
X1131502D02*
G03*
X1129973Y791877I0J-1529D01*
G01*
X1128444Y784860D02*
G03*
X1129973Y786389I0J1529D01*
G01*
X1126915D02*
G03*
X1128444Y784860I1529J0D01*
G01*
X1126915Y791877D02*
G03*
X1125386Y793406I-1529J0D01*
G01*
X1125386D02*
G03*
X1123857Y791877I0J-1529D01*
G01*
X1122328Y784860D02*
G03*
X1123857Y786389I0J1529D01*
G01*
X1120800D02*
G03*
X1122328Y784860I1529J0D01*
G01*
X1120800Y791877D02*
G03*
X1119271Y793406I-1529J0D01*
G01*
X1119271D02*
G03*
X1117742Y791877I0J-1529D01*
G01*
X1115954Y789940D02*
G03*
X1117742Y791728I0J1788D01*
G01*
X1227021Y795956D02*
G03*
X1225233Y794168I0J-1788D01*
G01*
X1223704Y790876D02*
G03*
X1225233Y792405I0J1529D01*
G01*
X1222175D02*
G03*
X1223704Y790876I1529J0D01*
G01*
X1222175Y799507D02*
G03*
X1220647Y801036I-1529J0D01*
G01*
X1220647D02*
G03*
X1219118Y799507I0J-1529D01*
G01*
X1217589Y790876D02*
G03*
X1219118Y792405I0J1529D01*
G01*
X1216060D02*
G03*
X1217589Y790876I1529J0D01*
G01*
X1216060Y799507D02*
G03*
X1214531Y801036I-1529J0D01*
G01*
X1214531D02*
G03*
X1213002Y799507I0J-1529D01*
G01*
X1211214Y795956D02*
G03*
X1213002Y797744I0J1788D01*
G01*
X1151525Y804183D02*
G03*
X1153313Y802395I1788J0D01*
G01*
X1151525Y804183D02*
G03*
X1149996Y805712I-1529J0D01*
G01*
X1149996D02*
G03*
X1148467Y804183I0J-1529D01*
G01*
X1146938Y800022D02*
G03*
X1148467Y801551I0J1529D01*
G01*
X1145409D02*
G03*
X1146938Y800022I1529J0D01*
G01*
X1145409Y805946D02*
G03*
X1143880Y807475I-1529J0D01*
G01*
X1143880D02*
G03*
X1142352Y805946I0J-1529D01*
G01*
X1140823Y798506D02*
G03*
X1142352Y800034I0J1529D01*
G01*
X1139294D02*
G03*
X1140823Y798506I1529J0D01*
G01*
X1139294Y805946D02*
G03*
X1137765Y807475I-1529J0D01*
G01*
X1137765D02*
G03*
X1136236Y805946I0J-1529D01*
G01*
X1134707Y798506D02*
G03*
X1136236Y800034I0J1529D01*
G01*
X1133178D02*
G03*
X1134707Y798506I1529J0D01*
G01*
X1133178Y805946D02*
G03*
X1131649Y807475I-1529J0D01*
G01*
X1131649D02*
G03*
X1130120Y805946I0J-1529D01*
G01*
X1128592Y798506D02*
G03*
X1130120Y800034I0J1529D01*
G01*
X1127063D02*
G03*
X1128592Y798506I1529J0D01*
G01*
X1127063Y805946D02*
G03*
X1125534Y807475I-1529J0D01*
G01*
X1125534D02*
G03*
X1124005Y805946I0J-1529D01*
G01*
X1122217Y802395D02*
G03*
X1124005Y804183I0J1788D01*
G01*
X1186362Y825956D02*
G03*
X1184575Y824168I0J-1788D01*
G01*
X1183046Y822192D02*
G03*
X1184575Y823721I0J1529D01*
G01*
X1181517D02*
G03*
X1183046Y822192I1529J0D01*
G01*
X1181517Y825767D02*
G03*
X1179988Y827296I-1529J0D01*
G01*
X1179988D02*
G03*
X1178459Y825767I0J-1529D01*
G01*
X1176930Y820876D02*
G03*
X1178459Y822405I0J1529D01*
G01*
X1175401D02*
G03*
X1176930Y820876I1529J0D01*
G01*
X1175401Y825767D02*
G03*
X1173872Y827296I-1529J0D01*
G01*
X1173872D02*
G03*
X1172343Y825767I0J-1529D01*
G01*
X1170815Y820876D02*
G03*
X1172343Y822405I0J1529D01*
G01*
X1169286D02*
G03*
X1170815Y820876I1529J0D01*
G01*
X1169286Y825767D02*
G03*
X1167757Y827296I-1529J0D01*
G01*
X1167757D02*
G03*
X1166228Y825767I0J-1529D01*
G01*
X1164699Y820876D02*
G03*
X1166228Y822405I0J1529D01*
G01*
X1163170D02*
G03*
X1164699Y820876I1529J0D01*
G01*
X1163170Y824168D02*
G03*
X1161382Y825956I-1788J0D01*
G01*
X1143744Y839470D02*
G03*
X1141956Y837682I0J-1788D01*
G01*
X1140427Y834842D02*
G03*
X1141956Y836371I0J1529D01*
G01*
X1138898D02*
G03*
X1140427Y834842I1529J0D01*
G01*
X1138898Y843021D02*
G03*
X1137370Y844550I-1529J0D01*
G01*
X1137370D02*
G03*
X1135841Y843021I0J-1529D01*
G01*
X1134053Y839470D02*
G03*
X1135841Y841258I0J1788D01*
G01*
X1186362Y875956D02*
G03*
X1184575Y874168I0J-1788D01*
G01*
X1183046Y870876D02*
G03*
X1184575Y872405I0J1529D01*
G01*
X1181517D02*
G03*
X1183046Y870876I1529J0D01*
G01*
X1181517Y879507D02*
G03*
X1179988Y881036I-1529J0D01*
G01*
X1179988D02*
G03*
X1178459Y879507I0J-1529D01*
G01*
X1176930Y870876D02*
G03*
X1178459Y872405I0J1529D01*
G01*
X1175401D02*
G03*
X1176930Y870876I1529J0D01*
G01*
X1175401Y879507D02*
G03*
X1173872Y881036I-1529J0D01*
G01*
X1173872D02*
G03*
X1172343Y879507I0J-1529D01*
G01*
X1170815Y870876D02*
G03*
X1172343Y872405I0J1529D01*
G01*
X1169286D02*
G03*
X1170815Y870876I1529J0D01*
G01*
X1169286Y879507D02*
G03*
X1167757Y881036I-1529J0D01*
G01*
X1167757D02*
G03*
X1166228Y879507I0J-1529D01*
G01*
X1164699Y870876D02*
G03*
X1166228Y872405I0J1529D01*
G01*
X1163170D02*
G03*
X1164699Y870876I1529J0D01*
G01*
X1163170Y879507D02*
G03*
X1161641Y881036I-1529J0D01*
G01*
X1161641D02*
G03*
X1160112Y879507I0J-1529D01*
G01*
X1158325Y875956D02*
G03*
X1160112Y877744I0J1788D01*
G01*
X1148448Y888733D02*
G03*
X1150236Y886945I1788J0D01*
G01*
X1148448Y889547D02*
G03*
X1146919Y891076I-1529J0D01*
G01*
X1146919D02*
G03*
X1145390Y889547I0J-1529D01*
G01*
X1143861Y881865D02*
G03*
X1145390Y883394I0J1529D01*
G01*
X1142332D02*
G03*
X1143861Y881865I1529J0D01*
G01*
X1142332Y890496D02*
G03*
X1140803Y892025I-1529J0D01*
G01*
X1140803D02*
G03*
X1139274Y890496I0J-1529D01*
G01*
X1137746Y881865D02*
G03*
X1139274Y883394I0J1529D01*
G01*
X1136217D02*
G03*
X1137746Y881865I1529J0D01*
G01*
X1136217Y890496D02*
G03*
X1134688Y892025I-1529J0D01*
G01*
X1134688D02*
G03*
X1133159Y890496I0J-1529D01*
G01*
X1131371Y886945D02*
G03*
X1133159Y888733I0J1788D01*
G01*
X1236241Y767203D02*
X1242671D01*
X1234077Y769367D02*
Y770119D01*
X1231913Y772283D02*
X1231913D01*
X1229749Y764287D02*
Y770119D01*
X1227586Y762123D02*
X1227586D01*
X1225422Y764287D02*
Y770119D01*
X1223258Y772283D02*
X1223258D01*
X1221094Y764287D02*
Y770119D01*
X1218930Y762123D02*
X1218930D01*
X1216766Y764287D02*
Y770119D01*
X1214602Y772283D02*
X1214602D01*
X1212438Y764287D02*
Y770119D01*
X1210274Y762123D02*
X1210274D01*
X1208111Y764287D02*
Y770119D01*
X1205947Y772283D02*
X1205947D01*
X1203783Y764287D02*
Y770119D01*
X1201619Y762123D02*
X1201619D01*
X1199455Y764287D02*
Y770119D01*
X1197291Y772283D02*
X1197291D01*
X1195127Y764287D02*
Y770119D01*
X1192963Y762123D02*
X1192963D01*
X1190799Y764287D02*
Y770119D01*
X1188635Y772283D02*
X1188635D01*
X1186472Y766407D02*
Y770119D01*
X1184663Y763068D02*
X1185389Y763795D01*
X1184496Y763068D02*
X1184663D01*
X1242671Y767203D02*
X1273161D01*
X1084055Y763068D02*
X1184496D01*
X1337267Y768908D02*
X1340042Y766134D01*
X1337267Y768908D02*
Y770563D01*
X1334903Y772927D02*
X1337267Y770563D01*
X1340042Y765586D02*
Y766134D01*
X1275302Y765063D02*
X1330733D01*
X1330933Y765262D02*
X1331643D01*
X1330733Y765063D02*
X1330933Y765262D01*
X1331643D02*
X1332030Y765649D01*
X1340064Y759540D02*
X1343679Y763156D01*
Y768246D01*
X1340064Y759502D02*
Y759540D01*
X1076995Y770128D02*
X1084055Y763068D01*
X1054387Y770128D02*
X1076995D01*
X1273161Y767203D02*
X1275302Y765063D01*
X1191260Y779517D02*
X1323277D01*
X1329867Y772927D01*
X1320798Y886945D02*
X1335543Y872200D01*
X1219220Y886945D02*
X1320798D01*
X1335543Y871680D02*
Y872200D01*
X1360054Y765661D02*
X1378971Y784578D01*
X1360054Y764519D02*
Y765661D01*
X1379202Y769325D02*
X1382532Y765994D01*
Y748690D02*
Y765994D01*
X1379202Y769325D02*
Y769859D01*
X1327998Y782985D02*
X1330935Y780049D01*
X1332817D02*
X1337404Y775461D01*
Y774520D02*
Y775461D01*
Y774520D02*
X1343679Y768246D01*
X1327998Y782985D02*
Y784867D01*
X1330935Y780049D02*
X1332817D01*
X1196583Y725170D02*
X1287780D01*
X1194795Y723382D02*
Y723382D01*
X1193266Y721853D02*
X1193266D01*
X1191737Y723382D02*
Y727947D01*
X1190208Y729476D02*
X1190208D01*
X1188679Y726958D02*
Y727947D01*
X1185998Y725170D02*
X1186892D01*
X1287780D02*
X1359012D01*
X1060744D02*
X1185998D01*
X1179999Y732790D02*
X1236469D01*
X1178211Y730231D02*
Y731002D01*
X1176682Y728702D02*
X1176682D01*
X1175153Y730231D02*
Y735061D01*
X1173624Y736590D02*
X1173624D01*
X1172095Y729249D02*
Y735061D01*
X1170566Y727720D02*
X1170566D01*
X1169038Y729249D02*
Y735061D01*
X1167509Y736590D02*
X1167509D01*
X1165980Y729249D02*
Y735061D01*
X1164451Y727720D02*
X1164451D01*
X1162922Y729249D02*
Y735061D01*
X1161393Y736590D02*
X1161393D01*
X1159864Y729249D02*
Y735061D01*
X1158335Y727720D02*
X1158335D01*
X1156806Y729249D02*
Y735061D01*
X1155278Y736590D02*
X1155278D01*
X1153749Y729249D02*
Y735061D01*
X1152220Y727720D02*
X1152220D01*
X1150691Y729249D02*
Y735061D01*
X1149162Y736590D02*
X1149162D01*
X1147633Y729249D02*
Y735061D01*
X1146104Y727720D02*
X1146104D01*
X1144575Y729249D02*
Y735061D01*
X1143046Y736590D02*
X1143046D01*
X1141518Y729249D02*
Y735061D01*
X1139989Y727720D02*
X1139989D01*
X1138460Y729249D02*
Y735061D01*
X1136931Y736590D02*
X1136931D01*
X1135402Y734578D02*
Y735061D01*
X1132720Y732790D02*
X1133614D01*
X1236469D02*
X1359183D01*
X1069790D02*
X1132720D01*
X1187785Y739140D02*
X1224723D01*
X1185998Y740928D02*
Y740928D01*
X1184469Y742457D02*
X1184469D01*
X1182940Y740928D02*
Y740928D01*
X1180258Y739140D02*
X1181152D01*
X1224723D02*
X1227008D01*
X1047749D02*
X1180258D01*
X1158970Y749895D02*
X1183902D01*
X1157182Y746697D02*
Y748107D01*
X1154125Y746697D02*
Y748366D01*
X1151067Y746344D02*
Y748366D01*
X1148009Y746344D02*
Y748366D01*
X1144951Y746344D02*
Y748366D01*
X1141894Y746344D02*
Y748366D01*
X1138836Y746344D02*
Y748366D01*
X1135778Y746344D02*
Y748366D01*
X1132720Y746344D02*
Y748366D01*
X1129662Y746344D02*
Y748366D01*
X1126605Y746344D02*
Y748366D01*
X1123547Y746344D02*
Y748366D01*
X1120489Y746344D02*
Y748366D01*
X1117431Y746344D02*
Y748366D01*
X1114374Y746344D02*
Y748366D01*
X1111316Y746344D02*
Y748366D01*
X1108258Y746344D02*
Y748366D01*
X1105200Y746344D02*
Y748107D01*
X1099461Y749895D02*
X1103412D01*
X1183902D02*
X1188520D01*
X1074695D02*
X1099461D01*
X1227008Y789940D02*
X1322926D01*
X1050708Y766450D02*
X1054387Y770128D01*
X1377945Y805366D02*
X1378294Y805017D01*
X1374129Y813420D02*
X1377945Y809604D01*
X1303652Y795956D02*
X1320623Y812927D01*
X1377945Y805366D02*
Y809604D01*
X1320623Y812927D02*
X1337234D01*
X1337727Y813420D01*
X1374129D01*
X1199623Y802395D02*
X1213849Y816621D01*
X1331209D02*
X1331342Y816488D01*
X1213849Y816621D02*
X1331209D01*
X1291181Y795956D02*
X1303652D01*
X1066454Y735579D02*
X1067001D01*
X1359183Y732790D02*
X1373273Y746880D01*
X1067001Y735579D02*
X1069790Y732790D01*
X1037552Y749606D02*
X1040341Y746816D01*
X1031077Y746009D02*
Y746080D01*
X1034602Y749606D01*
X1037552D01*
X1040341Y743589D02*
Y746816D01*
X1023872Y738250D02*
X1045033D01*
X1227008Y739140D02*
X1232356Y744488D01*
X1046693Y736590D02*
X1049324D01*
X1046089Y740800D02*
X1047749Y739140D01*
X1043131Y740800D02*
X1046089D01*
X1040341Y743589D02*
X1043131Y740800D01*
X1049324Y736590D02*
X1060744Y725170D01*
X1045033Y738250D02*
X1046693Y736590D01*
X1181340Y779517D02*
X1191260D01*
X1179552Y781304D02*
Y781514D01*
X1178023Y783042D02*
X1178023D01*
X1176494Y775966D02*
Y781514D01*
X1174965Y774437D02*
X1174965D01*
X1173436Y775966D02*
Y783068D01*
X1171907Y784597D02*
X1171907D01*
X1170378Y775966D02*
Y783068D01*
X1168850Y774437D02*
X1168850D01*
X1167321Y775966D02*
Y783068D01*
X1165792Y784597D02*
X1165792D01*
X1164263Y775966D02*
Y783068D01*
X1162734Y774437D02*
X1162734D01*
X1161205Y775966D02*
Y783068D01*
X1159676Y784597D02*
X1159676D01*
X1158147Y775966D02*
Y783068D01*
X1156618Y774437D02*
X1156618D01*
X1155090Y775966D02*
Y783068D01*
X1153561Y784597D02*
X1153561D01*
X1152032Y781304D02*
Y783068D01*
X1149350Y779517D02*
X1150244D01*
X1033206D02*
X1149350D01*
X1143992Y789940D02*
X1168400D01*
X1142204Y788152D02*
Y788152D01*
X1140675Y786623D02*
X1140675D01*
X1139146Y788152D02*
Y790428D01*
X1137617Y791957D02*
X1137617D01*
X1136088Y786389D02*
Y790428D01*
X1134560Y784860D02*
X1134560D01*
X1133031Y786389D02*
Y791877D01*
X1131502Y793406D02*
X1131502D01*
X1129973Y786389D02*
Y791877D01*
X1128444Y784860D02*
X1128444D01*
X1126915Y786389D02*
Y791877D01*
X1125386Y793406D02*
X1125386D01*
X1123857Y786389D02*
Y791877D01*
X1122328Y784860D02*
X1122328D01*
X1120800Y786389D02*
Y791877D01*
X1119271Y793406D02*
X1119271D01*
X1117742Y791728D02*
Y791877D01*
X1115060Y789940D02*
X1115954D01*
X1168400D02*
X1214285D01*
X1040024D02*
X1115060D01*
X1073723Y748923D02*
X1074695Y749895D01*
X1052630Y748923D02*
X1073723D01*
X1047025Y749605D02*
X1051947D01*
X1052630Y748923D01*
X1025971Y764676D02*
X1028386Y767091D01*
X1025424Y764676D02*
X1025971D01*
X1028386Y767091D02*
X1030759D01*
X1021863Y768173D02*
X1033206Y779517D01*
X1021863Y760034D02*
Y768173D01*
Y760034D02*
X1026245Y755652D01*
X1030759Y767091D02*
X1034602Y770935D01*
X1013599Y772646D02*
X1022730D01*
X1040024Y789940D01*
X1010587Y775658D02*
X1013599Y772646D01*
X1214285Y789940D02*
X1215899Y788326D01*
X1225394D01*
X1227008Y789940D01*
X1322926D02*
X1327998Y784867D01*
X1016077Y746045D02*
X1023872Y738250D01*
X1095674Y795956D02*
X1210320D01*
X1090638D02*
X1097077Y802395D01*
X1076077Y795956D02*
X1090638D01*
X1006077Y776045D02*
X1006464Y775658D01*
X1010587D01*
X1097077Y802395D02*
X1121323D01*
X1000826Y766045D02*
X1006859Y760012D01*
X996077Y766045D02*
X1000826D01*
X1017038Y760012D02*
X1020904Y756146D01*
Y755957D02*
Y756146D01*
X1006859Y760012D02*
X1017038D01*
X1020904Y755957D02*
X1024770Y752091D01*
X1001111Y746045D02*
X1004672Y749606D01*
X1017552D01*
X1021077Y746080D01*
X1041504Y766662D02*
Y766983D01*
Y766662D02*
X1045455Y762711D01*
X1047257D01*
X1034602Y770935D02*
X1037552D01*
X1041504Y766983D01*
X1047257Y762711D02*
X1050708Y766162D01*
X1021077Y746009D02*
X1024602Y742484D01*
X1027552D01*
X1021077Y746009D02*
Y746080D01*
X1027552Y742484D02*
X1031077Y746009D01*
X1024770Y752091D02*
X1027720D01*
X1031161Y755532D01*
X1050708Y766162D02*
Y766450D01*
X1188520Y749895D02*
X1191113Y752488D01*
X1040981Y755649D02*
X1047025Y749605D01*
X1335806Y745988D02*
X1341523D01*
X1377808Y749549D02*
X1378355D01*
X1375139Y746880D02*
X1377808Y749549D01*
X1359012Y725170D02*
X1382532Y748690D01*
X1341523Y745988D02*
X1360054Y764519D01*
X1334306Y744488D02*
X1335806Y745988D01*
X1327417Y749922D02*
X1331675D01*
X1332048Y749549D01*
X1373273Y746880D02*
X1375139D01*
X1040981Y755649D02*
Y756177D01*
X1191113Y752488D02*
X1320737D01*
X1322409Y750816D01*
X1326523D02*
X1327417Y749922D01*
X1037552Y759606D02*
X1040981Y756177D01*
X1322409Y750816D02*
X1326523D01*
X1232356Y744488D02*
X1334306D01*
X1034602Y759606D02*
X1037552D01*
X1031161Y756164D02*
X1034602Y759606D01*
X1031161Y755532D02*
Y756164D01*
X996077Y746045D02*
X1001111D01*
X1329867Y772927D02*
X1334903D01*
X1227021Y795956D02*
X1291181D01*
X1225233Y792405D02*
Y794168D01*
X1223704Y790876D02*
X1223704D01*
X1222175Y792405D02*
Y799507D01*
X1220647Y801036D02*
X1220647D01*
X1219118Y792405D02*
Y799507D01*
X1217589Y790876D02*
X1217589D01*
X1216060Y792405D02*
Y799507D01*
X1214531Y801036D02*
X1214531D01*
X1213002Y797744D02*
Y799507D01*
X1210320Y795956D02*
X1211214D01*
X1153313Y802395D02*
X1192992D01*
X1151525Y804183D02*
Y804183D01*
X1149996Y805712D02*
X1149996D01*
X1148467Y801551D02*
Y804183D01*
X1146938Y800022D02*
X1146938D01*
X1145409Y801551D02*
Y805946D01*
X1143880Y807475D02*
X1143880D01*
X1142352Y800034D02*
Y805946D01*
X1140823Y798506D02*
X1140823D01*
X1139294Y800034D02*
Y805946D01*
X1137765Y807475D02*
X1137765D01*
X1136236Y800034D02*
Y805946D01*
X1134707Y798506D02*
X1134707D01*
X1133178Y800034D02*
Y805946D01*
X1131649Y807475D02*
X1131649D01*
X1130120Y800034D02*
Y805946D01*
X1128592Y798506D02*
X1128592D01*
X1127063Y800034D02*
Y805946D01*
X1125534Y807475D02*
X1125534D01*
X1124005Y804183D02*
Y805946D01*
X1121323Y802395D02*
X1122217D01*
X1192992D02*
X1199623D01*
X1186362Y825956D02*
X1204726D01*
X1184575Y823721D02*
Y824168D01*
X1183046Y822192D02*
X1183046D01*
X1181517Y823721D02*
Y825767D01*
X1179988Y827296D02*
X1179988D01*
X1178459Y822405D02*
Y825767D01*
X1176930Y820876D02*
X1176930D01*
X1175401Y822405D02*
Y825767D01*
X1173872Y827296D02*
X1173872D01*
X1172343Y822405D02*
Y825767D01*
X1170815Y820876D02*
X1170815D01*
X1169286Y822405D02*
Y825767D01*
X1167757Y827296D02*
X1167757D01*
X1166228Y822405D02*
Y825767D01*
X1164699Y820876D02*
X1164699D01*
X1163170Y822405D02*
Y824168D01*
X1157430Y825956D02*
X1161382D01*
X1204726D02*
X1212674D01*
X1091257D02*
X1157430D01*
X1143744Y839470D02*
X1230630D01*
X1141956Y836371D02*
Y837682D01*
X1140427Y834842D02*
X1140427D01*
X1138898Y836371D02*
Y843021D01*
X1137370Y844550D02*
X1137370D01*
X1135841Y841258D02*
Y843021D01*
X1133159Y839470D02*
X1134053D01*
X1230630D02*
X1315166D01*
X1118870D02*
X1133159D01*
X1186362Y875956D02*
X1238291D01*
X1184575Y872405D02*
Y874168D01*
X1183046Y870876D02*
X1183046D01*
X1181517Y872405D02*
Y879507D01*
X1179988Y881036D02*
X1179988D01*
X1178459Y872405D02*
Y879507D01*
X1176930Y870876D02*
X1176930D01*
X1175401Y872405D02*
Y879507D01*
X1173872Y881036D02*
X1173872D01*
X1172343Y872405D02*
Y879507D01*
X1170815Y870876D02*
X1170815D01*
X1169286Y872405D02*
Y879507D01*
X1167757Y881036D02*
X1167757D01*
X1166228Y872405D02*
Y879507D01*
X1164699Y870876D02*
X1164699D01*
X1163170Y872405D02*
Y879507D01*
X1161641Y881036D02*
X1161641D01*
X1160112Y877744D02*
Y879507D01*
X1157430Y875956D02*
X1158325D01*
X1238291D02*
X1266534D01*
X1086077D02*
X1157430D01*
X1150236Y886945D02*
X1219220D01*
X1148448Y888733D02*
Y889547D01*
X1146919Y891076D02*
X1146919D01*
X1145390Y883394D02*
Y889547D01*
X1143861Y881865D02*
X1143861D01*
X1142332Y883394D02*
Y890496D01*
X1140803Y892025D02*
X1140803D01*
X1139274Y883394D02*
Y890496D01*
X1137746Y881865D02*
X1137746D01*
X1136217Y883394D02*
Y890496D01*
X1134688Y892025D02*
X1134688D01*
X1133159Y888733D02*
Y890496D01*
X1130477Y886945D02*
X1131371D01*
X1087066D02*
X1130477D01*
X1088394Y823640D02*
X1088941D01*
X1091257Y825956D01*
X1079638Y832395D02*
X1111795D01*
X1331209Y848621D02*
X1331342Y848488D01*
X1076077Y835956D02*
X1079638Y832395D01*
X1111795D02*
X1118870Y839470D01*
X1315166D02*
X1319745Y844049D01*
X1293869Y848621D02*
X1331209D01*
X1266534Y875956D02*
X1293869Y848621D01*
X1212674Y825956D02*
X1214767Y828049D01*
X1375500D01*
X1378971Y824578D01*
X1319745Y844049D02*
X1375500D01*
X1378971Y840578D01*
X1082516Y882395D02*
X1087066Y886945D01*
X1082516Y873747D02*
Y882395D01*
Y873747D02*
X1085721Y870543D01*
Y866312D02*
Y870543D01*
Y866312D02*
X1086077Y865956D01*
D241*
X1165200Y754232D02*
G03*
X1166988Y752445I1788J0D01*
G01*
X1165200Y754233D02*
G03*
X1162142Y754233I-1529J0D01*
G01*
X1159085Y753974D02*
G03*
X1162142Y753974I1529J0D01*
G01*
X1159085Y755646D02*
G03*
X1156027Y755646I-1529J0D01*
G01*
X1152970Y753974D02*
G03*
X1156027Y753974I1529J0D01*
G01*
X1152970Y755996D02*
G03*
X1149912Y755996I-1529J0D01*
G01*
X1146854Y753974D02*
G03*
X1149912Y753974I1529J0D01*
G01*
X1146854Y755996D02*
G03*
X1143797Y755996I-1529J0D01*
G01*
X1140739Y753974D02*
G03*
X1143797Y753974I1529J0D01*
G01*
X1140739Y755996D02*
G03*
X1137681Y755996I-1529J0D01*
G01*
X1134624Y753974D02*
G03*
X1137681Y753974I1529J0D01*
G01*
X1134624Y755996D02*
G03*
X1131566Y755996I-1529J0D01*
G01*
X1128508Y753974D02*
G03*
X1131566Y753974I1529J0D01*
G01*
X1128508Y755996D02*
G03*
X1125451Y755996I-1529J0D01*
G01*
X1122393Y753974D02*
G03*
X1125451Y753974I1529J0D01*
G01*
X1122393Y755996D02*
G03*
X1119335Y755996I-1529J0D01*
G01*
X1116278Y753974D02*
G03*
X1119335Y753974I1529J0D01*
G01*
X1116278Y755996D02*
G03*
X1113220Y755996I-1529J0D01*
G01*
X1110162Y753974D02*
G03*
X1113220Y753974I1529J0D01*
G01*
X1110162Y755996D02*
G03*
X1107105Y755996I-1529J0D01*
G01*
X1104047Y753974D02*
G03*
X1107105Y753974I1529J0D01*
G01*
X1104047Y755996D02*
G03*
X1100990Y755996I-1529J0D01*
G01*
X1097932Y753974D02*
G03*
X1100990Y753974I1529J0D01*
G01*
X1097932Y755996D02*
G03*
X1094874Y755996I-1529J0D01*
G01*
X1091816Y753974D02*
G03*
X1094874Y753974I1529J0D01*
G01*
X1091816Y755996D02*
G03*
X1088759Y755996I-1529J0D01*
G01*
X1086971Y752445D02*
G03*
X1088759Y754232I0J1788D01*
G01*
X1187464Y752445D02*
X1190842Y755823D01*
X1342842D01*
X1346228Y759209D01*
Y771076D01*
X1166988Y752445D02*
X1181340D01*
X1165200Y754232D02*
Y754233D01*
X1162142Y753974D02*
Y754233D01*
X1159085Y753974D02*
Y755646D01*
X1156027Y753974D02*
Y755646D01*
X1152970Y753974D02*
Y755996D01*
X1149912Y753974D02*
Y755996D01*
X1146854Y753974D02*
Y755996D01*
X1143797Y753974D02*
Y755996D01*
X1140739Y753974D02*
Y755996D01*
X1137681Y753974D02*
Y755996D01*
X1134624Y753974D02*
Y755996D01*
X1131566Y753974D02*
Y755996D01*
X1128508Y753974D02*
Y755996D01*
X1125451Y753974D02*
Y755996D01*
X1122393Y753974D02*
Y755996D01*
X1119335Y753974D02*
Y755996D01*
X1116278Y753974D02*
Y755996D01*
X1113220Y753974D02*
Y755996D01*
X1110162Y753974D02*
Y755996D01*
X1107105Y753974D02*
Y755996D01*
X1104047Y753974D02*
Y755996D01*
X1100990Y753974D02*
Y755996D01*
X1097932Y753974D02*
Y755996D01*
X1094874Y753974D02*
Y755996D01*
X1091816Y753974D02*
Y755996D01*
X1088759Y754232D02*
Y755996D01*
X1086077Y752445D02*
X1086971D01*
X1181340D02*
X1187464D01*
X1064602D02*
X1086077D01*
X1340965Y776340D02*
X1346228Y771076D01*
X1061077Y755970D02*
Y755992D01*
X1057552Y759517D02*
X1061077Y755992D01*
X1053859Y759517D02*
X1057552D01*
X1061077Y755970D02*
X1064602Y752445D01*
X1055988Y796270D02*
X1069638Y809920D01*
X1046373Y756271D02*
X1046720Y756617D01*
X1050960D02*
X1053859Y759517D01*
X1046720Y756617D02*
X1050960D01*
X1212958Y829845D02*
X1219161Y836049D01*
X1334903D02*
X1339342Y840488D01*
X1069638Y809920D02*
Y814552D01*
X1084931Y829845D02*
X1212958D01*
X1219161Y836049D02*
X1334903D01*
X1069638Y814552D02*
X1084931Y829845D01*
M02*
