G04*
G04 #@! TF.GenerationSoftware,Altium Limited,Altium Designer,23.4.1 (23)*
G04*
G04 Layer_Physical_Order=12*
G04 Layer_Color=16711680*
%FSLAX44Y44*%
%MOMM*%
G71*
G04*
G04 #@! TF.SameCoordinates,CF21992F-A9CA-4C5A-8A3B-549160C445C6*
G04*
G04*
G04 #@! TF.FilePolarity,Positive*
G04*
G01*
G75*
%ADD10C,0.2540*%
%ADD17C,0.5080*%
%ADD18C,0.3810*%
G04:AMPARAMS|DCode=40|XSize=0.508mm|YSize=0.508mm|CornerRadius=0.1524mm|HoleSize=0mm|Usage=FLASHONLY|Rotation=180.000|XOffset=0mm|YOffset=0mm|HoleType=Round|Shape=RoundedRectangle|*
%AMROUNDEDRECTD40*
21,1,0.5080,0.2032,0,0,180.0*
21,1,0.2032,0.5080,0,0,180.0*
1,1,0.3048,-0.1016,0.1016*
1,1,0.3048,0.1016,0.1016*
1,1,0.3048,0.1016,-0.1016*
1,1,0.3048,-0.1016,-0.1016*
%
%ADD40ROUNDEDRECTD40*%
G04:AMPARAMS|DCode=41|XSize=0.508mm|YSize=0.508mm|CornerRadius=0.1524mm|HoleSize=0mm|Usage=FLASHONLY|Rotation=270.000|XOffset=0mm|YOffset=0mm|HoleType=Round|Shape=RoundedRectangle|*
%AMROUNDEDRECTD41*
21,1,0.5080,0.2032,0,0,270.0*
21,1,0.2032,0.5080,0,0,270.0*
1,1,0.3048,-0.1016,-0.1016*
1,1,0.3048,-0.1016,0.1016*
1,1,0.3048,0.1016,0.1016*
1,1,0.3048,0.1016,-0.1016*
%
%ADD41ROUNDEDRECTD41*%
G04:AMPARAMS|DCode=43|XSize=0.889mm|YSize=0.7874mm|CornerRadius=0.1535mm|HoleSize=0mm|Usage=FLASHONLY|Rotation=0.000|XOffset=0mm|YOffset=0mm|HoleType=Round|Shape=RoundedRectangle|*
%AMROUNDEDRECTD43*
21,1,0.8890,0.4803,0,0,0.0*
21,1,0.5819,0.7874,0,0,0.0*
1,1,0.3071,0.2910,-0.2402*
1,1,0.3071,-0.2910,-0.2402*
1,1,0.3071,-0.2910,0.2402*
1,1,0.3071,0.2910,0.2402*
%
%ADD43ROUNDEDRECTD43*%
G04:AMPARAMS|DCode=45|XSize=4.4mm|YSize=2.5mm|CornerRadius=0.625mm|HoleSize=0mm|Usage=FLASHONLY|Rotation=0.000|XOffset=0mm|YOffset=0mm|HoleType=Round|Shape=RoundedRectangle|*
%AMROUNDEDRECTD45*
21,1,4.4000,1.2500,0,0,0.0*
21,1,3.1500,2.5000,0,0,0.0*
1,1,1.2500,1.5750,-0.6250*
1,1,1.2500,-1.5750,-0.6250*
1,1,1.2500,-1.5750,0.6250*
1,1,1.2500,1.5750,0.6250*
%
%ADD45ROUNDEDRECTD45*%
G04:AMPARAMS|DCode=46|XSize=0.889mm|YSize=0.8636mm|CornerRadius=0.1511mm|HoleSize=0mm|Usage=FLASHONLY|Rotation=90.000|XOffset=0mm|YOffset=0mm|HoleType=Round|Shape=RoundedRectangle|*
%AMROUNDEDRECTD46*
21,1,0.8890,0.5613,0,0,90.0*
21,1,0.5867,0.8636,0,0,90.0*
1,1,0.3023,0.2807,0.2934*
1,1,0.3023,0.2807,-0.2934*
1,1,0.3023,-0.2807,-0.2934*
1,1,0.3023,-0.2807,0.2934*
%
%ADD46ROUNDEDRECTD46*%
G04:AMPARAMS|DCode=50|XSize=0.889mm|YSize=0.8636mm|CornerRadius=0.1511mm|HoleSize=0mm|Usage=FLASHONLY|Rotation=180.000|XOffset=0mm|YOffset=0mm|HoleType=Round|Shape=RoundedRectangle|*
%AMROUNDEDRECTD50*
21,1,0.8890,0.5613,0,0,180.0*
21,1,0.5867,0.8636,0,0,180.0*
1,1,0.3023,-0.2934,0.2807*
1,1,0.3023,0.2934,0.2807*
1,1,0.3023,0.2934,-0.2807*
1,1,0.3023,-0.2934,-0.2807*
%
%ADD50ROUNDEDRECTD50*%
G04:AMPARAMS|DCode=52|XSize=0.889mm|YSize=0.7874mm|CornerRadius=0.1535mm|HoleSize=0mm|Usage=FLASHONLY|Rotation=270.000|XOffset=0mm|YOffset=0mm|HoleType=Round|Shape=RoundedRectangle|*
%AMROUNDEDRECTD52*
21,1,0.8890,0.4803,0,0,270.0*
21,1,0.5819,0.7874,0,0,270.0*
1,1,0.3071,-0.2402,-0.2910*
1,1,0.3071,-0.2402,0.2910*
1,1,0.3071,0.2402,0.2910*
1,1,0.3071,0.2402,-0.2910*
%
%ADD52ROUNDEDRECTD52*%
G04:AMPARAMS|DCode=62|XSize=0.889mm|YSize=0.8636mm|CornerRadius=0.2289mm|HoleSize=0mm|Usage=FLASHONLY|Rotation=0.000|XOffset=0mm|YOffset=0mm|HoleType=Round|Shape=RoundedRectangle|*
%AMROUNDEDRECTD62*
21,1,0.8890,0.4059,0,0,0.0*
21,1,0.4313,0.8636,0,0,0.0*
1,1,0.4577,0.2157,-0.2030*
1,1,0.4577,-0.2157,-0.2030*
1,1,0.4577,-0.2157,0.2030*
1,1,0.4577,0.2157,0.2030*
%
%ADD62ROUNDEDRECTD62*%
%ADD75C,2.1590*%
%ADD173C,0.1016*%
%ADD174C,1.0000*%
%ADD195C,0.2032*%
%ADD196C,0.1658*%
%ADD198C,1.2700*%
%ADD199C,1.0160*%
%ADD203C,6.2000*%
%ADD204C,3.8100*%
G04:AMPARAMS|DCode=205|XSize=1.524mm|YSize=1.524mm|CornerRadius=0mm|HoleSize=0mm|Usage=FLASHONLY|Rotation=270.000|XOffset=0mm|YOffset=0mm|HoleType=Round|Shape=Octagon|*
%AMOCTAGOND205*
4,1,8,-0.3810,-0.7620,0.3810,-0.7620,0.7620,-0.3810,0.7620,0.3810,0.3810,0.7620,-0.3810,0.7620,-0.7620,0.3810,-0.7620,-0.3810,-0.3810,-0.7620,0.0*
%
%ADD205OCTAGOND205*%

%ADD206C,1.5240*%
%ADD207C,2.2000*%
%ADD208C,0.6000*%
%ADD209C,3.0000*%
%ADD210R,3.0000X3.0000*%
%ADD211R,2.1590X2.1590*%
G04:AMPARAMS|DCode=212|XSize=1.25mm|YSize=0.95mm|CornerRadius=0.475mm|HoleSize=0mm|Usage=FLASHONLY|Rotation=270.000|XOffset=0mm|YOffset=0mm|HoleType=Round|Shape=RoundedRectangle|*
%AMROUNDEDRECTD212*
21,1,1.2500,0.0000,0,0,270.0*
21,1,0.3000,0.9500,0,0,270.0*
1,1,0.9500,0.0000,-0.1500*
1,1,0.9500,0.0000,0.1500*
1,1,0.9500,0.0000,0.1500*
1,1,0.9500,0.0000,-0.1500*
%
%ADD212ROUNDEDRECTD212*%
G04:AMPARAMS|DCode=213|XSize=0.95mm|YSize=1.55mm|CornerRadius=0.475mm|HoleSize=0mm|Usage=FLASHONLY|Rotation=270.000|XOffset=0mm|YOffset=0mm|HoleType=Round|Shape=RoundedRectangle|*
%AMROUNDEDRECTD213*
21,1,0.9500,0.6000,0,0,270.0*
21,1,0.0000,1.5500,0,0,270.0*
1,1,0.9500,-0.3000,0.0000*
1,1,0.9500,-0.3000,0.0000*
1,1,0.9500,0.3000,0.0000*
1,1,0.9500,0.3000,0.0000*
%
%ADD213ROUNDEDRECTD213*%
%ADD214C,1.9050*%
%ADD215R,1.9050X1.9050*%
%ADD216C,0.3810*%
%ADD217C,0.5000*%
%ADD218C,0.3302*%
%ADD219C,0.5588*%
G04:AMPARAMS|DCode=248|XSize=0.65mm|YSize=0.85mm|CornerRadius=0.1625mm|HoleSize=0mm|Usage=FLASHONLY|Rotation=90.000|XOffset=0mm|YOffset=0mm|HoleType=Round|Shape=RoundedRectangle|*
%AMROUNDEDRECTD248*
21,1,0.6500,0.5250,0,0,90.0*
21,1,0.3250,0.8500,0,0,90.0*
1,1,0.3250,0.2625,0.1625*
1,1,0.3250,0.2625,-0.1625*
1,1,0.3250,-0.2625,-0.1625*
1,1,0.3250,-0.2625,0.1625*
%
%ADD248ROUNDEDRECTD248*%
G04:AMPARAMS|DCode=249|XSize=2.26mm|YSize=2.16mm|CornerRadius=0.54mm|HoleSize=0mm|Usage=FLASHONLY|Rotation=270.000|XOffset=0mm|YOffset=0mm|HoleType=Round|Shape=RoundedRectangle|*
%AMROUNDEDRECTD249*
21,1,2.2600,1.0800,0,0,270.0*
21,1,1.1800,2.1600,0,0,270.0*
1,1,1.0800,-0.5400,-0.5900*
1,1,1.0800,-0.5400,0.5900*
1,1,1.0800,0.5400,0.5900*
1,1,1.0800,0.5400,-0.5900*
%
%ADD249ROUNDEDRECTD249*%
G04:AMPARAMS|DCode=250|XSize=1.397mm|YSize=1.0922mm|CornerRadius=0.2021mm|HoleSize=0mm|Usage=FLASHONLY|Rotation=90.000|XOffset=0mm|YOffset=0mm|HoleType=Round|Shape=RoundedRectangle|*
%AMROUNDEDRECTD250*
21,1,1.3970,0.6881,0,0,90.0*
21,1,0.9929,1.0922,0,0,90.0*
1,1,0.4041,0.3440,0.4964*
1,1,0.4041,0.3440,-0.4964*
1,1,0.4041,-0.3440,-0.4964*
1,1,0.4041,-0.3440,0.4964*
%
%ADD250ROUNDEDRECTD250*%
D10*
X500284Y1491075D02*
Y1569816D01*
X464820Y1605280D02*
X500284Y1569816D01*
X315849Y1550160D02*
Y1551615D01*
Y1550160D02*
X327248Y1538761D01*
X327317D01*
X313309Y1615115D02*
Y1616232D01*
X317443Y1620366D01*
X318561D01*
X320707Y1622513D01*
X327660D01*
X296163Y1615243D02*
X296291Y1615115D01*
X287994Y1615243D02*
X296163D01*
X346673Y1524015D02*
X356188Y1533530D01*
X358270D01*
X342770Y1550030D02*
X343578D01*
X345531Y1548077D01*
Y1547269D02*
Y1548077D01*
Y1547269D02*
X346763Y1546037D01*
Y1544152D02*
Y1546037D01*
Y1544152D02*
X347006Y1543909D01*
X332867Y1616933D02*
X335140Y1619206D01*
X332867Y1607820D02*
Y1616933D01*
X347248Y1602740D02*
X348996Y1604488D01*
Y1608963D01*
X370840Y1623187D02*
X373253Y1625600D01*
X370840Y1616425D02*
Y1623187D01*
X482600Y1676400D02*
Y1691640D01*
X469900Y1663700D02*
X482600Y1676400D01*
X358461Y1663700D02*
X469900D01*
X355921Y1598384D02*
Y1619040D01*
Y1661160D02*
X358461Y1663700D01*
X355921Y1619040D02*
Y1661160D01*
X855969Y826045D02*
X856064D01*
X851434Y830580D02*
X855969Y826045D01*
X855984Y815890D02*
Y816011D01*
X850838Y821157D02*
X855984Y816011D01*
X855950Y836064D02*
X855980D01*
X846194Y845820D02*
X855950Y836064D01*
X721360Y845820D02*
X846194D01*
X841274Y840740D02*
X845881Y836133D01*
X711200Y840740D02*
X841274D01*
X619125Y880745D02*
X637931Y861939D01*
X648707Y851163D02*
X649605Y850265D01*
X641079Y857904D02*
X645115Y861939D01*
X645115Y847571D02*
X648707Y851163D01*
X641523Y851163D02*
X648707Y858347D01*
X645115Y861939D02*
X648707Y858347D01*
X641523Y851163D02*
X645115Y847571D01*
X637487Y861496D02*
X641079Y857904D01*
X637487Y861496D02*
X637931Y861939D01*
X638130Y882895D02*
X641722Y879302D01*
X620169Y886487D02*
X625460Y891777D01*
X620169Y893671D02*
X621868Y895369D01*
X630946Y875710D02*
X638130Y882895D01*
X638130Y868526D02*
X641722Y872118D01*
X634538Y872118D02*
X638130Y868526D01*
X612140Y901700D02*
X620169Y893671D01*
X627354Y879302D02*
X634538Y886487D01*
X621868Y895369D02*
X625460Y891777D01*
X634538Y872118D02*
X641722Y879302D01*
X620169Y886487D02*
X623761Y882894D01*
X641722Y872118D02*
X642620Y871220D01*
X630946Y890079D02*
X634538Y886487D01*
X627354Y879302D02*
X630946Y875710D01*
X623761Y882894D02*
X630946Y890079D01*
X662367Y888916D02*
X662696Y889244D01*
X665865Y878045D02*
X672202Y884382D01*
X668610Y887974D02*
X672202Y884382D01*
X665865Y878045D02*
X669457Y874453D01*
X662367Y888916D02*
X665959Y885324D01*
X651510Y900430D02*
X662696Y889244D01*
X673472Y878468D02*
X674370Y877570D01*
X669457Y874453D02*
X673472Y878468D01*
X665959Y885324D02*
X668610Y887974D01*
X645545Y885665D02*
X649137Y882073D01*
X638360Y892849D02*
X643243Y897731D01*
X636270Y902970D02*
X638783Y900456D01*
X641953Y889257D02*
X648290Y895594D01*
X649137Y882073D02*
X653152Y886088D01*
X638360Y892849D02*
X641953Y889257D01*
X638783Y900456D02*
X639651Y901324D01*
X643243Y897731D01*
X645545Y885665D02*
X651882Y892002D01*
X653152Y886088D02*
X654050Y885190D01*
X648290Y895594D02*
X651882Y892002D01*
X644597Y840666D02*
X645551Y841619D01*
X656327Y830843D02*
X657225Y829945D01*
X649143Y830843D02*
X652735Y827251D01*
X612775Y874395D02*
X645551Y841619D01*
X652735Y827251D02*
X656327Y830843D01*
X648189Y837074D02*
X652735Y841619D01*
X644597Y840666D02*
X648189Y837074D01*
X652735Y841619D02*
X656327Y838027D01*
X649143Y830843D02*
X656327Y838027D01*
X649427Y872565D02*
X653019Y868973D01*
X658886Y874839D02*
X662478Y871246D01*
Y856878D02*
X666070Y853286D01*
X649427Y872565D02*
X651701Y874839D01*
X666070Y867654D02*
X669662Y864062D01*
X666070Y853286D02*
X669662Y856878D01*
X658886Y860470D02*
X666070Y867654D01*
X669662Y856878D02*
X670560Y855980D01*
X655294Y864062D02*
X658886Y860470D01*
X662478Y856878D02*
X669662Y864062D01*
X655294D02*
X662478Y871246D01*
X641350Y885190D02*
X651701Y874839D01*
X653019Y868973D02*
X658886Y874839D01*
X288598Y1551615D02*
X298831D01*
X447040Y1504950D02*
Y1527810D01*
X466090Y1546860D01*
X422910Y1480820D02*
X447040Y1504950D01*
X422910Y1024890D02*
X477520Y970280D01*
X466090Y1562100D02*
X473710Y1554480D01*
X466090Y1577340D02*
X482600Y1560830D01*
X473710Y1510030D02*
Y1554480D01*
X482600Y1506220D02*
Y1560830D01*
X434340Y1470660D02*
X473710Y1510030D01*
X441960Y1465580D02*
X482600Y1506220D01*
X477520Y970280D02*
X568960D01*
X388620Y997724D02*
Y1504950D01*
X403860Y1489710D02*
X419100Y1504950D01*
X412750Y1483360D02*
X434340Y1504950D01*
X396240Y1006720D02*
Y1498046D01*
X404464Y1506270D01*
X678713Y821157D02*
X850838D01*
X687707Y826133D02*
X835881D01*
X695960Y830580D02*
X851434D01*
X834740Y835891D02*
X835638D01*
X703580Y835660D02*
X834509D01*
X835638Y835891D02*
X835881Y836133D01*
X834509Y835660D02*
X834740Y835891D01*
X441960Y1033780D02*
X495967Y979773D01*
X459644Y1450435D02*
X500284Y1491075D01*
X495967Y979773D02*
X587407D01*
X434340Y1028700D02*
X486569Y976471D01*
X575469D01*
X596804Y983075D02*
X728535Y851344D01*
X820420D01*
X649605Y850265D02*
X678713Y821157D01*
X642620Y871220D02*
X687707Y826133D01*
X587407Y979773D02*
X721360Y845820D01*
X670560Y855980D02*
X695960Y830580D01*
X563880Y962660D02*
X641350Y885190D01*
X654050D02*
X703580Y835660D01*
X568960Y970280D02*
X636270Y902970D01*
X575469Y976471D02*
X651510Y900430D01*
X674370Y877570D02*
X711200Y840740D01*
X412750Y1022350D02*
Y1483360D01*
X403860Y1013460D02*
Y1489710D01*
X412750Y1022350D02*
X472440Y962660D01*
X563880D01*
X558800Y955040D02*
X612140Y901700D01*
X462280Y955040D02*
X558800D01*
X403860Y1013460D02*
X462280Y955040D01*
X396240Y1006720D02*
X451689Y947420D01*
X547370Y939800D02*
X612775Y874395D01*
X388620Y997724D02*
X446544Y939800D01*
X451689Y947420D02*
X552450D01*
X446544Y939800D02*
X547370D01*
X552450Y947420D02*
X619125Y880745D01*
X657225Y829945D02*
X671037Y816133D01*
X846525D01*
X422910Y1024890D02*
Y1480820D01*
X434340Y1028700D02*
Y1470660D01*
X441960Y1033780D02*
Y1465580D01*
X459644Y1026255D02*
X502824Y983075D01*
X459644Y1026255D02*
Y1450435D01*
X502824Y983075D02*
X596804D01*
X917829Y728416D02*
Y734822D01*
X915881Y726468D02*
X917829Y728416D01*
X915881Y726124D02*
Y726468D01*
X1021436Y680490D02*
Y685575D01*
Y680490D02*
X1025881Y676045D01*
X1030326Y685575D02*
X1036248D01*
X950735Y676288D02*
X959104Y684657D01*
X946124Y676288D02*
X950735D01*
X945881Y676045D02*
X946124Y676288D01*
X965881Y725701D02*
X966216Y725366D01*
X965881Y725701D02*
Y726045D01*
X259461Y2131060D02*
Y2142527D01*
X258572Y2143416D02*
X259461Y2142527D01*
X258572Y2143416D02*
Y2143760D01*
X243459Y2098040D02*
X243713Y2098294D01*
Y2115566D01*
X243967Y2115820D01*
X258953Y2049235D02*
Y2062480D01*
X257302Y2047584D02*
X258953Y2049235D01*
X257302Y2047240D02*
Y2047584D01*
X116263Y1759486D02*
X116401Y1759348D01*
X132636D01*
X132774Y1759210D01*
X116263Y1750596D02*
X131759D01*
X132774Y1749581D01*
X133117D01*
D17*
X380873Y2133600D02*
X381000Y2133727D01*
X375920Y2133600D02*
X380873D01*
D18*
X574040Y1676400D02*
Y1691640D01*
X179418Y1619451D02*
X179518Y1619350D01*
X179619Y1619250D01*
X436880Y1676400D02*
Y1690765D01*
X437755Y1691640D01*
X179418Y1619451D02*
Y1630455D01*
X179619Y1542979D02*
Y1619250D01*
X926643Y645301D02*
Y646698D01*
X920307Y653034D02*
X926643Y646698D01*
X1000307Y653034D02*
X1006430Y646910D01*
X1006746D01*
X966643Y645301D02*
Y646765D01*
X960374Y653034D02*
X966643Y646765D01*
X985113Y646731D02*
X991417Y653034D01*
X985113Y645296D02*
Y646731D01*
X945881Y693547D02*
X959104D01*
X945881D02*
Y696045D01*
X1054989Y725153D02*
X1055357Y725521D01*
X1054989Y717296D02*
Y725153D01*
X1075881Y786045D02*
X1077363Y787527D01*
X1083056D01*
X936516Y836803D02*
X944372D01*
X935881Y836168D02*
X936516Y836803D01*
X936232Y845693D02*
X944372D01*
X935881Y846045D02*
X936232Y845693D01*
X1082421Y797052D02*
X1083056Y796417D01*
X1082421Y797052D02*
Y799504D01*
X1075881Y806045D02*
X1082421Y799504D01*
X1056513Y807974D02*
X1073951D01*
X1075881Y806045D01*
X1047623Y807974D02*
X1055497Y815848D01*
X1055881D01*
X1047242Y808355D02*
X1047623Y807974D01*
X1043355Y808355D02*
X1047242D01*
X1035862Y815848D02*
X1043355Y808355D01*
X1045464Y826389D02*
X1055536D01*
X1055881Y826045D01*
X1045235Y835508D02*
X1045464Y835279D01*
X1036059Y835508D02*
X1045235D01*
X1036059D02*
X1036083Y835533D01*
X1023620Y867029D02*
X1024255Y867664D01*
X1023620Y863784D02*
Y867029D01*
X1015881Y856045D02*
X1023620Y863784D01*
X1015365Y867664D02*
Y875529D01*
X1015881Y876045D01*
X992759Y866648D02*
Y872923D01*
X995881Y876045D01*
X983234Y867283D02*
X983869Y866648D01*
X983234Y867283D02*
Y868691D01*
X975881Y876045D02*
X983234Y868691D01*
X955421Y866648D02*
Y875585D01*
X955881Y876045D01*
X937134D02*
X946531Y866648D01*
X936184Y876045D02*
X937134D01*
X1001063Y826848D02*
X1001649Y826262D01*
X1001063Y826848D02*
Y830326D01*
X995881Y835508D02*
X1001063Y830326D01*
X986098Y826262D02*
X992759D01*
X985881Y826045D02*
X986098Y826262D01*
X995426Y786511D02*
Y795609D01*
X995862Y796045D01*
X987457Y777621D02*
X995426D01*
X985881Y776045D02*
X987457Y777621D01*
X986347Y786511D02*
X995426D01*
X985881Y786045D02*
X986347Y786511D01*
X956143Y795782D02*
X964057D01*
X955881Y796045D02*
X956143Y795782D01*
X972947Y788978D02*
Y795782D01*
Y788978D02*
X975881Y786045D01*
X895881Y846045D02*
Y856130D01*
X900303Y860552D02*
Y866394D01*
X895881Y856130D02*
X900303Y860552D01*
X891413Y866394D02*
Y871577D01*
X895881Y876045D01*
X891413Y861293D02*
Y866394D01*
X885881Y855761D02*
X891413Y861293D01*
X854075Y856996D02*
X854710Y856361D01*
X854075Y856996D02*
Y857850D01*
X845881Y866045D02*
X854075Y857850D01*
X854710Y856361D02*
X865026Y846045D01*
X865881D01*
X896112Y838327D02*
Y845813D01*
X895881Y846045D02*
X896112Y845813D01*
X895537Y830012D02*
X896112Y829437D01*
X892037Y830012D02*
X895537D01*
X885881Y836168D02*
X892037Y830012D01*
X896112Y829437D02*
X899373Y826176D01*
X905607D01*
X888633Y788797D02*
X896112D01*
X885881Y786045D02*
X888633Y788797D01*
X895477Y798322D02*
X896112Y797687D01*
X893603Y798322D02*
X895477D01*
X885881Y806045D02*
X893603Y798322D01*
X854272Y801427D02*
X854710Y800989D01*
X850498Y801427D02*
X854272D01*
X845881Y806045D02*
X850498Y801427D01*
X854075Y791464D02*
X854710Y792099D01*
X851300Y791464D02*
X854075D01*
X845881Y786045D02*
X851300Y791464D01*
X875792Y746133D02*
Y754761D01*
Y746133D02*
X875881Y746045D01*
X868274Y763651D02*
X875792D01*
X865881Y766045D02*
X868274Y763651D01*
X895223Y728980D02*
X905881Y718322D01*
Y716045D02*
Y718322D01*
X895223Y694182D02*
X895858Y693547D01*
X898378D01*
X905881Y686045D01*
X886333Y686497D02*
Y694182D01*
X885881Y686045D02*
X886333Y686497D01*
X865881Y648589D02*
X868425Y646045D01*
X885881D01*
X865881Y657479D02*
X874427D01*
X875862Y656045D01*
X905862Y647479D02*
X911417Y653034D01*
X905862Y646045D02*
Y647479D01*
X950849Y652399D02*
X951484Y653034D01*
X950849Y651032D02*
Y652399D01*
X945862Y646045D02*
X950849Y651032D01*
X1030859Y652399D02*
X1031494Y653034D01*
X1030859Y651023D02*
Y652399D01*
X1025881Y646045D02*
X1030859Y651023D01*
X1040384Y653034D02*
X1041019Y652399D01*
Y650906D02*
Y652399D01*
Y650906D02*
X1045881Y646045D01*
X1067282Y647446D02*
X1074547D01*
X1065881Y646045D02*
X1067282Y647446D01*
X1083437Y638488D02*
Y647446D01*
Y638488D02*
X1085881Y636045D01*
X1055881Y706045D02*
X1057073D01*
X1063777Y712749D01*
Y717194D01*
X1063879Y717296D01*
X977138Y717169D02*
X977773Y717804D01*
Y717937D01*
X985881Y726045D01*
X1002157Y727456D02*
X1007618D01*
X1015881Y719193D01*
Y716045D02*
Y719193D01*
X1015111Y708914D02*
Y715275D01*
X1015881Y716045D01*
X1005862Y709273D02*
X1006221Y708914D01*
X1005862Y709273D02*
Y716045D01*
X993267Y727456D02*
Y732910D01*
X995862Y735504D01*
X976421D02*
X985881Y726045D01*
X975881Y735504D02*
X976421D01*
X987292Y727456D02*
X993267D01*
X985881Y726045D02*
X987292Y727456D01*
X977138Y708279D02*
X983646D01*
X985881Y706045D01*
X966216Y708279D02*
X977138D01*
X966216Y717169D02*
Y725366D01*
X926338Y726725D02*
Y734822D01*
X926719D02*
X935198D01*
X935881Y735504D01*
X952119Y723646D02*
X955881Y727408D01*
Y735504D01*
X938260Y723646D02*
X943229D01*
X935862Y726045D02*
X938260Y723646D01*
X885723Y729590D02*
X886333Y728980D01*
X882294Y729590D02*
X885723D01*
X876046Y735838D02*
X882294Y729590D01*
X925738Y726124D02*
X926338Y726725D01*
X925738Y752256D02*
X925830Y752348D01*
X925738Y746045D02*
Y752256D01*
X925830Y761111D02*
Y769366D01*
X926084Y769620D01*
X925830Y770001D02*
X929513Y766318D01*
X935228D01*
X926084Y778637D02*
X926465Y779018D01*
X925738Y778602D02*
Y786045D01*
X926084Y778510D02*
Y778637D01*
X926465Y779018D02*
X931672D01*
X934645Y776045D02*
X935881D01*
X931672Y779018D02*
X934645Y776045D01*
X925738Y778602D02*
X925830Y778510D01*
X258953Y2115820D02*
X259207Y2115566D01*
Y2098294D02*
Y2115566D01*
Y2098294D02*
X259461Y2098040D01*
X226441Y2131060D02*
X243459D01*
X225933Y2115820D02*
X226187Y2116074D01*
Y2130806D01*
X226441Y2131060D01*
Y2062480D02*
X243967D01*
X226441Y2080260D02*
X243459D01*
X381335Y2080052D02*
X383667Y2077720D01*
X377659Y2080052D02*
X381335D01*
X369420Y2088290D02*
X377659Y2080052D01*
X360680Y2088290D02*
X369420D01*
D40*
X1045464Y826389D02*
D03*
Y835279D02*
D03*
X854710Y800989D02*
D03*
Y792099D02*
D03*
X995426Y777621D02*
D03*
Y786511D02*
D03*
X875792Y754761D02*
D03*
Y763651D02*
D03*
X896112Y788797D02*
D03*
Y797687D02*
D03*
X944372Y845693D02*
D03*
Y836803D02*
D03*
X896112Y838327D02*
D03*
Y829437D02*
D03*
X1083056Y796417D02*
D03*
Y787527D02*
D03*
X959104Y684657D02*
D03*
Y693547D02*
D03*
X977138Y708279D02*
D03*
Y717169D02*
D03*
X925830Y770001D02*
D03*
Y778891D02*
D03*
X865881Y648589D02*
D03*
Y657479D02*
D03*
X854710Y847471D02*
D03*
Y856361D02*
D03*
X925830Y761111D02*
D03*
Y752221D02*
D03*
X966216Y708279D02*
D03*
Y717169D02*
D03*
X116263Y1759486D02*
D03*
Y1750596D02*
D03*
D41*
X1030326Y685575D02*
D03*
X1021436D02*
D03*
X1040384Y653034D02*
D03*
X1031494D02*
D03*
X895223Y728980D02*
D03*
X886333D02*
D03*
X1002157Y727456D02*
D03*
X993267D02*
D03*
X917829Y734822D02*
D03*
X926719D02*
D03*
X1024255Y867664D02*
D03*
X1015365D02*
D03*
X900303Y866394D02*
D03*
X891413D02*
D03*
X955421Y866648D02*
D03*
X946531D02*
D03*
X992759D02*
D03*
X983869D02*
D03*
X1056513Y807974D02*
D03*
X1047623D02*
D03*
X992759Y826262D02*
D03*
X1001649D02*
D03*
X943229Y723646D02*
D03*
X952119D02*
D03*
X1000307Y653034D02*
D03*
X991417D02*
D03*
X960374D02*
D03*
X951484D02*
D03*
X1063879Y717296D02*
D03*
X1054989D02*
D03*
X920307Y653034D02*
D03*
X911417D02*
D03*
X1083437Y647446D02*
D03*
X1074547D02*
D03*
X1015111Y708914D02*
D03*
X1006221D02*
D03*
X972947Y795782D02*
D03*
X964057D02*
D03*
X895223Y694182D02*
D03*
X886333D02*
D03*
D43*
X342900Y1573149D02*
D03*
Y1589151D02*
D03*
X288544Y842137D02*
D03*
Y826135D02*
D03*
D45*
X482600Y1686933D02*
D03*
X566600D02*
D03*
X345260Y1686560D02*
D03*
X429260D02*
D03*
D46*
X279400Y2027047D02*
D03*
Y2042033D02*
D03*
X381000Y2148713D02*
D03*
Y2133727D02*
D03*
D50*
X358267Y1625600D02*
D03*
X373253D02*
D03*
X243967Y2062480D02*
D03*
X258953D02*
D03*
X225933Y2115820D02*
D03*
X210947D02*
D03*
X258953D02*
D03*
X243967D02*
D03*
X383667Y2077720D02*
D03*
X398653D02*
D03*
D52*
X243459Y2131060D02*
D03*
X259461D02*
D03*
X210439D02*
D03*
X226441D02*
D03*
X259461Y2080260D02*
D03*
X243459D02*
D03*
X226441D02*
D03*
X210439D02*
D03*
X226441Y2062480D02*
D03*
X210439D02*
D03*
X259461Y2098040D02*
D03*
X243459D02*
D03*
D62*
X332867Y1607820D02*
D03*
X347853D02*
D03*
D75*
X707177Y1384300D02*
D03*
Y1193800D02*
D03*
X548427D02*
D03*
X516677D02*
D03*
X484927D02*
D03*
X357927D02*
D03*
D173*
X1312728Y778897D02*
X1328608Y794777D01*
X1309418Y778897D02*
X1312728D01*
X1283606Y750570D02*
X1306801Y773765D01*
X1310110D01*
X1323981Y787635D01*
X1293539Y763017D02*
X1309418Y778897D01*
X1062632Y750570D02*
X1283606D01*
X1054921Y763017D02*
X1293539D01*
X1203286Y789131D02*
X1204831Y787586D01*
X1302938D01*
X1304145Y786379D02*
X1315720D01*
X1302938Y787586D02*
X1304145Y786379D01*
X1328191Y797613D02*
X1328787Y798208D01*
X1330647Y801127D02*
X1333277D01*
X1328787Y798208D02*
Y799267D01*
X1330647Y801127D01*
X1333277D02*
X1334303Y800100D01*
X1335145D01*
X1328608Y794777D02*
X1336335D01*
X1339342Y791769D01*
X1101821Y797613D02*
X1328191D01*
X1335145Y800100D02*
X1335533Y800488D01*
X1338586Y785590D02*
X1339342D01*
X1336541Y787635D02*
X1338586Y785590D01*
X1323981Y787635D02*
X1336541D01*
X1040582Y771878D02*
X1058311D01*
X1060050Y770139D01*
X1077779D02*
X1086069Y778429D01*
X1047838Y770100D02*
X1054921Y763017D01*
X1094359Y789131D02*
X1203286D01*
X1086069Y780841D02*
X1094359Y789131D01*
X1060050Y770139D02*
X1077779D01*
X1086069Y778429D02*
Y780841D01*
X1036077Y767374D02*
X1040582Y771878D01*
X1338830Y800488D02*
X1339342Y801000D01*
Y791665D02*
Y791769D01*
X1335533Y800488D02*
X1338830D01*
X1046276Y766925D02*
X1062632Y750570D01*
X1027890Y782870D02*
X1047196D01*
X1055663Y791337D02*
X1095545D01*
X1012902Y759004D02*
Y767882D01*
Y759004D02*
X1016058Y755848D01*
X1095545Y791337D02*
X1101821Y797613D01*
X1047196Y782870D02*
X1055663Y791337D01*
X1012902Y767882D02*
X1027890Y782870D01*
X1043294Y770100D02*
X1047838D01*
X1037392Y764199D02*
X1043294Y770100D01*
X1032172Y764199D02*
X1037392D01*
X1028519Y767851D02*
X1032172Y764199D01*
X1023298Y767851D02*
X1028519D01*
X1022015Y766567D02*
X1023298Y767851D01*
X1016077Y766567D02*
X1022015D01*
D174*
X228600Y1930400D02*
D03*
Y571500D02*
D03*
X1511300Y673100D02*
D03*
D195*
X870670Y810260D02*
X876300Y815890D01*
X660400Y810260D02*
X870670D01*
X358270Y1550030D02*
X359600D01*
X363709Y1554140D01*
X365420D01*
X365760Y1554480D01*
X357799Y1590040D02*
X358140D01*
X347248Y1602740D02*
X348996Y1600992D01*
X355989Y1591850D02*
X357799Y1590040D01*
X353867Y1591850D02*
X355989D01*
X348996Y1596721D02*
X353867Y1591850D01*
X348996Y1596721D02*
Y1600992D01*
X356255Y1596793D02*
X356595Y1596453D01*
X356255Y1596793D02*
Y1598050D01*
X355921Y1598384D02*
X356255Y1598050D01*
X378460Y993140D02*
X441960Y929640D01*
X541020D01*
X660400Y810260D01*
X378460Y1510110D02*
X389810Y1521460D01*
X378460Y993140D02*
Y1510110D01*
X447040Y1534160D02*
Y1591850D01*
X434340Y1521460D02*
X447040Y1534160D01*
X389810Y1521460D02*
X434340D01*
X348996Y1608963D02*
Y1644161D01*
X348993Y1644164D02*
Y1690447D01*
X347800Y1691640D02*
X348993Y1690447D01*
Y1644164D02*
X348996Y1644161D01*
D196*
X348860Y1572906D02*
X349072Y1572695D01*
X342900Y1573149D02*
X343143Y1572906D01*
X349072Y1572695D02*
X351968D01*
X354016Y1574742D02*
Y1575027D01*
X343143Y1572906D02*
X348860D01*
X351968Y1572695D02*
X354016Y1574742D01*
Y1575027D02*
X357852Y1578864D01*
X352137Y1583436D02*
X358140D01*
X342900Y1589151D02*
X344981Y1587070D01*
X348503D02*
X352137Y1583436D01*
X344981Y1587070D02*
X348503D01*
X357852Y1578864D02*
X358140D01*
X76448Y1567971D02*
X97094D01*
X101051Y1571927D01*
X102424D01*
X94228Y1598451D02*
X103439Y1589240D01*
Y1575053D02*
Y1589240D01*
X154807Y1557639D02*
X155219Y1558051D01*
X153582Y1557639D02*
X154807D01*
X121263Y1557229D02*
X153172D01*
X103439Y1575053D02*
X121263Y1557229D01*
X153172D02*
X153582Y1557639D01*
X102424Y1571927D02*
X120050Y1554301D01*
X153172D01*
X153582Y1553891D02*
X154807D01*
X155219Y1553479D01*
X153172Y1554301D02*
X153582Y1553891D01*
D198*
X363220Y2120900D02*
Y2132330D01*
Y2051050D02*
Y2075180D01*
X340360Y2155190D02*
X363220Y2132330D01*
X311150Y1998980D02*
X363220Y2051050D01*
X124860Y1998980D02*
X311150D01*
X97420Y2026420D02*
Y2026920D01*
Y2026420D02*
X124860Y1998980D01*
X97420Y2128520D02*
Y2129020D01*
X123590Y2155190D01*
X340360D01*
X45920Y2128320D02*
X97220D01*
X46320Y2027520D02*
X96820D01*
D199*
X45720Y2178120D02*
X46320Y2178720D01*
X96820D01*
X97420Y2179320D01*
X45720Y2128120D02*
X45920Y2128320D01*
X97220D02*
X97420Y2128520D01*
X45720Y2078120D02*
X45920Y2077920D01*
X97220D01*
X97420Y2077720D01*
X45720Y2028120D02*
X46320Y2027520D01*
X96820D02*
X97420Y2026920D01*
D203*
X939800Y1689100D02*
D03*
X127000Y2298700D02*
D03*
X1879600Y50800D02*
D03*
X50800D02*
D03*
D204*
X51048Y1519711D02*
D03*
Y1646711D02*
D03*
D205*
X76448Y1547651D02*
D03*
D206*
Y1567971D02*
D03*
Y1588291D02*
D03*
Y1608611D02*
D03*
X94228Y1557811D02*
D03*
Y1578131D02*
D03*
Y1598451D02*
D03*
Y1618771D02*
D03*
X142488Y1514631D02*
D03*
Y1628931D02*
D03*
Y1651791D02*
D03*
Y1537491D02*
D03*
D207*
X49112Y548640D02*
D03*
X74512Y523240D02*
D03*
X23712D02*
D03*
Y574040D02*
D03*
X74512D02*
D03*
X49112Y391321D02*
D03*
X74512Y365921D02*
D03*
X23712D02*
D03*
Y416721D02*
D03*
X74512D02*
D03*
X75861Y744351D02*
D03*
X25061D02*
D03*
Y693551D02*
D03*
X75861D02*
D03*
X50461Y718951D02*
D03*
X75861Y902491D02*
D03*
X25061D02*
D03*
Y851691D02*
D03*
X75861D02*
D03*
X50461Y877091D02*
D03*
D208*
X402400Y1570450D02*
D03*
X391700D02*
D03*
X381000D02*
D03*
X402400Y1581150D02*
D03*
X391700D02*
D03*
X381000D02*
D03*
X402400Y1591850D02*
D03*
X391700D02*
D03*
X381000D02*
D03*
D209*
X194288Y1329211D02*
D03*
Y1287211D02*
D03*
Y1245211D02*
D03*
X139288Y1329211D02*
D03*
Y1287211D02*
D03*
D210*
Y1245211D02*
D03*
D211*
X357927Y1384300D02*
D03*
D212*
X40888Y1730781D02*
D03*
Y1780781D02*
D03*
D213*
X13888Y1720781D02*
D03*
Y1790781D02*
D03*
D214*
X45720Y2028120D02*
D03*
Y2078120D02*
D03*
Y2128120D02*
D03*
D215*
Y2178120D02*
D03*
D216*
X876300Y815890D02*
D03*
X1441958Y801705D02*
D03*
X1442763Y790679D02*
D03*
X1447800Y798864D02*
D03*
Y794292D02*
D03*
X166778Y1856640D02*
D03*
X176180Y1856539D02*
D03*
X185320Y1856439D02*
D03*
X185334Y1845499D02*
D03*
X185546Y1834559D02*
D03*
X185420Y1823620D02*
D03*
X166677D02*
D03*
X176080D02*
D03*
X128720Y1859380D02*
D03*
X138123D02*
D03*
X119380D02*
D03*
X119254Y1848441D02*
D03*
X119466Y1837501D02*
D03*
X119480Y1826561D02*
D03*
X128620Y1826461D02*
D03*
X138022Y1826360D02*
D03*
X1340042Y765586D02*
D03*
X1332030Y765649D02*
D03*
X1340064Y759502D02*
D03*
X1331925Y760059D02*
D03*
X1076464Y773689D02*
D03*
X1085530Y766629D02*
D03*
X422099Y1500111D02*
D03*
X435388Y1499625D02*
D03*
X362378Y1504538D02*
D03*
X382874Y1504835D02*
D03*
X411502Y1505464D02*
D03*
X426720Y1504950D02*
D03*
X466090Y1539240D02*
D03*
Y1554480D02*
D03*
Y1583650D02*
D03*
X464820Y1598670D02*
D03*
X350520Y1576190D02*
D03*
X353867Y1587070D02*
D03*
X149860Y1549400D02*
D03*
X159928D02*
D03*
X159943Y1562100D02*
D03*
X149860D02*
D03*
X327317Y1538761D02*
D03*
X327660Y1622513D02*
D03*
X1402334Y671830D02*
D03*
X1382014D02*
D03*
X1361694D02*
D03*
X1341374D02*
D03*
X1321054D02*
D03*
X1300734D02*
D03*
X1280414D02*
D03*
X1260486D02*
D03*
X1270023Y643890D02*
D03*
X1290574D02*
D03*
X1311031D02*
D03*
X1331214D02*
D03*
X1371854D02*
D03*
X1392312D02*
D03*
X1412632D02*
D03*
X1432814D02*
D03*
X346673Y1524015D02*
D03*
X347006Y1543909D02*
D03*
X365760Y1554480D02*
D03*
X335140Y1619206D02*
D03*
X358140Y1590040D02*
D03*
X370840Y1616425D02*
D03*
X574040Y1676400D02*
D03*
X356595Y1596453D02*
D03*
X856064Y826045D02*
D03*
X855984Y815890D02*
D03*
X855980Y911860D02*
D03*
Y866045D02*
D03*
Y846045D02*
D03*
Y836064D02*
D03*
X287994Y1615243D02*
D03*
X845881Y806045D02*
D03*
X179418Y1630455D02*
D03*
X235198Y1653061D02*
D03*
X235016Y1681835D02*
D03*
X288598Y1551615D02*
D03*
X179418Y1593950D02*
D03*
X179518Y1568550D02*
D03*
X179619Y1542979D02*
D03*
X845881Y866045D02*
D03*
X835944Y856045D02*
D03*
Y866045D02*
D03*
X845944Y886045D02*
D03*
X466090Y1546860D02*
D03*
Y1562100D02*
D03*
Y1577340D02*
D03*
X464820Y1605280D02*
D03*
X416560Y1559560D02*
D03*
X378460Y1615440D02*
D03*
X414020D02*
D03*
X426720Y1605280D02*
D03*
X388620Y1504950D02*
D03*
X406400Y1615440D02*
D03*
X416560Y1605280D02*
D03*
X398780Y1615440D02*
D03*
X419100Y1504950D02*
D03*
X434340D02*
D03*
X404464Y1506270D02*
D03*
X846525Y855881D02*
D03*
X462280Y1592580D02*
D03*
X846525Y816133D02*
D03*
X835881Y826133D02*
D03*
Y836133D02*
D03*
X845881D02*
D03*
X820420Y851344D02*
D03*
X373825Y1526146D02*
D03*
X822960Y806045D02*
D03*
X368300Y1504950D02*
D03*
X358025Y1509146D02*
D03*
X447040Y1591850D02*
D03*
X358140Y1578864D02*
D03*
Y1583436D02*
D03*
X365760Y1602740D02*
D03*
X436880Y1676400D02*
D03*
X179518Y1619350D02*
D03*
X155219Y1558051D02*
D03*
Y1553479D02*
D03*
X1043940Y904240D02*
D03*
X1150620Y498027D02*
D03*
X1046480Y464348D02*
D03*
X999242Y463967D02*
D03*
X956062D02*
D03*
X714762D02*
D03*
X965876Y674534D02*
D03*
X926643Y645301D02*
D03*
X1006746Y646910D02*
D03*
X988615Y673329D02*
D03*
X966643Y645301D02*
D03*
X770719Y518214D02*
D03*
X810719Y450714D02*
D03*
X781374D02*
D03*
X927100Y498027D02*
D03*
X1107935Y450911D02*
D03*
X1137280D02*
D03*
X1097280Y518411D02*
D03*
X1067935D02*
D03*
X884488Y449580D02*
D03*
X913832D02*
D03*
X824234Y498681D02*
D03*
X873760Y518411D02*
D03*
X985113Y645296D02*
D03*
X915881Y726124D02*
D03*
X1351280Y647700D02*
D03*
X1239520D02*
D03*
X1244600Y670560D02*
D03*
X1249680Y647700D02*
D03*
X1531557Y538416D02*
D03*
X1516317Y538353D02*
D03*
X1501077Y538289D02*
D03*
Y502793D02*
D03*
X1516317Y502856D02*
D03*
X1531557Y502920D02*
D03*
X1447556Y538416D02*
D03*
X1432316Y538353D02*
D03*
X1417077Y538289D02*
D03*
Y502793D02*
D03*
X1432316Y502856D02*
D03*
X1447556Y502920D02*
D03*
X1305677Y538416D02*
D03*
X1290437Y538353D02*
D03*
X1275197Y538289D02*
D03*
Y502793D02*
D03*
X1290437Y502856D02*
D03*
X1305677Y502920D02*
D03*
X1221676D02*
D03*
X1206436Y502856D02*
D03*
X1191197Y502793D02*
D03*
Y538289D02*
D03*
X1206436Y538353D02*
D03*
X1221676Y538416D02*
D03*
X1438275Y609600D02*
D03*
X1452245D02*
D03*
X1372235D02*
D03*
X1386205D02*
D03*
X1306195D02*
D03*
X1320165D02*
D03*
X1254125D02*
D03*
X1240155D02*
D03*
X1407417Y727555D02*
D03*
Y713585D02*
D03*
X1341617D02*
D03*
X1308116Y770590D02*
D03*
X1301623Y784411D02*
D03*
X1301115Y820933D02*
D03*
Y844043D02*
D03*
X1392555Y869315D02*
D03*
X1401445D02*
D03*
X1392555Y883285D02*
D03*
X1409700Y837148D02*
D03*
X1416685Y844133D02*
D03*
Y808319D02*
D03*
X1409700Y801334D02*
D03*
X1416685Y788197D02*
D03*
X1301115Y813060D02*
D03*
X1308100Y859918D02*
D03*
X1350508Y713585D02*
D03*
X1398527D02*
D03*
Y727555D02*
D03*
X1416685Y779307D02*
D03*
X1409700Y824194D02*
D03*
X1416685Y817209D02*
D03*
Y853023D02*
D03*
X1409700Y860008D02*
D03*
X1401445Y883285D02*
D03*
X1310640Y871220D02*
D03*
X1315720Y881409D02*
D03*
X1331371D02*
D03*
X1331962Y797952D02*
D03*
X1402683Y740377D02*
D03*
Y748377D02*
D03*
X1353488Y683200D02*
D03*
X1451293Y809561D02*
D03*
X1465643Y809688D02*
D03*
X1451293Y783625D02*
D03*
X1465643Y783752D02*
D03*
X1442963Y657225D02*
D03*
X1240960Y657184D02*
D03*
X1260337Y657225D02*
D03*
X1280403D02*
D03*
X1300723D02*
D03*
X1321043D02*
D03*
X1341363D02*
D03*
X1361683D02*
D03*
X1382003D02*
D03*
X1402323D02*
D03*
X1422643D02*
D03*
X1433683Y685158D02*
D03*
X1413181Y685347D02*
D03*
X1393326Y685185D02*
D03*
X1372339Y685050D02*
D03*
X1331982Y685508D02*
D03*
X1311696Y685158D02*
D03*
X1291356Y685185D02*
D03*
X1271304Y685148D02*
D03*
X1250568Y685185D02*
D03*
X1452912Y594646D02*
D03*
X1438561Y594519D02*
D03*
X1386872Y594646D02*
D03*
X1372521Y594519D02*
D03*
X1320832Y594646D02*
D03*
X1306481Y594519D02*
D03*
X1240409Y594487D02*
D03*
X1254760Y594614D02*
D03*
X1274458Y624713D02*
D03*
X1295146Y624840D02*
D03*
X1315466D02*
D03*
X1335786D02*
D03*
X1376426Y624713D02*
D03*
X1396746Y624840D02*
D03*
X1417066D02*
D03*
X1437386D02*
D03*
X1427226Y652780D02*
D03*
X1406906D02*
D03*
X1386586D02*
D03*
X1366266D02*
D03*
X1345946D02*
D03*
X1325626D02*
D03*
X1305306D02*
D03*
X1284986D02*
D03*
X1264920D02*
D03*
X1442328Y645160D02*
D03*
X1422009D02*
D03*
X1401689D02*
D03*
X1381369D02*
D03*
X1340728D02*
D03*
X1320408D02*
D03*
X1300089D02*
D03*
X1279538D02*
D03*
X1432168Y673100D02*
D03*
X1411848D02*
D03*
X1391528D02*
D03*
X1371208D02*
D03*
X1350889D02*
D03*
X1330569D02*
D03*
X1310249D02*
D03*
X1289928D02*
D03*
X1270000D02*
D03*
X1402683Y772377D02*
D03*
X1378971Y784578D02*
D03*
X1386752Y758810D02*
D03*
X1387283Y751689D02*
D03*
X1385293Y768269D02*
D03*
X1402683Y756377D02*
D03*
X1316285Y761366D02*
D03*
X1331559Y784460D02*
D03*
X1331651Y790810D02*
D03*
X1339202Y809859D02*
D03*
X1315720Y771752D02*
D03*
X1379202Y769859D02*
D03*
X1086077Y773689D02*
D03*
X1075881Y766192D02*
D03*
X1339342Y791665D02*
D03*
X1332388Y805450D02*
D03*
X1339342Y801000D02*
D03*
X1378983Y800498D02*
D03*
X1339342Y816981D02*
D03*
X1378294Y805017D02*
D03*
X1315720Y813060D02*
D03*
X1075881Y728731D02*
D03*
X1055357Y725521D02*
D03*
X1045294Y733316D02*
D03*
X1036077Y746045D02*
D03*
X1044606Y744361D02*
D03*
X1066077Y756006D02*
D03*
X1025424Y764676D02*
D03*
X1016077Y766567D02*
D03*
X1015528Y776207D02*
D03*
X1339342Y785590D02*
D03*
X1315720Y786379D02*
D03*
X1016077Y746045D02*
D03*
X1055988Y796270D02*
D03*
X1095674Y795956D02*
D03*
X1076077D02*
D03*
X1315720Y821060D02*
D03*
X1331342Y816488D02*
D03*
X1006077Y756133D02*
D03*
X1005862Y766045D02*
D03*
X1035862Y796045D02*
D03*
X1025881Y786045D02*
D03*
X1036970Y755152D02*
D03*
X1045881Y786045D02*
D03*
X1006058Y745956D02*
D03*
X1036077Y767374D02*
D03*
X1046276Y766925D02*
D03*
X1339812Y742427D02*
D03*
X1318206Y748538D02*
D03*
X1046373Y756271D02*
D03*
X1026245Y755652D02*
D03*
X1026077Y746045D02*
D03*
X1056077Y752484D02*
D03*
X1055862Y766567D02*
D03*
X1066077D02*
D03*
X1075959Y746123D02*
D03*
X1378355Y749549D02*
D03*
X1332048D02*
D03*
X1340048D02*
D03*
X1016058Y755848D02*
D03*
X1066077Y775956D02*
D03*
X1386971Y792578D02*
D03*
Y801214D02*
D03*
X1056077Y735579D02*
D03*
X1066454D02*
D03*
X1378971Y760578D02*
D03*
X1095674Y785956D02*
D03*
X1075881Y786045D02*
D03*
X1066077Y785956D02*
D03*
X1340965Y776340D02*
D03*
X1331342Y776488D02*
D03*
X1056077Y775956D02*
D03*
X1088394Y823640D02*
D03*
X1331342Y832488D02*
D03*
X1315720Y845060D02*
D03*
X1086077Y835956D02*
D03*
X1315720Y853060D02*
D03*
X1066077Y825956D02*
D03*
X1076077Y835956D02*
D03*
X1331342Y824488D02*
D03*
X1339342D02*
D03*
X1331342Y840488D02*
D03*
X1335543Y871680D02*
D03*
X1343543D02*
D03*
X1075976Y865306D02*
D03*
X1088541Y883384D02*
D03*
X1331342Y848488D02*
D03*
X1086077Y865956D02*
D03*
Y875956D02*
D03*
X1378971Y792578D02*
D03*
Y848578D02*
D03*
Y856578D02*
D03*
X1315720Y861060D02*
D03*
X1006077Y776045D02*
D03*
X996077Y746045D02*
D03*
Y766045D02*
D03*
X1076077Y815956D02*
D03*
X1086077D02*
D03*
Y845956D02*
D03*
X1066077D02*
D03*
X1076077Y855956D02*
D03*
X1066077Y865956D02*
D03*
X1076077Y875956D02*
D03*
X1402683Y852377D02*
D03*
X1386971Y848578D02*
D03*
X1402683Y844377D02*
D03*
Y836377D02*
D03*
Y828377D02*
D03*
Y804377D02*
D03*
Y764377D02*
D03*
X1386971Y744578D02*
D03*
Y808578D02*
D03*
Y816578D02*
D03*
X1378971D02*
D03*
X1386971Y824578D02*
D03*
X1378971D02*
D03*
X1386971Y832578D02*
D03*
X1378971D02*
D03*
Y840578D02*
D03*
X1386971Y856578D02*
D03*
X1383543Y872200D02*
D03*
X1375543D02*
D03*
X1339342Y832488D02*
D03*
Y840488D02*
D03*
Y848488D02*
D03*
Y856488D02*
D03*
X1331342D02*
D03*
X1086077Y855956D02*
D03*
X1035862Y716045D02*
D03*
X975881Y756045D02*
D03*
X1075881Y846045D02*
D03*
Y826045D02*
D03*
X1656080Y879235D02*
D03*
Y871743D02*
D03*
Y886727D02*
D03*
Y864251D02*
D03*
Y856759D02*
D03*
X1647836Y849268D02*
D03*
X1639592Y856759D02*
D03*
X1656080Y841776D02*
D03*
Y849268D02*
D03*
X1639592D02*
D03*
Y841776D02*
D03*
X1647836D02*
D03*
Y856759D02*
D03*
X1634522Y944440D02*
D03*
X1643451D02*
D03*
X1643844Y922349D02*
D03*
X1652302D02*
D03*
Y932509D02*
D03*
Y944440D02*
D03*
Y955369D02*
D03*
X1643264D02*
D03*
X1634522D02*
D03*
X215900Y191673D02*
D03*
X218440Y200680D02*
D03*
X209004D02*
D03*
X375920Y322580D02*
D03*
Y307340D02*
D03*
Y292100D02*
D03*
X363220Y322580D02*
D03*
Y307340D02*
D03*
Y292100D02*
D03*
X350520Y322580D02*
D03*
Y307340D02*
D03*
Y292100D02*
D03*
X337820D02*
D03*
Y307340D02*
D03*
Y322580D02*
D03*
X299120Y182880D02*
D03*
Y193040D02*
D03*
Y218440D02*
D03*
X296580Y254000D02*
D03*
Y236220D02*
D03*
X288960Y228600D02*
D03*
Y246380D02*
D03*
Y259080D02*
D03*
X257070Y204180D02*
D03*
Y194180D02*
D03*
Y184180D02*
D03*
X267070D02*
D03*
Y194180D02*
D03*
Y204180D02*
D03*
X277070D02*
D03*
Y194180D02*
D03*
Y184180D02*
D03*
X566420Y1090871D02*
D03*
X721360Y1028700D02*
D03*
X713740D02*
D03*
X706120D02*
D03*
X652691Y1066871D02*
D03*
X644982Y1066800D02*
D03*
X637451Y1066871D02*
D03*
X629742Y1066800D02*
D03*
Y1059180D02*
D03*
X644982Y1051560D02*
D03*
X652602D02*
D03*
Y1059180D02*
D03*
X644982D02*
D03*
X637362D02*
D03*
X544164Y1029661D02*
D03*
X551974Y1029520D02*
D03*
X559855Y1029309D02*
D03*
X592851Y1029379D02*
D03*
X601087D02*
D03*
X650240Y1028700D02*
D03*
X655320Y1035118D02*
D03*
X645160D02*
D03*
X604520D02*
D03*
X596900D02*
D03*
X589351D02*
D03*
X540931D02*
D03*
X548640D02*
D03*
X556171D02*
D03*
X563880D02*
D03*
X540931Y1111191D02*
D03*
X556171D02*
D03*
X589351Y1080871D02*
D03*
X599351D02*
D03*
X609351D02*
D03*
Y1090871D02*
D03*
X599351D02*
D03*
X589351D02*
D03*
Y1100871D02*
D03*
X599351D02*
D03*
X609351D02*
D03*
X508000Y1135380D02*
D03*
X556260Y1120745D02*
D03*
X548640D02*
D03*
X601980Y1130300D02*
D03*
X594360D02*
D03*
X586740D02*
D03*
X579120D02*
D03*
X571500D02*
D03*
X563880D02*
D03*
X556260Y1130300D02*
D03*
X548640D02*
D03*
X541020D02*
D03*
Y1120745D02*
D03*
X548640Y1111191D02*
D03*
X556260Y1059180D02*
D03*
X548640D02*
D03*
X541020D02*
D03*
Y1051560D02*
D03*
X548640D02*
D03*
X556260D02*
D03*
X563880D02*
D03*
Y1059180D02*
D03*
Y1066800D02*
D03*
X556171Y1066871D02*
D03*
X548640Y1066800D02*
D03*
X540931Y1066871D02*
D03*
X1649084Y647444D02*
D03*
Y632460D02*
D03*
X1640840D02*
D03*
X1731900Y725670D02*
D03*
X1718253Y724267D02*
D03*
X1705234Y710677D02*
D03*
X1635760Y746760D02*
D03*
X1644501D02*
D03*
X1653540D02*
D03*
Y735831D02*
D03*
Y723900D02*
D03*
Y713740D02*
D03*
X1645081D02*
D03*
X1640840Y639952D02*
D03*
X1657328D02*
D03*
Y632460D02*
D03*
X1640840Y647444D02*
D03*
X1649084Y639952D02*
D03*
X1657328Y647444D02*
D03*
X1645081Y680720D02*
D03*
Y665480D02*
D03*
X1657328Y654936D02*
D03*
X1620520Y711200D02*
D03*
Y695960D02*
D03*
Y680720D02*
D03*
Y665480D02*
D03*
Y652780D02*
D03*
Y726440D02*
D03*
X1633220Y711200D02*
D03*
Y695960D02*
D03*
Y680720D02*
D03*
Y665480D02*
D03*
X1695428Y753611D02*
D03*
X1708128D02*
D03*
X1675108Y672331D02*
D03*
X1682728D02*
D03*
X1657328Y685031D02*
D03*
Y692651D02*
D03*
Y677411D02*
D03*
Y662427D02*
D03*
Y669919D02*
D03*
X1644688Y735831D02*
D03*
X1635760D02*
D03*
X1708128Y743451D02*
D03*
X1695428D02*
D03*
X1682728Y725671D02*
D03*
X1675108D02*
D03*
X1294130Y1094740D02*
D03*
X1285240D02*
D03*
X1289177Y1086098D02*
D03*
X1271778Y1078230D02*
D03*
X1266190Y1070610D02*
D03*
X1282700Y1104900D02*
D03*
X1271778D02*
D03*
X1267460Y1111250D02*
D03*
X1277620D02*
D03*
X1267460Y1094740D02*
D03*
X1277620D02*
D03*
X1271778Y1086098D02*
D03*
X1347470Y1075098D02*
D03*
Y1082040D02*
D03*
Y1089660D02*
D03*
Y1097280D02*
D03*
Y1104900D02*
D03*
Y1112520D02*
D03*
X1339850Y1094740D02*
D03*
X1332230D02*
D03*
X1336880Y1086098D02*
D03*
X1347470Y1062098D02*
D03*
X1369060Y1038860D02*
D03*
X1361440Y1031240D02*
D03*
X1369187Y1085723D02*
D03*
X1361567Y1093343D02*
D03*
X1271778Y1047496D02*
D03*
X1264158Y1055116D02*
D03*
X1324610Y1112520D02*
D03*
X1316990D02*
D03*
X1309370D02*
D03*
X1301750D02*
D03*
X1312880Y1104900D02*
D03*
Y1094740D02*
D03*
X1322880Y1072098D02*
D03*
X1312880D02*
D03*
X1302880D02*
D03*
Y1062098D02*
D03*
X1312880D02*
D03*
X1322880D02*
D03*
Y1052098D02*
D03*
X1312880D02*
D03*
X1302880D02*
D03*
X1451310Y1096010D02*
D03*
Y1106170D02*
D03*
X1440180Y1113790D02*
D03*
X1447800D02*
D03*
X1455420D02*
D03*
X1463040D02*
D03*
X1402588Y1056386D02*
D03*
X1410208Y1048766D02*
D03*
X1499997Y1094613D02*
D03*
X1507617Y1086993D02*
D03*
X1499870Y1032510D02*
D03*
X1507490Y1040130D02*
D03*
X1485900Y1063368D02*
D03*
X1475310Y1087368D02*
D03*
X1470660Y1096010D02*
D03*
X1478280D02*
D03*
X1485900Y1113790D02*
D03*
Y1106170D02*
D03*
Y1098550D02*
D03*
Y1090930D02*
D03*
Y1083310D02*
D03*
Y1076368D02*
D03*
X1410208Y1087368D02*
D03*
X1416050Y1096010D02*
D03*
X1405890D02*
D03*
X1416050Y1112520D02*
D03*
X1405890D02*
D03*
X1410208Y1106170D02*
D03*
X1421130D02*
D03*
X1404620Y1071880D02*
D03*
X1410208Y1079500D02*
D03*
X1427607Y1087368D02*
D03*
X1423670Y1096010D02*
D03*
X1432560D02*
D03*
X1483360Y1050368D02*
D03*
Y1055370D02*
D03*
X1461310Y1073368D02*
D03*
X1451310D02*
D03*
X1441310D02*
D03*
Y1063368D02*
D03*
X1451310D02*
D03*
X1461310D02*
D03*
Y1053368D02*
D03*
X1451310D02*
D03*
X1441310D02*
D03*
X1036059Y835508D02*
D03*
X1194562Y1134866D02*
D03*
X1206500Y1117086D02*
D03*
X1194562Y1102106D02*
D03*
X1206500Y1085596D02*
D03*
X1193771Y1071366D02*
D03*
X1084326Y1037590D02*
D03*
X1069848Y1053586D02*
D03*
X1084326Y1071366D02*
D03*
X1069848Y1085336D02*
D03*
X1085088Y1130808D02*
D03*
X1084326Y1101598D02*
D03*
X1069848Y1116838D02*
D03*
X987298Y1148334D02*
D03*
Y1163320D02*
D03*
X952754Y1137412D02*
D03*
Y1160526D02*
D03*
Y1177544D02*
D03*
X969264Y1177798D02*
D03*
X987298D02*
D03*
X1006094D02*
D03*
X1021334D02*
D03*
X1020572Y1163320D02*
D03*
X1020064Y1148334D02*
D03*
X1019302Y1133856D02*
D03*
X1006094D02*
D03*
X987298D02*
D03*
X969264Y1134364D02*
D03*
X971550Y1312926D02*
D03*
X946658Y1312164D02*
D03*
X925322Y1312672D02*
D03*
X907034Y1312926D02*
D03*
X885698Y1312672D02*
D03*
X871728Y1313688D02*
D03*
X860298Y1305560D02*
D03*
X860044Y1291584D02*
D03*
Y1279398D02*
D03*
X324803Y793373D02*
D03*
X324549Y800231D02*
D03*
Y785753D02*
D03*
X322771Y777371D02*
D03*
Y767465D02*
D03*
Y758575D02*
D03*
Y749939D02*
D03*
X342329Y750701D02*
D03*
X342392Y758952D02*
D03*
X342583Y767719D02*
D03*
X342392Y776986D02*
D03*
X335217Y784229D02*
D03*
X342075Y784483D02*
D03*
X372047Y769243D02*
D03*
X362395Y769497D02*
D03*
X363157Y781689D02*
D03*
X369507Y781943D02*
D03*
X423863Y770005D02*
D03*
X414719Y769751D02*
D03*
X414465Y783213D02*
D03*
X423672Y790448D02*
D03*
X437579Y839347D02*
D03*
X427927Y840109D02*
D03*
Y846459D02*
D03*
X437833Y848491D02*
D03*
X424117Y878463D02*
D03*
X416927Y884034D02*
D03*
X428422Y886574D02*
D03*
X433258Y895043D02*
D03*
X424117D02*
D03*
X413653D02*
D03*
X413540Y904468D02*
D03*
X424004Y904513D02*
D03*
X432168Y904354D02*
D03*
X325645Y868718D02*
D03*
X327052Y884941D02*
D03*
X337122D02*
D03*
X327666Y895591D02*
D03*
X336708D02*
D03*
X875881Y886045D02*
D03*
X895881Y876045D02*
D03*
X936184D02*
D03*
X975881D02*
D03*
X1015881D02*
D03*
X936184Y865536D02*
D03*
X885881Y855761D02*
D03*
X916009D02*
D03*
X995881Y856045D02*
D03*
X1035881D02*
D03*
X955881Y846045D02*
D03*
X845881Y826045D02*
D03*
X865881Y816045D02*
D03*
Y846045D02*
D03*
X885881Y836168D02*
D03*
X935881D02*
D03*
X995881Y835508D02*
D03*
X975881Y826045D02*
D03*
X925738Y826176D02*
D03*
X905607D02*
D03*
X1035862Y815848D02*
D03*
X1055881D02*
D03*
X1005862Y805688D02*
D03*
X885881Y806045D02*
D03*
X916046Y795916D02*
D03*
X935881Y796045D02*
D03*
X955881D02*
D03*
X995862D02*
D03*
X985881Y786045D02*
D03*
X965881D02*
D03*
X945881D02*
D03*
X925738D02*
D03*
X845881D02*
D03*
X935881Y776045D02*
D03*
X945881D02*
D03*
X955881D02*
D03*
X975881D02*
D03*
X985881Y766045D02*
D03*
X965881D02*
D03*
X945881D02*
D03*
X865881D02*
D03*
X935881Y756045D02*
D03*
X955881D02*
D03*
X995862D02*
D03*
X985881Y746045D02*
D03*
X965881D02*
D03*
X945881D02*
D03*
X895733Y745467D02*
D03*
X925738Y746045D02*
D03*
X845881D02*
D03*
X875850Y735858D02*
D03*
X935881Y735504D02*
D03*
X955881D02*
D03*
X975881D02*
D03*
X995862D02*
D03*
X985881Y726045D02*
D03*
X965881D02*
D03*
X925738Y726124D02*
D03*
X865881Y726045D02*
D03*
X885881Y716045D02*
D03*
X915862D02*
D03*
X1005862D02*
D03*
X845881Y706045D02*
D03*
X945881Y696045D02*
D03*
X975862D02*
D03*
X1075881Y706045D02*
D03*
X1055881Y685575D02*
D03*
X1036248D02*
D03*
X885881Y686045D02*
D03*
X865881D02*
D03*
X845881Y665988D02*
D03*
X1075881Y666045D02*
D03*
X1632039Y876409D02*
D03*
Y891649D02*
D03*
Y906889D02*
D03*
Y922129D02*
D03*
X1619339Y937369D02*
D03*
Y863709D02*
D03*
Y876409D02*
D03*
Y891649D02*
D03*
Y906889D02*
D03*
Y922129D02*
D03*
X918943Y1259326D02*
D03*
X944343D02*
D03*
X957043D02*
D03*
X982443D02*
D03*
X944343Y1233926D02*
D03*
X957043D02*
D03*
X969743D02*
D03*
X982443D02*
D03*
Y1246626D02*
D03*
X969743D02*
D03*
X957043D02*
D03*
X944343D02*
D03*
X931643D02*
D03*
X918943D02*
D03*
X906243D02*
D03*
X893543D02*
D03*
X880843D02*
D03*
Y1233926D02*
D03*
X868143Y1259326D02*
D03*
Y1246626D02*
D03*
Y1233926D02*
D03*
X1170403Y1071366D02*
D03*
X1117063Y1045966D02*
D03*
X1129763D02*
D03*
X1142463D02*
D03*
X1155163D02*
D03*
X1167863D02*
D03*
X1162783Y1058666D02*
D03*
X1150083D02*
D03*
X1137383D02*
D03*
X1124683D02*
D03*
X1119603Y1071366D02*
D03*
X1132303D02*
D03*
X1145003D02*
D03*
X1157703D02*
D03*
X1152623Y1084066D02*
D03*
X1139923D02*
D03*
X1127223D02*
D03*
X1122143Y1096766D02*
D03*
X1134843D02*
D03*
X1147543D02*
D03*
X1160243D02*
D03*
X1155163Y1109466D02*
D03*
X1142463D02*
D03*
X1129763D02*
D03*
X1117063D02*
D03*
X1111983Y1122166D02*
D03*
X1124683D02*
D03*
X1137383D02*
D03*
X1150083D02*
D03*
X1157703Y1134866D02*
D03*
X1145003D02*
D03*
X1132303D02*
D03*
X1119603D02*
D03*
X1106903D02*
D03*
X1101823Y1147566D02*
D03*
X1114523D02*
D03*
X1127223D02*
D03*
X1139923D02*
D03*
X1152623D02*
D03*
X1147543Y1160266D02*
D03*
X1134843D02*
D03*
X1122143D02*
D03*
X1109443D02*
D03*
X622300Y2120900D02*
D03*
Y2101850D02*
D03*
Y2082800D02*
D03*
Y2063750D02*
D03*
X546100Y2038350D02*
D03*
X565150D02*
D03*
X584200D02*
D03*
X603250D02*
D03*
X622300D02*
D03*
X615950Y2051050D02*
D03*
X596900D02*
D03*
X577850D02*
D03*
X558800D02*
D03*
X539750D02*
D03*
Y2070100D02*
D03*
Y2089150D02*
D03*
Y2108200D02*
D03*
Y2127250D02*
D03*
Y2139950D02*
D03*
X558800D02*
D03*
X577850D02*
D03*
X596900D02*
D03*
X615950D02*
D03*
X622300Y2152650D02*
D03*
X603250D02*
D03*
X584200D02*
D03*
X565150D02*
D03*
X546100D02*
D03*
X375920Y2133600D02*
D03*
X363220Y2179320D02*
D03*
X355600Y2169033D02*
D03*
X370840Y2169160D02*
D03*
X258572Y2170430D02*
D03*
Y2143760D02*
D03*
X250190D02*
D03*
X241300D02*
D03*
X258572Y2178050D02*
D03*
X250190D02*
D03*
X242570D02*
D03*
Y2170430D02*
D03*
X257302Y2016760D02*
D03*
X248920D02*
D03*
X241300D02*
D03*
Y2024380D02*
D03*
Y2032000D02*
D03*
Y2039620D02*
D03*
Y2047240D02*
D03*
X248920D02*
D03*
X257302D02*
D03*
X355600Y2026920D02*
D03*
X370840Y2027047D02*
D03*
X363220Y2019300D02*
D03*
X360680Y2088290D02*
D03*
X368300Y2075180D02*
D03*
X358140Y2120900D02*
D03*
X368300D02*
D03*
X358140Y2075180D02*
D03*
X363220D02*
D03*
Y2120680D02*
D03*
X50038Y1742781D02*
D03*
X65098Y1741781D02*
D03*
X55020Y1749031D02*
D03*
X417830Y427990D02*
D03*
X407670D02*
D03*
X414020Y537363D02*
D03*
X403701Y537634D02*
D03*
X381385Y537363D02*
D03*
X371066Y537634D02*
D03*
X407670Y408787D02*
D03*
X417989Y408516D02*
D03*
X383578D02*
D03*
X373260Y408787D02*
D03*
X378460Y431800D02*
D03*
X373707Y426717D02*
D03*
X383147Y427181D02*
D03*
X414020Y518160D02*
D03*
X403860D02*
D03*
X381000D02*
D03*
X370840D02*
D03*
X222686Y169829D02*
D03*
X238879Y171572D02*
D03*
X209004Y169829D02*
D03*
X215900Y163180D02*
D03*
X228600D02*
D03*
X238879D02*
D03*
X248967D02*
D03*
X350520Y185420D02*
D03*
X358140Y191389D02*
D03*
X368749Y192709D02*
D03*
X358140Y180340D02*
D03*
X369208Y180360D02*
D03*
X378460Y180340D02*
D03*
X386080D02*
D03*
X378460Y236220D02*
D03*
X360578Y240021D02*
D03*
X369951Y239999D02*
D03*
Y229927D02*
D03*
X363220Y246739D02*
D03*
X372838D02*
D03*
X617220Y246649D02*
D03*
Y228600D02*
D03*
X607060Y220980D02*
D03*
Y238760D02*
D03*
Y254000D02*
D03*
X591820D02*
D03*
X622300Y266700D02*
D03*
X607060D02*
D03*
X591820D02*
D03*
X628206Y254000D02*
D03*
Y238760D02*
D03*
Y220980D02*
D03*
Y203200D02*
D03*
Y182880D02*
D03*
X518160Y205740D02*
D03*
X506166Y208978D02*
D03*
X582777Y116989D02*
D03*
X563136D02*
D03*
X545429D02*
D03*
X529166D02*
D03*
X511821D02*
D03*
X569786Y246649D02*
D03*
Y231409D02*
D03*
X579946Y142509D02*
D03*
Y150129D02*
D03*
Y157749D02*
D03*
Y165369D02*
D03*
Y172989D02*
D03*
X628206Y167909D02*
D03*
Y157749D02*
D03*
Y147589D02*
D03*
Y137429D02*
D03*
Y127269D02*
D03*
Y117109D02*
D03*
X618046D02*
D03*
X607886D02*
D03*
X598166D02*
D03*
X559499Y231409D02*
D03*
Y246649D02*
D03*
X580073Y231409D02*
D03*
Y246649D02*
D03*
X473266Y129428D02*
D03*
X488506D02*
D03*
X522796Y249189D02*
D03*
X530416D02*
D03*
X548196D02*
D03*
X540576D02*
D03*
X535496Y242839D02*
D03*
Y233949D02*
D03*
X544386Y227599D02*
D03*
X425385Y494870D02*
D03*
Y483870D02*
D03*
Y472870D02*
D03*
Y461870D02*
D03*
Y450870D02*
D03*
X414385Y494870D02*
D03*
Y483870D02*
D03*
Y472870D02*
D03*
Y461870D02*
D03*
Y450870D02*
D03*
X403385Y494870D02*
D03*
Y483870D02*
D03*
Y472870D02*
D03*
Y461870D02*
D03*
Y450870D02*
D03*
X392385Y494870D02*
D03*
Y483870D02*
D03*
Y472870D02*
D03*
Y461870D02*
D03*
Y450870D02*
D03*
X381385Y494870D02*
D03*
Y483870D02*
D03*
Y472870D02*
D03*
Y461870D02*
D03*
Y450870D02*
D03*
X345440Y209519D02*
D03*
X368300Y222219D02*
D03*
X355600D02*
D03*
X345440D02*
D03*
X416560Y257779D02*
D03*
X408940Y265399D02*
D03*
X431800Y209519D02*
D03*
X417562Y154323D02*
D03*
X402322D02*
D03*
X382270Y247619D02*
D03*
X399895Y247572D02*
D03*
X356637Y428190D02*
D03*
X351049Y433270D02*
D03*
X356562Y517377D02*
D03*
X351482Y511789D02*
D03*
X362658Y442235D02*
D03*
X351736Y442743D02*
D03*
Y502645D02*
D03*
X362658Y503153D02*
D03*
X358648Y475488D02*
D03*
Y469392D02*
D03*
X342592Y482579D02*
D03*
X347418Y477753D02*
D03*
X342592Y462259D02*
D03*
X347418Y467339D02*
D03*
X361388Y485373D02*
D03*
X361642Y460227D02*
D03*
X134541Y484652D02*
D03*
X129461Y479572D02*
D03*
X139621D02*
D03*
X129540Y500380D02*
D03*
X139700D02*
D03*
X147320Y497840D02*
D03*
Y490220D02*
D03*
X182801Y416072D02*
D03*
X172641D02*
D03*
X177721Y421152D02*
D03*
Y431312D02*
D03*
X201512Y452120D02*
D03*
X175260Y459740D02*
D03*
X180340Y457200D02*
D03*
Y449580D02*
D03*
Y441960D02*
D03*
X172720Y443120D02*
D03*
X308192Y411099D02*
D03*
X323432D02*
D03*
X209132Y446659D02*
D03*
X308192Y462661D02*
D03*
X323432D02*
D03*
X124931Y574040D02*
D03*
X109691D02*
D03*
X124931Y416721D02*
D03*
X109691D02*
D03*
X193892Y498221D02*
D03*
X209132D02*
D03*
X308192Y536321D02*
D03*
X323432D02*
D03*
X308192Y484759D02*
D03*
X323432D02*
D03*
X374650Y1384300D02*
D03*
X355600Y1403350D02*
D03*
X336550D02*
D03*
Y1384300D02*
D03*
Y1365250D02*
D03*
X355600D02*
D03*
X374650D02*
D03*
Y1403350D02*
D03*
X363220Y1138555D02*
D03*
X707310Y1315749D02*
D03*
Y1341149D02*
D03*
Y1366549D02*
D03*
X732710D02*
D03*
X758110D02*
D03*
X783510D02*
D03*
X802560D02*
D03*
X758110Y1341149D02*
D03*
X732710D02*
D03*
Y1315749D02*
D03*
X758110D02*
D03*
X347980Y1138555D02*
D03*
X132774Y1759210D02*
D03*
X133117Y1749581D02*
D03*
X189858Y1787480D02*
D03*
X223768Y1787881D02*
D03*
Y1711681D02*
D03*
X189858Y1711280D02*
D03*
X133218Y1787881D02*
D03*
X132328Y1711481D02*
D03*
X100578D02*
D03*
X23256Y1810241D02*
D03*
X32480D02*
D03*
X13888D02*
D03*
Y1701321D02*
D03*
X32480D02*
D03*
X23256D02*
D03*
X26918Y1774531D02*
D03*
Y1755938D02*
D03*
Y1737346D02*
D03*
X143758Y1160301D02*
D03*
Y1141708D02*
D03*
X129788Y1160301D02*
D03*
Y1141708D02*
D03*
X101848Y1169440D02*
D03*
Y1150847D02*
D03*
Y1132255D02*
D03*
X115818Y1141708D02*
D03*
Y1160301D02*
D03*
X233928Y1340392D02*
D03*
Y1321799D02*
D03*
Y1303207D02*
D03*
Y1284614D02*
D03*
Y1266022D02*
D03*
Y1247429D02*
D03*
Y1228837D02*
D03*
X219958Y1219383D02*
D03*
Y1237976D02*
D03*
Y1256568D02*
D03*
Y1275161D02*
D03*
Y1293753D02*
D03*
Y1312346D02*
D03*
Y1330938D02*
D03*
Y1349531D02*
D03*
X300385Y1708533D02*
D03*
X285145D02*
D03*
X315625D02*
D03*
X875862Y656045D02*
D03*
X945862Y646045D02*
D03*
X915862Y696045D02*
D03*
X905862Y646045D02*
D03*
X925862Y666045D02*
D03*
X955862Y706045D02*
D03*
X995862Y696045D02*
D03*
X1005862Y666045D02*
D03*
X1025881Y646045D02*
D03*
X1065881D02*
D03*
X835881Y886045D02*
D03*
X865881Y826045D02*
D03*
Y866045D02*
D03*
X875881Y876045D02*
D03*
X895881Y846045D02*
D03*
X915881Y876045D02*
D03*
X955881D02*
D03*
X995881D02*
D03*
X1055881Y826045D02*
D03*
X1025881D02*
D03*
X935881Y786045D02*
D03*
X955881D02*
D03*
X965881Y776045D02*
D03*
X975881Y786045D02*
D03*
X985881Y776045D02*
D03*
Y796045D02*
D03*
X845881Y766045D02*
D03*
X835881Y636045D02*
D03*
X885881Y646045D02*
D03*
X875881Y676045D02*
D03*
X845881Y686045D02*
D03*
Y726045D02*
D03*
X865881Y706045D02*
D03*
X875881Y746045D02*
D03*
X905881Y716045D02*
D03*
Y686045D02*
D03*
X945881Y676045D02*
D03*
X1045881Y646045D02*
D03*
X1085881Y636045D02*
D03*
X985881Y706045D02*
D03*
X1015881Y716045D02*
D03*
X1025881Y676045D02*
D03*
X1055881Y666045D02*
D03*
X1075881Y686045D02*
D03*
X1055881Y706045D02*
D03*
X1075881Y806045D02*
D03*
X1035881Y876045D02*
D03*
X1015881Y856045D02*
D03*
X985881Y826045D02*
D03*
X975881Y846045D02*
D03*
X935881D02*
D03*
X945881Y816045D02*
D03*
X895881D02*
D03*
X885881Y786045D02*
D03*
X905881Y766045D02*
D03*
X965862Y756045D02*
D03*
X935862Y766045D02*
D03*
X945862Y756045D02*
D03*
X935862Y746045D02*
D03*
X945862Y736045D02*
D03*
X935862Y726045D02*
D03*
X955862Y766045D02*
D03*
X975862Y746045D02*
D03*
X985862Y736045D02*
D03*
X965862D02*
D03*
X955862Y746045D02*
D03*
X975862Y766045D02*
D03*
X985862Y756045D02*
D03*
X1673860Y934720D02*
D03*
X1681480D02*
D03*
X1694180Y952500D02*
D03*
X1706880D02*
D03*
X1656080Y901700D02*
D03*
Y894080D02*
D03*
X1682750Y885113D02*
D03*
X1673860Y881380D02*
D03*
X1706880Y962660D02*
D03*
X1694180D02*
D03*
X1677670Y919480D02*
D03*
X1671920Y909980D02*
D03*
X1683420D02*
D03*
X1677670Y900480D02*
D03*
D217*
X1678978Y691177D02*
D03*
X1684728Y700677D02*
D03*
X1673228D02*
D03*
X1678978Y710177D02*
D03*
X197700Y712812D02*
D03*
Y723812D02*
D03*
X208700Y712812D02*
D03*
Y723812D02*
D03*
X521366Y162189D02*
D03*
X529166D02*
D03*
X536966D02*
D03*
Y179389D02*
D03*
X529166D02*
D03*
X521366D02*
D03*
X409750Y215740D02*
D03*
Y225740D02*
D03*
X399750Y215740D02*
D03*
X389750D02*
D03*
Y205740D02*
D03*
Y225740D02*
D03*
X399750D02*
D03*
Y205740D02*
D03*
X409750D02*
D03*
X208880Y884380D02*
D03*
Y873380D02*
D03*
X197880Y884380D02*
D03*
Y873380D02*
D03*
X813660Y233041D02*
D03*
X824660D02*
D03*
X835660D02*
D03*
X846660D02*
D03*
X857660D02*
D03*
X813660Y222041D02*
D03*
X824660D02*
D03*
X835660D02*
D03*
X846660D02*
D03*
X857660D02*
D03*
X813660Y211041D02*
D03*
X824660D02*
D03*
X835660D02*
D03*
X846660D02*
D03*
X857660D02*
D03*
X813660Y200041D02*
D03*
X824660D02*
D03*
X835660D02*
D03*
X846660D02*
D03*
X857660D02*
D03*
X813660Y189041D02*
D03*
X824660D02*
D03*
X835660D02*
D03*
X846660D02*
D03*
X857660D02*
D03*
X325960Y2054040D02*
D03*
X314960D02*
D03*
X303960D02*
D03*
X325960Y2065040D02*
D03*
X314960D02*
D03*
X303960D02*
D03*
X325960Y2076040D02*
D03*
X314960D02*
D03*
X303960D02*
D03*
X325960Y2087040D02*
D03*
X314960D02*
D03*
X303960D02*
D03*
X325960Y2098040D02*
D03*
X314960D02*
D03*
X303960D02*
D03*
X325960Y2109040D02*
D03*
X314960D02*
D03*
X303960D02*
D03*
X325960Y2120040D02*
D03*
X314960D02*
D03*
X303960D02*
D03*
X325960Y2131040D02*
D03*
X314960D02*
D03*
X303960D02*
D03*
X325960Y2142040D02*
D03*
X314960D02*
D03*
X303960D02*
D03*
X353926Y811599D02*
D03*
Y822599D02*
D03*
Y833599D02*
D03*
Y844599D02*
D03*
Y855599D02*
D03*
X364926Y811599D02*
D03*
Y822599D02*
D03*
Y833599D02*
D03*
Y844599D02*
D03*
Y855599D02*
D03*
X375926Y811599D02*
D03*
Y822599D02*
D03*
Y833599D02*
D03*
Y844599D02*
D03*
Y855599D02*
D03*
X386926Y811599D02*
D03*
Y822599D02*
D03*
Y833599D02*
D03*
Y844599D02*
D03*
Y855599D02*
D03*
X397926Y811599D02*
D03*
Y822599D02*
D03*
Y833599D02*
D03*
Y844599D02*
D03*
Y855599D02*
D03*
D218*
X693039Y1092849D02*
D03*
Y1086499D02*
D03*
X681062Y1108964D02*
D03*
Y1069594D02*
D03*
Y1054354D02*
D03*
X786892Y1074674D02*
D03*
Y1081024D02*
D03*
X769112Y1145794D02*
D03*
Y1130554D02*
D03*
X569788Y1791649D02*
D03*
X585028D02*
D03*
X554548D02*
D03*
X343168Y1936779D02*
D03*
Y1967259D02*
D03*
Y1952019D02*
D03*
D219*
X758792Y1077374D02*
D03*
Y1087374D02*
D03*
Y1097374D02*
D03*
X748792D02*
D03*
Y1087374D02*
D03*
Y1077374D02*
D03*
X738792D02*
D03*
Y1087374D02*
D03*
Y1097374D02*
D03*
D248*
X358270Y1533530D02*
D03*
Y1550030D02*
D03*
X342770D02*
D03*
Y1533530D02*
D03*
D249*
X146420Y2179320D02*
D03*
X97420D02*
D03*
X146420Y2128520D02*
D03*
X97420D02*
D03*
X146420Y2077720D02*
D03*
X97420D02*
D03*
X146420Y2026920D02*
D03*
X97420D02*
D03*
D250*
X313309Y1615115D02*
D03*
X296291D02*
D03*
X315849Y1551615D02*
D03*
X298831D02*
D03*
M02*
