G04*
G04 #@! TF.GenerationSoftware,Altium Limited,Altium Designer,23.4.1 (23)*
G04*
G04 Layer_Physical_Order=9*
G04 Layer_Color=32768*
%FSLAX44Y44*%
%MOMM*%
G71*
G04*
G04 #@! TF.SameCoordinates,CF21992F-A9CA-4C5A-8A3B-549160C445C6*
G04*
G04*
G04 #@! TF.FilePolarity,Negative*
G04*
G01*
G75*
%ADD17C,0.5080*%
%ADD199C,1.0160*%
%ADD220R,8.9999X13.2772*%
%ADD221C,3.6048*%
%ADD222C,3.5560*%
%ADD223C,1.1938*%
%ADD224C,1.9548*%
G04:AMPARAMS|DCode=225|XSize=3.174mm|YSize=3.174mm|CornerRadius=0mm|HoleSize=0mm|Usage=FLASHONLY|Rotation=0.000|XOffset=0mm|YOffset=0mm|HoleType=Round|Shape=Relief|Width=0.254mm|Gap=0.254mm|Entries=4|*
%AMTHD225*
7,0,0,3.1740,2.6660,0.2540,45*
%
%ADD225THD225*%
G04:AMPARAMS|DCode=226|XSize=1.874mm|YSize=1.874mm|CornerRadius=0mm|HoleSize=0mm|Usage=FLASHONLY|Rotation=0.000|XOffset=0mm|YOffset=0mm|HoleType=Round|Shape=Relief|Width=0.254mm|Gap=0.254mm|Entries=4|*
%AMTHD226*
7,0,0,1.8740,1.3660,0.2540,45*
%
%ADD226THD226*%
%ADD227C,3.3020*%
G04:AMPARAMS|DCode=228|XSize=3.3274mm|YSize=3.3274mm|CornerRadius=0mm|HoleSize=0mm|Usage=FLASHONLY|Rotation=0.000|XOffset=0mm|YOffset=0mm|HoleType=Round|Shape=Relief|Width=0.254mm|Gap=0.254mm|Entries=4|*
%AMTHD228*
7,0,0,3.3274,2.8194,0.2540,45*
%
%ADD228THD228*%
%ADD229C,2.1082*%
G04:AMPARAMS|DCode=230|XSize=2.921mm|YSize=2.921mm|CornerRadius=0mm|HoleSize=0mm|Usage=FLASHONLY|Rotation=0.000|XOffset=0mm|YOffset=0mm|HoleType=Round|Shape=Relief|Width=0.254mm|Gap=0.254mm|Entries=4|*
%AMTHD230*
7,0,0,2.9210,2.4130,0.2540,45*
%
%ADD230THD230*%
%ADD231C,1.7018*%
%AMTHOVALD232*
21,1,0.3000,2.0740,0,0,270.0*
1,1,2.0740,0.0000,0.1500*
1,1,2.0740,0.0000,-0.1500*
21,0,0.3000,1.5660,0,0,270.0*
1,0,1.5660,0.0000,0.1500*
1,0,1.5660,0.0000,-0.1500*
4,0,4,-0.0898,0.0602,-0.8231,0.7935,-0.6435,0.9731,0.0898,0.2398,-0.0898,0.0602,0.0*
4,0,4,-0.0898,-0.2398,0.6435,-0.9731,0.8231,-0.7935,0.0898,-0.0602,-0.0898,-0.2398,0.0*
4,0,4,-0.0898,0.2398,0.6435,0.9731,0.8231,0.7935,0.0898,0.0602,-0.0898,0.2398,0.0*
4,0,4,-0.0898,-0.0602,-0.8231,-0.7935,-0.6435,-0.9731,0.0898,-0.2398,-0.0898,-0.0602,0.0*
%
%ADD232THOVALD232*%

%AMTHOVALD233*
21,1,0.3000,2.0740,0,0,90.0*
1,1,2.0740,0.0000,-0.1500*
1,1,2.0740,0.0000,0.1500*
21,0,0.3000,1.5660,0,0,90.0*
1,0,1.5660,0.0000,-0.1500*
1,0,1.5660,0.0000,0.1500*
4,0,4,0.0898,-0.0602,0.8231,-0.7935,0.6435,-0.9731,-0.0898,-0.2398,0.0898,-0.0602,0.0*
4,0,4,0.0898,0.2398,-0.6435,0.9731,-0.8231,0.7935,-0.0898,0.0602,0.0898,0.2398,0.0*
4,0,4,0.0898,-0.2398,-0.6435,-0.9731,-0.8231,-0.7935,-0.0898,-0.0602,0.0898,-0.2398,0.0*
4,0,4,0.0898,0.0602,0.8231,0.7935,0.6435,0.9731,-0.0898,0.2398,0.0898,0.0602,0.0*
%
%ADD233THOVALD233*%

%AMTHOVALD234*
21,1,0.6500,2.0240,0,0,360.0*
1,1,2.0240,-0.3250,0.0000*
1,1,2.0240,0.3250,0.0000*
21,0,0.6500,1.5160,0,0,360.0*
1,0,1.5160,-0.3250,0.0000*
1,0,1.5160,0.3250,0.0000*
4,0,4,-0.2352,-0.0898,-0.9508,-0.8054,-1.1304,-0.6258,-0.4148,0.0898,-0.2352,-0.0898,0.0*
4,0,4,0.4148,-0.0898,1.1304,0.6258,0.9508,0.8054,0.2352,0.0898,0.4148,-0.0898,0.0*
4,0,4,-0.4148,-0.0898,-1.1304,0.6258,-0.9508,0.8054,-0.2352,0.0898,-0.4148,-0.0898,0.0*
4,0,4,0.2352,-0.0898,0.9508,-0.8054,1.1304,-0.6258,0.4148,0.0898,0.2352,-0.0898,0.0*
%
%ADD234THOVALD234*%

%AMTHOVALD235*
21,1,0.6500,2.0240,0,0,180.0*
1,1,2.0240,0.3250,0.0000*
1,1,2.0240,-0.3250,0.0000*
21,0,0.6500,1.5160,0,0,180.0*
1,0,1.5160,0.3250,0.0000*
1,0,1.5160,-0.3250,0.0000*
4,0,4,0.2352,0.0898,0.9508,0.8054,1.1304,0.6258,0.4148,-0.0898,0.2352,0.0898,0.0*
4,0,4,-0.4148,0.0898,-1.1304,-0.6258,-0.9508,-0.8054,-0.2352,-0.0898,-0.4148,0.0898,0.0*
4,0,4,0.4148,0.0898,1.1304,-0.6258,0.9508,-0.8054,0.2352,-0.0898,0.4148,0.0898,0.0*
4,0,4,-0.2352,0.0898,-0.9508,0.8054,-1.1304,0.6258,-0.4148,-0.0898,-0.2352,0.0898,0.0*
%
%ADD235THOVALD235*%

%ADD236C,1.6048*%
%ADD237C,0.5334*%
%ADD238C,0.5048*%
%ADD239C,0.6048*%
D17*
X0Y1968500D02*
X152400D01*
Y1676400D02*
Y1968500D01*
X0Y1676400D02*
X152400D01*
D199*
X0Y2352044D02*
G03*
X-2544Y2349500I0J-2544D01*
G01*
X0Y2352044D02*
G03*
X19882Y2360279I0J28117D01*
G01*
X25400Y2364744D02*
G03*
X23601Y2363999I0J-2544D01*
G01*
X866144Y2362200D02*
G03*
X863600Y2364744I-2544J0D01*
G01*
X1083792Y1615444D02*
G03*
X866119Y1827532I-216222J-4169D01*
G01*
X1601999Y1614699D02*
G03*
X1600200Y1615444I-1799J-1799D01*
G01*
X1920244Y1295400D02*
G03*
X1919499Y1297199I-2544J0D01*
G01*
Y988801D02*
G03*
X1920244Y990600I-1799J1799D01*
G01*
X1932944Y609600D02*
G03*
X1932199Y611399I-2544J0D01*
G01*
Y3281D02*
G03*
X1932944Y5080I-1799J1799D01*
G01*
X1925320Y-2544D02*
G03*
X1927119Y-1799I0J2544D01*
G01*
X-2544Y0D02*
G03*
X0Y-2544I2544J0D01*
G01*
X-2544Y0D02*
Y2349500D01*
X19882Y2360279D02*
X23601Y2363999D01*
X25400Y2364744D02*
X863600D01*
X866144Y1827888D02*
Y2362200D01*
X866119Y1827532D02*
X866144Y1827888D01*
X1083792Y1615444D02*
X1600200D01*
X1601999Y1614699D02*
X1919499Y1297199D01*
X1920244Y990600D02*
Y1295400D01*
X1844044Y913346D02*
X1919499Y988801D01*
X1844044Y699554D02*
Y913346D01*
Y699554D02*
X1932199Y611399D01*
X1932944Y5080D02*
Y609600D01*
X1927119Y-1799D02*
X1932199Y3281D01*
X0Y-2544D02*
X1925320D01*
D220*
X261318Y1582385D02*
D03*
D221*
X939800Y1689100D02*
D03*
X127000Y2298700D02*
D03*
X1879600Y50800D02*
D03*
X50800D02*
D03*
D222*
X51048Y1519711D02*
D03*
Y1646711D02*
D03*
D223*
X76448Y1547651D02*
D03*
Y1567971D02*
D03*
Y1588291D02*
D03*
Y1608611D02*
D03*
X94228Y1557811D02*
D03*
Y1578131D02*
D03*
Y1598451D02*
D03*
Y1618771D02*
D03*
X142488Y1514631D02*
D03*
Y1628931D02*
D03*
Y1651791D02*
D03*
Y1537491D02*
D03*
D224*
X49112Y548640D02*
D03*
Y391321D02*
D03*
X50461Y718951D02*
D03*
Y877091D02*
D03*
D225*
X74512Y523240D02*
D03*
X23712D02*
D03*
Y574040D02*
D03*
X74512D02*
D03*
Y365921D02*
D03*
X23712D02*
D03*
Y416721D02*
D03*
X74512D02*
D03*
X75861Y744351D02*
D03*
X25061D02*
D03*
Y693551D02*
D03*
X75861D02*
D03*
Y902491D02*
D03*
X25061D02*
D03*
Y851691D02*
D03*
X75861D02*
D03*
D226*
X402400Y1570450D02*
D03*
X391700D02*
D03*
X381000D02*
D03*
X402400Y1581150D02*
D03*
X391700D02*
D03*
X381000D02*
D03*
X402400Y1591850D02*
D03*
X391700D02*
D03*
X381000D02*
D03*
D227*
X66288Y1245211D02*
D03*
Y1329211D02*
D03*
D228*
X194288D02*
D03*
Y1287211D02*
D03*
Y1245211D02*
D03*
D229*
X139288Y1329211D02*
D03*
Y1287211D02*
D03*
Y1245211D02*
D03*
D230*
X707177Y1384300D02*
D03*
X357927D02*
D03*
D231*
X707177Y1193800D02*
D03*
X548427D02*
D03*
X516677D02*
D03*
X484927D02*
D03*
X357927D02*
D03*
D232*
X40888Y1730781D02*
D03*
D233*
Y1780781D02*
D03*
D234*
X13888Y1720781D02*
D03*
D235*
Y1790781D02*
D03*
D236*
X45720Y2028120D02*
D03*
Y2078120D02*
D03*
Y2128120D02*
D03*
Y2178120D02*
D03*
D237*
X876300Y815890D02*
D03*
X1447800Y798864D02*
D03*
Y794292D02*
D03*
X1340042Y765586D02*
D03*
X1332030Y765649D02*
D03*
X1340064Y759502D02*
D03*
X1331925Y760059D02*
D03*
X1076464Y773689D02*
D03*
X1085530Y766629D02*
D03*
X426720Y1504950D02*
D03*
X1402334Y671830D02*
D03*
X1382014D02*
D03*
X1361694D02*
D03*
X1341374D02*
D03*
X1321054D02*
D03*
X1300734D02*
D03*
X1280414D02*
D03*
X1260486D02*
D03*
X1270023Y643890D02*
D03*
X1290574D02*
D03*
X1311031D02*
D03*
X1331214D02*
D03*
X1371854D02*
D03*
X1392312D02*
D03*
X1412632D02*
D03*
X1432814D02*
D03*
X346673Y1524015D02*
D03*
X365760Y1554480D02*
D03*
X335140Y1619206D02*
D03*
X358140Y1590040D02*
D03*
X356595Y1596453D02*
D03*
X856064Y826045D02*
D03*
X855984Y815890D02*
D03*
X855980Y911860D02*
D03*
Y866045D02*
D03*
Y836064D02*
D03*
X287994Y1615243D02*
D03*
X179418Y1630455D02*
D03*
X288598Y1551615D02*
D03*
X179418Y1593950D02*
D03*
X179518Y1568550D02*
D03*
X179619Y1542979D02*
D03*
X845881Y866045D02*
D03*
X835944Y856045D02*
D03*
Y866045D02*
D03*
X845944Y886045D02*
D03*
X466090Y1546860D02*
D03*
Y1562100D02*
D03*
Y1577340D02*
D03*
X464820Y1605280D02*
D03*
X416560Y1559560D02*
D03*
X378460Y1615440D02*
D03*
X414020D02*
D03*
X426720Y1605280D02*
D03*
X388620Y1504950D02*
D03*
X406400Y1615440D02*
D03*
X416560Y1605280D02*
D03*
X398780Y1615440D02*
D03*
X419100Y1504950D02*
D03*
X434340D02*
D03*
X404464Y1506270D02*
D03*
X846525Y855881D02*
D03*
X462280Y1592580D02*
D03*
X846525Y816133D02*
D03*
X835881Y826133D02*
D03*
Y836133D02*
D03*
X845881D02*
D03*
X820420Y851344D02*
D03*
X373825Y1526146D02*
D03*
X822960Y806045D02*
D03*
X368300Y1504950D02*
D03*
X447040Y1591850D02*
D03*
X358140Y1578864D02*
D03*
Y1583436D02*
D03*
X179518Y1619350D02*
D03*
X155219Y1558051D02*
D03*
Y1553479D02*
D03*
X1043940Y904240D02*
D03*
X965876Y674534D02*
D03*
X1107935Y450911D02*
D03*
X1137280D02*
D03*
X1097280Y518411D02*
D03*
X1067935D02*
D03*
X884488Y449580D02*
D03*
X913832D02*
D03*
X824234Y498681D02*
D03*
X873760Y518411D02*
D03*
X985113Y645296D02*
D03*
X1351280Y647700D02*
D03*
X1239520D02*
D03*
X1244600Y670560D02*
D03*
X1249680Y647700D02*
D03*
X1447556Y538416D02*
D03*
X1432316Y538353D02*
D03*
X1417077Y538289D02*
D03*
Y502793D02*
D03*
X1432316Y502856D02*
D03*
X1447556Y502920D02*
D03*
X1305677Y538416D02*
D03*
X1290437Y538353D02*
D03*
X1275197Y538289D02*
D03*
Y502793D02*
D03*
X1290437Y502856D02*
D03*
X1305677Y502920D02*
D03*
X1438275Y609600D02*
D03*
X1452245D02*
D03*
X1372235D02*
D03*
X1386205D02*
D03*
X1306195D02*
D03*
X1320165D02*
D03*
X1254125D02*
D03*
X1240155D02*
D03*
X1407417Y727555D02*
D03*
Y713585D02*
D03*
X1341617D02*
D03*
X1308116Y770590D02*
D03*
X1301115Y820933D02*
D03*
Y844043D02*
D03*
X1392555Y869315D02*
D03*
Y883285D02*
D03*
X1409700Y837148D02*
D03*
X1416685Y844133D02*
D03*
Y808319D02*
D03*
X1409700Y801334D02*
D03*
X1416685Y788197D02*
D03*
X1331371Y881409D02*
D03*
X1402683Y748377D02*
D03*
X1442328Y645160D02*
D03*
X1422009D02*
D03*
X1401689D02*
D03*
X1381369D02*
D03*
X1340728D02*
D03*
X1320408D02*
D03*
X1300089D02*
D03*
X1279538D02*
D03*
X1432168Y673100D02*
D03*
X1411848D02*
D03*
X1391528D02*
D03*
X1371208D02*
D03*
X1350889D02*
D03*
X1330569D02*
D03*
X1310249D02*
D03*
X1289928D02*
D03*
X1270000D02*
D03*
X1378971Y784578D02*
D03*
X1386752Y758810D02*
D03*
X1387283Y751689D02*
D03*
X1385293Y768269D02*
D03*
X1316285Y761366D02*
D03*
X1331651Y790810D02*
D03*
X1339202Y809859D02*
D03*
X1379202Y769859D02*
D03*
X1086077Y773689D02*
D03*
X1339342Y791665D02*
D03*
X1332388Y805450D02*
D03*
X1339342Y801000D02*
D03*
X1378983Y800498D02*
D03*
X1339342Y816981D02*
D03*
X1378294Y805017D02*
D03*
X1055357Y725521D02*
D03*
X1045294Y733316D02*
D03*
X1036077Y746045D02*
D03*
X1066077Y756006D02*
D03*
X1025424Y764676D02*
D03*
X1016077Y766567D02*
D03*
X1339342Y785590D02*
D03*
X1315720Y786379D02*
D03*
X1016077Y746045D02*
D03*
X1055988Y796270D02*
D03*
X1095674Y795956D02*
D03*
X1076077D02*
D03*
X1315720Y821060D02*
D03*
X1331342Y816488D02*
D03*
X1006077Y756133D02*
D03*
X1005862Y766045D02*
D03*
X1035862Y796045D02*
D03*
X1025881Y786045D02*
D03*
X1036970Y755152D02*
D03*
X1006058Y745956D02*
D03*
X1036077Y767374D02*
D03*
X1046276Y766925D02*
D03*
X1339812Y742427D02*
D03*
X1318206Y748538D02*
D03*
X1046373Y756271D02*
D03*
X1026245Y755652D02*
D03*
X1026077Y746045D02*
D03*
X1056077Y752484D02*
D03*
X1055862Y766567D02*
D03*
X1066077D02*
D03*
X1075959Y746123D02*
D03*
X1378355Y749549D02*
D03*
X1332048D02*
D03*
X1340048D02*
D03*
X1016058Y755848D02*
D03*
X1066077Y775956D02*
D03*
X1386971Y792578D02*
D03*
X1056077Y735579D02*
D03*
X1066454D02*
D03*
X1378971Y760578D02*
D03*
X1095674Y785956D02*
D03*
X1075881Y786045D02*
D03*
X1066077Y785956D02*
D03*
X1340965Y776340D02*
D03*
X1331342Y776488D02*
D03*
X1056077Y775956D02*
D03*
X1088394Y823640D02*
D03*
X1315720Y845060D02*
D03*
X1086077Y835956D02*
D03*
X1066077Y825956D02*
D03*
X1076077Y835956D02*
D03*
X1331342Y824488D02*
D03*
X1339342D02*
D03*
X1331342Y840488D02*
D03*
X1335543Y871680D02*
D03*
X1343543D02*
D03*
X1075976Y865306D02*
D03*
X1331342Y848488D02*
D03*
X1086077Y865956D02*
D03*
Y875956D02*
D03*
X1378971Y792578D02*
D03*
Y848578D02*
D03*
Y856578D02*
D03*
X1315720Y861060D02*
D03*
X1006077Y776045D02*
D03*
X996077Y746045D02*
D03*
Y766045D02*
D03*
X1076077Y815956D02*
D03*
X1086077D02*
D03*
Y845956D02*
D03*
X1066077D02*
D03*
X1076077Y855956D02*
D03*
X1066077Y865956D02*
D03*
X1076077Y875956D02*
D03*
X1386971Y848578D02*
D03*
X1402683Y844377D02*
D03*
Y836377D02*
D03*
Y828377D02*
D03*
Y804377D02*
D03*
Y764377D02*
D03*
X1386971Y744578D02*
D03*
Y808578D02*
D03*
X1378971Y816578D02*
D03*
X1386971Y824578D02*
D03*
X1378971D02*
D03*
Y832578D02*
D03*
Y840578D02*
D03*
X1386971Y856578D02*
D03*
X1383543Y872200D02*
D03*
X1375543D02*
D03*
X1339342Y832488D02*
D03*
Y840488D02*
D03*
Y848488D02*
D03*
X1331342Y856488D02*
D03*
X1086077Y855956D02*
D03*
X1035862Y716045D02*
D03*
X975881Y756045D02*
D03*
X1075881Y826045D02*
D03*
X1656080Y879235D02*
D03*
Y871743D02*
D03*
Y886727D02*
D03*
Y864251D02*
D03*
Y856759D02*
D03*
X1647836Y849268D02*
D03*
X1639592Y856759D02*
D03*
X1656080Y841776D02*
D03*
Y849268D02*
D03*
X1639592D02*
D03*
Y841776D02*
D03*
X1647836D02*
D03*
Y856759D02*
D03*
X1634522Y944440D02*
D03*
X1643451D02*
D03*
X1643844Y922349D02*
D03*
X1652302D02*
D03*
Y932509D02*
D03*
Y944440D02*
D03*
Y955369D02*
D03*
X1643264D02*
D03*
X1634522D02*
D03*
X375920Y322580D02*
D03*
Y307340D02*
D03*
Y292100D02*
D03*
X363220Y322580D02*
D03*
Y307340D02*
D03*
Y292100D02*
D03*
X350520Y322580D02*
D03*
Y307340D02*
D03*
Y292100D02*
D03*
X337820D02*
D03*
Y307340D02*
D03*
Y322580D02*
D03*
X566420Y1090871D02*
D03*
X721360Y1028700D02*
D03*
X713740D02*
D03*
X706120D02*
D03*
X652691Y1066871D02*
D03*
X644982Y1066800D02*
D03*
X637451Y1066871D02*
D03*
X629742Y1066800D02*
D03*
Y1059180D02*
D03*
X644982Y1051560D02*
D03*
X652602D02*
D03*
Y1059180D02*
D03*
X644982D02*
D03*
X637362D02*
D03*
X556260D02*
D03*
X548640D02*
D03*
X541020D02*
D03*
Y1051560D02*
D03*
X548640D02*
D03*
X556260D02*
D03*
X563880D02*
D03*
Y1059180D02*
D03*
Y1066800D02*
D03*
X556171Y1066871D02*
D03*
X548640Y1066800D02*
D03*
X540931Y1066871D02*
D03*
X1649084Y647444D02*
D03*
Y632460D02*
D03*
X1640840D02*
D03*
X1731900Y725670D02*
D03*
X1718253Y724267D02*
D03*
X1705234Y710677D02*
D03*
X1635760Y746760D02*
D03*
X1644501D02*
D03*
X1653540D02*
D03*
Y735831D02*
D03*
Y723900D02*
D03*
Y713740D02*
D03*
X1645081D02*
D03*
X1640840Y639952D02*
D03*
X1657328D02*
D03*
Y632460D02*
D03*
X1640840Y647444D02*
D03*
X1649084Y639952D02*
D03*
X1657328Y647444D02*
D03*
X1645081Y680720D02*
D03*
Y665480D02*
D03*
X1657328Y654936D02*
D03*
Y677411D02*
D03*
Y662427D02*
D03*
Y669919D02*
D03*
X1644688Y735831D02*
D03*
X1635760D02*
D03*
X1294130Y1094740D02*
D03*
X1285240D02*
D03*
X1289177Y1086098D02*
D03*
X1271778Y1078230D02*
D03*
X1266190Y1070610D02*
D03*
X1282700Y1104900D02*
D03*
X1271778D02*
D03*
X1267460Y1111250D02*
D03*
X1277620D02*
D03*
X1267460Y1094740D02*
D03*
X1277620D02*
D03*
X1271778Y1086098D02*
D03*
X1347470Y1075098D02*
D03*
Y1082040D02*
D03*
Y1089660D02*
D03*
Y1097280D02*
D03*
Y1104900D02*
D03*
Y1112520D02*
D03*
X1339850Y1094740D02*
D03*
X1332230D02*
D03*
X1336880Y1086098D02*
D03*
X1347470Y1062098D02*
D03*
X1485900Y1063368D02*
D03*
X1475310Y1087368D02*
D03*
X1470660Y1096010D02*
D03*
X1478280D02*
D03*
X1485900Y1113790D02*
D03*
Y1106170D02*
D03*
Y1098550D02*
D03*
Y1090930D02*
D03*
Y1083310D02*
D03*
Y1076368D02*
D03*
X1410208Y1087368D02*
D03*
X1416050Y1096010D02*
D03*
X1405890D02*
D03*
X1416050Y1112520D02*
D03*
X1405890D02*
D03*
X1410208Y1106170D02*
D03*
X1421130D02*
D03*
X1404620Y1071880D02*
D03*
X1410208Y1079500D02*
D03*
X1427607Y1087368D02*
D03*
X1423670Y1096010D02*
D03*
X1432560D02*
D03*
X1036059Y835508D02*
D03*
X342329Y750701D02*
D03*
X342392Y758952D02*
D03*
X342583Y767719D02*
D03*
X342392Y776986D02*
D03*
X335217Y784229D02*
D03*
X342075Y784483D02*
D03*
X362395Y769497D02*
D03*
X363157Y781689D02*
D03*
X414719Y769751D02*
D03*
X414465Y783213D02*
D03*
X437579Y839347D02*
D03*
X427927Y840109D02*
D03*
X424117Y878463D02*
D03*
X416927Y884034D02*
D03*
X428422Y886574D02*
D03*
X433258Y895043D02*
D03*
X424117D02*
D03*
X413653D02*
D03*
X337122Y884941D02*
D03*
X336708Y895591D02*
D03*
X875881Y886045D02*
D03*
X895881Y876045D02*
D03*
X936184D02*
D03*
X975881D02*
D03*
X1015881D02*
D03*
X885881Y855761D02*
D03*
X916009D02*
D03*
X995881Y856045D02*
D03*
X1035881D02*
D03*
X955881Y846045D02*
D03*
X845881Y826045D02*
D03*
X865881Y816045D02*
D03*
Y846045D02*
D03*
X885881Y836168D02*
D03*
X935881D02*
D03*
X995881Y835508D02*
D03*
X975881Y826045D02*
D03*
X925738Y826176D02*
D03*
X905607D02*
D03*
X1035862Y815848D02*
D03*
X1055881D02*
D03*
X1005862Y805688D02*
D03*
X885881Y806045D02*
D03*
X916046Y795916D02*
D03*
X935881Y796045D02*
D03*
X955881D02*
D03*
X995862D02*
D03*
X985881Y786045D02*
D03*
X965881D02*
D03*
X945881D02*
D03*
X925738D02*
D03*
X845881D02*
D03*
X935881Y776045D02*
D03*
X955881D02*
D03*
X975881D02*
D03*
X985881Y766045D02*
D03*
X965881D02*
D03*
X945881D02*
D03*
X865881D02*
D03*
X935881Y756045D02*
D03*
X955881D02*
D03*
X995862D02*
D03*
X985881Y746045D02*
D03*
X965881D02*
D03*
X945881D02*
D03*
X895733Y745467D02*
D03*
X925738Y746045D02*
D03*
X845881D02*
D03*
X875850Y735858D02*
D03*
X935881Y735504D02*
D03*
X955881D02*
D03*
X975881D02*
D03*
X995862D02*
D03*
X985881Y726045D02*
D03*
X965881D02*
D03*
X925738Y726124D02*
D03*
X865881Y726045D02*
D03*
X885881Y716045D02*
D03*
X915862D02*
D03*
X1005862D02*
D03*
X845881Y706045D02*
D03*
X945881Y696045D02*
D03*
X975862D02*
D03*
X1075881Y706045D02*
D03*
X1055881Y685575D02*
D03*
X1036248D02*
D03*
X885881Y686045D02*
D03*
X865881D02*
D03*
X845881Y665988D02*
D03*
X1075881Y666045D02*
D03*
X918943Y1259326D02*
D03*
X944343D02*
D03*
X957043D02*
D03*
X982443D02*
D03*
X944343Y1233926D02*
D03*
X957043D02*
D03*
X969743D02*
D03*
X982443D02*
D03*
Y1246626D02*
D03*
X969743D02*
D03*
X957043D02*
D03*
X944343D02*
D03*
X931643D02*
D03*
X918943D02*
D03*
X906243D02*
D03*
X893543D02*
D03*
X880843D02*
D03*
Y1233926D02*
D03*
X868143Y1259326D02*
D03*
Y1246626D02*
D03*
Y1233926D02*
D03*
X1170403Y1071366D02*
D03*
X1117063Y1045966D02*
D03*
X1129763D02*
D03*
X1142463D02*
D03*
X1155163D02*
D03*
X1167863D02*
D03*
X1162783Y1058666D02*
D03*
X1150083D02*
D03*
X1137383D02*
D03*
X1124683D02*
D03*
X1119603Y1071366D02*
D03*
X1132303D02*
D03*
X1145003D02*
D03*
X1157703D02*
D03*
X1152623Y1084066D02*
D03*
X1139923D02*
D03*
X1127223D02*
D03*
X1122143Y1096766D02*
D03*
X1134843D02*
D03*
X1147543D02*
D03*
X1160243D02*
D03*
X1155163Y1109466D02*
D03*
X1142463D02*
D03*
X1129763D02*
D03*
X1117063D02*
D03*
X1111983Y1122166D02*
D03*
X1124683D02*
D03*
X1137383D02*
D03*
X1150083D02*
D03*
X1157703Y1134866D02*
D03*
X1145003D02*
D03*
X1132303D02*
D03*
X1119603D02*
D03*
X1106903D02*
D03*
X1101823Y1147566D02*
D03*
X1114523D02*
D03*
X1127223D02*
D03*
X1139923D02*
D03*
X1152623D02*
D03*
X1147543Y1160266D02*
D03*
X1134843D02*
D03*
X1122143D02*
D03*
X1109443D02*
D03*
X375920Y2133600D02*
D03*
X360680Y2088290D02*
D03*
X368300Y2075180D02*
D03*
X358140Y2120900D02*
D03*
X368300D02*
D03*
X358140Y2075180D02*
D03*
X363220D02*
D03*
Y2120680D02*
D03*
X417830Y427990D02*
D03*
X407670D02*
D03*
X378460Y431800D02*
D03*
X373707Y426717D02*
D03*
X383147Y427181D02*
D03*
X414020Y518160D02*
D03*
X403860D02*
D03*
X381000D02*
D03*
X370840D02*
D03*
X222686Y169829D02*
D03*
X238879Y171572D02*
D03*
X209004Y169829D02*
D03*
X215900Y163180D02*
D03*
X228600D02*
D03*
X238879D02*
D03*
X248967D02*
D03*
X350520Y185420D02*
D03*
X358140Y191389D02*
D03*
X368749Y192709D02*
D03*
X358140Y180340D02*
D03*
X369208Y180360D02*
D03*
X378460Y180340D02*
D03*
X386080D02*
D03*
X378460Y236220D02*
D03*
X360578Y240021D02*
D03*
X369951Y239999D02*
D03*
Y229927D02*
D03*
X363220Y246739D02*
D03*
X372838D02*
D03*
X617220Y246649D02*
D03*
Y228600D02*
D03*
X607060Y220980D02*
D03*
Y238760D02*
D03*
Y254000D02*
D03*
X591820D02*
D03*
X622300Y266700D02*
D03*
X607060D02*
D03*
X591820D02*
D03*
X628206Y254000D02*
D03*
Y238760D02*
D03*
Y220980D02*
D03*
Y203200D02*
D03*
Y182880D02*
D03*
X518160Y205740D02*
D03*
X506166Y208978D02*
D03*
X582777Y116989D02*
D03*
X563136D02*
D03*
X545429D02*
D03*
X529166D02*
D03*
X511821D02*
D03*
X579946Y142509D02*
D03*
Y150129D02*
D03*
Y157749D02*
D03*
Y165369D02*
D03*
Y172989D02*
D03*
X522796Y249189D02*
D03*
X530416D02*
D03*
X548196D02*
D03*
X540576D02*
D03*
X535496Y242839D02*
D03*
Y233949D02*
D03*
X544386Y227599D02*
D03*
X382270Y247619D02*
D03*
X399895Y247572D02*
D03*
X362658Y442235D02*
D03*
X351736Y442743D02*
D03*
Y502645D02*
D03*
X362658Y503153D02*
D03*
X358648Y475488D02*
D03*
Y469392D02*
D03*
X361388Y485373D02*
D03*
X361642Y460227D02*
D03*
X129540Y500380D02*
D03*
X139700D02*
D03*
X147320Y497840D02*
D03*
Y490220D02*
D03*
X177721Y431312D02*
D03*
X175260Y459740D02*
D03*
X180340Y457200D02*
D03*
Y449580D02*
D03*
Y441960D02*
D03*
X172720Y443120D02*
D03*
X133117Y1749581D02*
D03*
X875862Y656045D02*
D03*
X945862Y646045D02*
D03*
X915862Y696045D02*
D03*
X905862Y646045D02*
D03*
X925862Y666045D02*
D03*
X955862Y706045D02*
D03*
X995862Y696045D02*
D03*
X1005862Y666045D02*
D03*
X1025881Y646045D02*
D03*
X1065881D02*
D03*
D238*
X197700Y712812D02*
D03*
Y723812D02*
D03*
X208700Y712812D02*
D03*
Y723812D02*
D03*
X208880Y884380D02*
D03*
Y873380D02*
D03*
X197880Y884380D02*
D03*
Y873380D02*
D03*
D239*
X521366Y162189D02*
D03*
X529166D02*
D03*
X536966D02*
D03*
Y179389D02*
D03*
X529166D02*
D03*
X521366D02*
D03*
M02*
